SplineFontDB: 3.2
FontName: Gontserrat-Italic
FullName: Gontserrat Italic
FamilyName: Gontserrat
Weight: Book
Copyright: Gontserrat is a derivative work of Montserrat under the Open Font License, version 1.1. Copyright 2020 Gabriel Classon (gabeclasson.com). Montserrat copyright 2011 The Montserrat Project Authors (https://github.com/JulietaUla/Montserrat). 
Version: 7.222
ItalicAngle: -11.3
UnderlinePosition: -100
UnderlineWidth: 50
Ascent: 800
Descent: 200
InvalidEm: 0
sfntRevision: 0x00010000
LayerCount: 2
Layer: 0 1 "Back" 1
Layer: 1 1 "Fore" 0
XUID: [1021 930 -1503615855 23938]
StyleMap: 0x0001
FSType: 0
OS2Version: 4
OS2_WeightWidthSlopeOnly: 0
OS2_UseTypoMetrics: 1
CreationTime: 1485852814
ModificationTime: 1642922936
PfmFamily: 81
TTFWeight: 400
TTFWidth: 5
LineGap: 0
VLineGap: 0
Panose: 0 0 5 0 0 0 0 0 0 0
OS2TypoAscent: 968
OS2TypoAOffset: 0
OS2TypoDescent: -251
OS2TypoDOffset: 0
OS2TypoLinegap: 0
OS2WinAscent: 1177
OS2WinAOffset: 0
OS2WinDescent: 496
OS2WinDOffset: 0
HheadAscent: 968
HheadAOffset: 0
HheadDescent: -251
HheadDOffset: 0
OS2SubXSize: 650
OS2SubYSize: 600
OS2SubXOff: -15
OS2SubYOff: 75
OS2SupXSize: 650
OS2SupYSize: 600
OS2SupXOff: 70
OS2SupYOff: 350
OS2StrikeYSize: 50
OS2StrikeYPos: 317
OS2CapHeight: 700
OS2XHeight: 529
OS2Vendor: 'ULA '
OS2CodePages: 20000193.00000000
OS2UnicodeRanges: 20000007.00000001.00000000.00000000
Lookup: 1 0 0 "'rtla' Right to Left Alternates lookup 0" { "'rtla' Right to Left Alternates lookup 0 subtable"  } ['rtla' ('DFLT' <'dflt' > ) ]
Lookup: 1 0 0 "<10,2> Inferiors lookup 1" { "<10,2> Inferiors lookup 1 subtable" ("inferior") } [<10,2> ('DFLT' <'dflt' > ) 'subs' ('DFLT' <'dflt' > ) ]
Lookup: 1 0 0 "<10,1> Superiors lookup 2" { "<10,1> Superiors lookup 2 subtable" ("superior") } [<10,1> ('DFLT' <'dflt' > ) 'sups' ('DFLT' <'dflt' > ) ]
Lookup: 1 0 0 "<11,2> Diagonal Fractions lookup 3" { "<11,2> Diagonal Fractions lookup 3 subtable"  } [<11,2> ('DFLT' <'dflt' > ) 'frac' ('DFLT' <'dflt' > ) ]

StartChar: .notdef
Encoding: 65536 -1 0
Width: 587
Flags: W
LayerCount: 2
Fore
SplineSet
40 0 m 1,0,-1
 40 700 l 1,1,-1
 547 700 l 1,2,-1
 547 0 l 1,3,-1
 40 0 l 1,0,-1
120 70 m 1,4,-1
 467 70 l 1,5,-1
 467 630 l 1,6,-1
 120 630 l 1,7,-1
 120 70 l 1,4,-1
EndSplineSet
EndChar

StartChar: exclam
Encoding: 33 33 5
Width: 209
Flags: W
LayerCount: 2
Fore
SplineSet
242 690 m 1,0,-1
 208 519 l 1,1,-1
 133 215 l 1,2,-1
 72 215 l 1,3,-1
 119 519 l 1,4,-1
 153 690 l 1,5,-1
 242 690 l 1,0,-1
113 91.5 m 128,-1,7
 127 77 127 77 127 54 c 0,8,9
 127 28 127 28 109.5 9.5 c 128,-1,10
 92 -9 92 -9 67 -9 c 0,11,12
 45 -9 45 -9 31.5 6 c 128,-1,13
 18 21 18 21 18 44 c 0,14,15
 18 70 18 70 35 88 c 128,-1,16
 52 106 52 106 77 106 c 0,17,6
 99 106 99 106 113 91.5 c 128,-1,7
EndSplineSet
Substitution2: "<3,3> Small Caps in Latin lookup 11 subtable" exclam.sc
EndChar

StartChar: numbersign
Encoding: 35 35 7
Width: 686
Flags: W
LayerCount: 2
Fore
SplineSet
690 442 m 1,0,-1
 545 442 l 1,1,-1
 505 252 l 1,2,-1
 646 252 l 1,3,-1
 634 181 l 1,4,-1
 490 181 l 1,5,-1
 452 0 l 1,6,-1
 381 0 l 1,7,-1
 419 181 l 1,8,-1
 228 181 l 1,9,-1
 190 0 l 1,10,-1
 120 0 l 1,11,-1
 158 181 l 1,12,-1
 16 181 l 1,13,-1
 28 252 l 1,14,-1
 173 252 l 1,15,-1
 213 442 l 1,16,-1
 71 442 l 1,17,-1
 83 513 l 1,18,-1
 228 513 l 1,19,-1
 267 700 l 1,20,-1
 338 700 l 1,21,-1
 298 513 l 1,22,-1
 489 513 l 1,23,-1
 529 700 l 1,24,-1
 599 700 l 1,25,-1
 560 513 l 1,26,-1
 701 513 l 1,27,-1
 690 442 l 1,0,-1
434 252 m 1,28,-1
 474 442 l 1,29,-1
 283 442 l 1,30,-1
 243 252 l 1,31,-1
 434 252 l 1,28,-1
EndSplineSet
EndChar

StartChar: dollar
Encoding: 36 36 8
Width: 609
Flags: W
LayerCount: 2
Fore
SplineSet
213.5 462 m 128,-1,1
 233 441 233 441 262.5 428 c 128,-1,2
 292 415 292 415 343 399 c 0,3,4
 407 379 407 379 446 360.5 c 128,-1,5
 485 342 485 342 513 307 c 128,-1,6
 541 272 541 272 541 216 c 0,7,8
 541 200 541 200 540 192 c 0,9,10
 535 134 535 134 499 90 c 128,-1,11
 463 46 463 46 404 21.5 c 128,-1,12
 345 -3 345 -3 271 -4 c 1,13,-1
 246 -137 l 1,14,-1
 173 -137 l 1,15,-1
 200 1 l 1,16,17
 140 11 140 11 87.5 38.5 c 128,-1,18
 35 66 35 66 -3 105 c 1,19,-1
 48 188 l 1,20,21
 93 141 93 141 153.5 114.5 c 128,-1,22
 214 88 214 88 273 88 c 0,23,24
 347 88 347 88 390.5 117.5 c 128,-1,25
 434 147 434 147 434 198 c 0,26,27
 434 231 434 231 414 253 c 128,-1,28
 394 275 394 275 363.5 287.5 c 128,-1,29
 333 300 333 300 282 316 c 0,30,31
 218 337 218 337 179 355 c 128,-1,32
 140 373 140 373 112.5 407 c 128,-1,33
 85 441 85 441 85 496 c 0,34,35
 85 557 85 557 117 603.5 c 128,-1,36
 149 650 149 650 207 676.5 c 128,-1,37
 265 703 265 703 340 705 c 1,38,-1
 363 827 l 1,39,-1
 436 827 l 1,40,-1
 411 701 l 1,41,42
 509 686 509 686 579 636 c 1,43,-1
 530 551 l 1,44,45
 485 582 485 582 434 597 c 128,-1,46
 383 612 383 612 338 612 c 0,47,48
 272 612 272 612 233 586.5 c 128,-1,49
 194 561 194 561 194 515 c 0,50,0
 194 483 194 483 213.5 462 c 128,-1,1
EndSplineSet
EndChar

StartChar: ampersand
Encoding: 38 38 10
Width: 664
Flags: W
LayerCount: 2
Fore
SplineSet
558 -13 m 1,0,-1
 462 95 l 1,1,2
 354 -4 354 -4 239 -4 c 0,3,4
 183 -4 183 -4 138 18.5 c 128,-1,5
 93 41 93 41 67.5 81 c 128,-1,6
 42 121 42 121 42 171 c 0,7,8
 42 248 42 248 90.5 296.5 c 128,-1,9
 139 345 139 345 226 389 c 1,10,11
 202 429 202 429 191 463 c 128,-1,12
 180 497 180 497 180 529 c 0,13,14
 180 579 180 579 204.5 619 c 128,-1,15
 229 659 229 659 273.5 681.5 c 128,-1,16
 318 704 318 704 374 704 c 0,17,18
 444 704 444 704 485.5 669 c 128,-1,19
 527 634 527 634 527 577 c 0,20,21
 527 526 527 526 499.5 488 c 128,-1,22
 472 450 472 450 431 424 c 128,-1,23
 390 398 390 398 325 366 c 1,24,25
 378 294 378 294 461 201 c 1,26,27
 509 260 509 260 549 337 c 1,28,-1
 607 286 l 1,29,30
 564 208 564 208 510 145 c 1,31,-1
 611 33 l 1,32,-1
 558 -13 l 1,0,-1
254 527 m 0,34,35
 254 479 254 479 290 420 c 1,36,37
 370 459 370 459 411 493 c 128,-1,38
 452 527 452 527 452 578 c 0,39,40
 452 608 452 608 431 626 c 128,-1,41
 410 644 410 644 374 644 c 0,42,43
 326 644 326 644 293 615 c 128,-1,44
 260 586 260 586 255 543 c 0,45,33
 254 538 254 538 254 527 c 0,34,35
414 150 m 1,47,48
 310 268 310 268 263 335 c 1,49,50
 196 301 196 301 159 264 c 128,-1,51
 122 227 122 227 122 174 c 0,52,53
 122 127 122 127 155.5 97.5 c 128,-1,54
 189 68 189 68 242 68 c 0,55,46
 329 68 329 68 414 150 c 1,47,48
EndSplineSet
Substitution2: "<3,3> Small Caps in Latin lookup 11 subtable" ampersand.sc
EndChar

StartChar: quotesingle
Encoding: 39 39 11
Width: 194
Flags: W
LayerCount: 2
Fore
SplineSet
220 700 m 1,0,-1
 174 467 l 1,1,-1
 101 467 l 1,2,-1
 147 700 l 1,3,-1
 220 700 l 1,0,-1
EndSplineSet
Substitution2: "<3,3> Small Caps in Latin lookup 11 subtable" quotesingle.sc
EndChar

StartChar: parenleft
Encoding: 40 40 12
Width: 309
Flags: W
LayerCount: 2
Fore
SplineSet
257 539 m 128,-1,1
 204 426 204 426 179 301 c 0,2,3
 160 210 160 210 160 120 c 0,4,5
 160 -21 160 -21 207 -124 c 1,6,-1
 127 -124 l 1,7,8
 74 -12 74 -12 74 136 c 0,9,10
 74 225 74 225 93 317 c 0,11,12
 117 440 117 440 169.5 550 c 128,-1,13
 222 660 222 660 297 742 c 1,14,-1
 383 742 l 1,15,0
 310 652 310 652 257 539 c 128,-1,1
EndSplineSet
Substitution2: "'rtla' Right to Left Alternates lookup 0 subtable" parenright
EndChar

StartChar: parenright
Encoding: 41 41 13
Width: 330
Flags: W
LayerCount: 2
Fore
SplineSet
150 78 m 128,-1,1
 203 191 203 191 228 316 c 0,2,3
 247 407 247 407 247 497 c 0,4,5
 247 638 247 638 200 741 c 1,6,-1
 280 741 l 1,7,8
 333 629 333 629 333 481 c 0,9,10
 333 392 333 392 314 300 c 0,11,12
 290 177 290 177 237.5 67 c 128,-1,13
 185 -43 185 -43 110 -125 c 1,14,-1
 24 -125 l 1,15,0
 97 -35 97 -35 150 78 c 128,-1,1
EndSplineSet
Substitution2: "'rtla' Right to Left Alternates lookup 0 subtable" parenleft
EndChar

StartChar: asterisk
Encoding: 42 42 14
Width: 357
Flags: W
LayerCount: 2
Fore
SplineSet
356 471 m 1,0,-1
 265 525 l 1,1,-1
 266 420 l 1,2,-1
 214 420 l 1,3,-1
 216 526 l 1,4,-1
 123 472 l 1,5,-1
 98 518 l 1,6,-1
 190 570 l 1,7,-1
 98 622 l 1,8,-1
 123 670 l 1,9,-1
 215 615 l 1,10,-1
 214 721 l 1,11,-1
 266 721 l 1,12,-1
 265 615 l 1,13,-1
 356 669 l 1,14,-1
 382 622 l 1,15,-1
 289 570 l 1,16,-1
 382 518 l 1,17,-1
 356 471 l 1,0,-1
EndSplineSet
EndChar

StartChar: plus
Encoding: 43 43 15
Width: 494
Flags: W
LayerCount: 2
Fore
SplineSet
476 357 m 1,0,-1
 463 290 l 1,1,-1
 283 290 l 1,2,-1
 248 112 l 1,3,-1
 185 112 l 1,4,-1
 221 290 l 1,5,-1
 41 290 l 1,6,-1
 54 357 l 1,7,-1
 234 357 l 1,8,-1
 270 535 l 1,9,-1
 332 535 l 1,10,-1
 297 357 l 1,11,-1
 476 357 l 1,0,-1
EndSplineSet
EndChar

StartChar: comma
Encoding: 44 44 16
Width: 196
Flags: W
LayerCount: 2
Fore
SplineSet
93 88 m 128,-1,1
 108 73 108 73 105 48 c 0,2,3
 104 37 104 37 100 27.5 c 128,-1,4
 96 18 96 18 86 2 c 2,5,-1
 22 -110 l 1,6,-1
 -28 -110 l 1,7,-1
 21 1 l 1,8,9
 -4 14 -4 14 -2 48 c 0,10,11
 0 73 0 73 16.5 88 c 128,-1,12
 33 103 33 103 56 103 c 0,13,0
 78 103 78 103 93 88 c 128,-1,1
EndSplineSet
EndChar

StartChar: hyphen
Encoding: 45 45 17
Width: 366
Flags: W
LayerCount: 2
Fore
SplineSet
317 337 m 1,0,-1
 304 270 l 1,1,-1
 64 270 l 1,2,-1
 78 337 l 1,3,-1
 317 337 l 1,0,-1
EndSplineSet
EndChar

StartChar: period
Encoding: 46 46 18
Width: 210
Flags: W
LayerCount: 2
Fore
SplineSet
102 91.5 m 128,-1,1
 116 77 116 77 116 54 c 0,2,3
 116 28 116 28 98.5 9.5 c 128,-1,4
 81 -9 81 -9 56 -9 c 0,5,6
 34 -9 34 -9 20.5 6 c 128,-1,7
 7 21 7 21 7 44 c 0,8,9
 7 70 7 70 24 88 c 128,-1,10
 41 106 41 106 66 106 c 0,11,0
 88 106 88 106 102 91.5 c 128,-1,1
EndSplineSet
Substitution2: "<3,3> Small Caps in Latin lookup 11 subtable" period.sc
EndChar

StartChar: slash
Encoding: 47 47 19
Width: 325
Flags: W
LayerCount: 2
Fore
SplineSet
407 819 m 1,0,-1
 32 -120 l 1,1,-1
 -49 -120 l 1,2,-1
 326 819 l 1,3,-1
 407 819 l 1,0,-1
EndSplineSet
Substitution2: "<11,2> Diagonal Fractions lookup 3 subtable" fraction
EndChar

StartChar: zero
Encoding: 48 48 20
Width: 770
Flags: W
LayerCount: 2
Fore
SplineSet
646.5 636.5 m 128,-1,1
 707 569 707 569 707 443 c 0,2,3
 707 310 707 310 662.5 208.5 c 128,-1,4
 618 107 618 107 534 51 c 128,-1,5
 450 -5 450 -5 334 -5 c 0,6,7
 219 -5 219 -5 158.5 63 c 128,-1,8
 98 131 98 131 98 257 c 0,9,10
 98 390 98 390 142.5 491 c 128,-1,11
 187 592 187 592 271 648 c 128,-1,12
 355 704 355 704 471 704 c 0,13,0
 586 704 586 704 646.5 636.5 c 128,-1,1
262 526.5 m 128,-1,15
 196 425 196 425 196 261 c 0,16,17
 196 168 196 168 234 120 c 128,-1,18
 272 72 272 72 348 72 c 0,19,20
 433 72 433 72 492 119.5 c 128,-1,21
 551 167 551 167 580 250 c 128,-1,22
 609 333 609 333 609 439 c 0,23,24
 609 532 609 532 570.5 580 c 128,-1,25
 532 628 532 628 457 628 c 0,26,14
 328 628 328 628 262 526.5 c 128,-1,15
EndSplineSet
Substitution2: "<21,0> Lower Case Numbers lookup 10 subtable" zero.osf
Substitution2: "<6,0> Monospaced Numbers lookup 9 subtable" zero.tf
Substitution2: "<11,2> Diagonal Fractions lookup 4 subtable" zero.numr
Substitution2: "<10,1> Superiors lookup 2 subtable" uni2070
Substitution2: "<10,2> Inferiors lookup 1 subtable" uni2080
EndChar

StartChar: one
Encoding: 49 49 21
Width: 422
Flags: W
LayerCount: 2
Fore
SplineSet
122 700 m 1,0,-1
 377 700 l 1,1,-1
 241 0 l 1,2,-1
 145 0 l 1,3,-1
 265 613 l 1,4,-1
 107 613 l 1,5,-1
 122 700 l 1,0,-1
EndSplineSet
Substitution2: "<21,0> Lower Case Numbers lookup 10 subtable" one.osf
Substitution2: "<6,0> Monospaced Numbers lookup 9 subtable" one.tf
Substitution2: "<11,2> Diagonal Fractions lookup 4 subtable" one.numr
Substitution2: "<10,1> Superiors lookup 2 subtable" uni00B9
Substitution2: "<10,2> Inferiors lookup 1 subtable" uni2081
EndChar

StartChar: two
Encoding: 50 50 22
Width: 630
Flags: W
LayerCount: 2
Fore
SplineSet
409 303 m 2,1,-1
 156 87 l 1,2,-1
 535 87 l 1,3,-1
 519 0 l 1,4,-1
 13 0 l 1,5,-1
 27 74 l 1,6,-1
 353 355 l 2,7,8
 409 401 409 401 443.5 445 c 128,-1,9
 478 489 478 489 482 522 c 0,10,11
 483 527 483 527 483 536 c 0,12,13
 483 575 483 575 452 597 c 128,-1,14
 421 619 421 619 364 619 c 0,15,16
 315 619 315 619 258.5 596.5 c 128,-1,17
 202 574 202 574 149 534 c 1,18,-1
 123 607 l 1,19,20
 188 653 188 653 257.5 678.5 c 128,-1,21
 327 704 327 704 392 704 c 0,22,23
 482 704 482 704 534.5 665.5 c 128,-1,24
 587 627 587 627 587 562 c 0,25,26
 587 554 587 554 585 536 c 0,27,0
 570 442 570 442 409 303 c 2,1,-1
EndSplineSet
Substitution2: "<21,0> Lower Case Numbers lookup 10 subtable" two.osf
Substitution2: "<6,0> Monospaced Numbers lookup 9 subtable" two.tf
Substitution2: "<11,2> Diagonal Fractions lookup 4 subtable" two.numr
Substitution2: "<10,1> Superiors lookup 2 subtable" uni00B2
Substitution2: "<10,2> Inferiors lookup 1 subtable" uni2082
EndChar

StartChar: three
Encoding: 51 51 23
Width: 636
Flags: W
LayerCount: 2
Fore
SplineSet
604 639 m 1,0,-1
 323 406 l 1,1,-1
 365 403 l 2,2,3
 456 398 456 398 508.5 356.5 c 128,-1,4
 561 315 561 315 561 246 c 0,5,6
 561 175 561 175 520.5 118 c 128,-1,7
 480 61 480 61 407.5 28 c 128,-1,8
 335 -5 335 -5 243 -5 c 0,9,10
 177 -5 177 -5 114 15 c 128,-1,11
 51 35 51 35 10 68 c 1,12,-1
 65 146 l 1,13,14
 100 114 100 114 148.5 95.5 c 128,-1,15
 197 77 197 77 251 77 c 0,16,17
 315 77 315 77 363.5 97 c 128,-1,18
 412 117 412 117 438.5 153 c 128,-1,19
 465 189 465 189 465 234 c 0,20,21
 465 285 465 285 422.5 312.5 c 128,-1,22
 380 340 380 340 302 340 c 2,23,-1
 205 340 l 1,24,-1
 216 401 l 1,25,-1
 473 613 l 1,26,-1
 151 613 l 1,27,-1
 166 700 l 1,28,-1
 616 700 l 1,29,-1
 604 639 l 1,0,-1
EndSplineSet
Substitution2: "<21,0> Lower Case Numbers lookup 10 subtable" three.osf
Substitution2: "<6,0> Monospaced Numbers lookup 9 subtable" three.tf
Substitution2: "<11,2> Diagonal Fractions lookup 4 subtable" three.numr
Substitution2: "<10,1> Superiors lookup 2 subtable" uni00B3
Substitution2: "<10,2> Inferiors lookup 1 subtable" uni2083
EndChar

StartChar: four
Encoding: 52 52 24
Width: 644
Flags: W
LayerCount: 2
Fore
SplineSet
596 266 m 1,0,-1
 581 180 l 1,1,-1
 472 180 l 1,2,-1
 437 0 l 1,3,-1
 347 0 l 1,4,-1
 382 180 l 1,5,-1
 36 180 l 1,6,-1
 50 254 l 1,7,-1
 387 700 l 1,8,-1
 480 700 l 1,9,-1
 156 266 l 1,10,-1
 399 266 l 1,11,-1
 434 445 l 1,12,-1
 524 445 l 1,13,-1
 489 266 l 1,14,-1
 596 266 l 1,0,-1
EndSplineSet
Substitution2: "<21,0> Lower Case Numbers lookup 10 subtable" four.osf
Substitution2: "<6,0> Monospaced Numbers lookup 9 subtable" four.tf
Substitution2: "<11,2> Diagonal Fractions lookup 4 subtable" four.numr
Substitution2: "<10,1> Superiors lookup 2 subtable" uni2074
Substitution2: "<10,2> Inferiors lookup 1 subtable" uni2084
EndChar

StartChar: five
Encoding: 53 53 25
Width: 666
Flags: W
LayerCount: 2
Fore
SplineSet
283 613 m 1,0,-1
 248 435 l 1,1,2
 295 439 295 439 365 439 c 0,3,4
 433 439 433 439 483 416.5 c 128,-1,5
 533 394 533 394 559.5 353.5 c 128,-1,6
 586 313 586 313 586 261 c 0,7,8
 586 186 586 186 546 125 c 128,-1,9
 506 64 506 64 434 29.5 c 128,-1,10
 362 -5 362 -5 272 -5 c 0,11,12
 210 -5 210 -5 145.5 16.5 c 128,-1,13
 81 38 81 38 35 74 c 1,14,-1
 88 151 l 1,15,16
 127 117 127 117 177 99 c 128,-1,17
 227 81 227 81 279 81 c 0,18,19
 338 81 338 81 384 101.5 c 128,-1,20
 430 122 430 122 455.5 159.5 c 128,-1,21
 481 197 481 197 481 244 c 0,22,23
 481 295 481 295 441.5 323.5 c 128,-1,24
 402 352 402 352 327 352 c 0,25,26
 296 352 296 352 236.5 348 c 128,-1,27
 177 344 177 344 139 338 c 1,28,-1
 209 700 l 1,29,-1
 644 700 l 1,30,-1
 629 613 l 1,31,-1
 283 613 l 1,0,-1
EndSplineSet
Substitution2: "<21,0> Lower Case Numbers lookup 10 subtable" five.osf
Substitution2: "<6,0> Monospaced Numbers lookup 9 subtable" five.tf
Substitution2: "<11,2> Diagonal Fractions lookup 4 subtable" five.numr
Substitution2: "<10,1> Superiors lookup 2 subtable" uni2075
Substitution2: "<10,2> Inferiors lookup 1 subtable" uni2085
EndChar

StartChar: six
Encoding: 54 54 26
Width: 691
Flags: W
LayerCount: 2
Fore
SplineSet
153.5 62.5 m 128,-1,1
 94 130 94 130 94 251 c 0,2,3
 94 378 94 378 142.5 481.5 c 128,-1,4
 191 585 191 585 275.5 644.5 c 128,-1,5
 360 704 360 704 465 704 c 0,6,7
 516 704 516 704 570 690 c 128,-1,8
 624 676 624 676 663 651 c 1,9,-1
 611 578 l 1,10,11
 581 600 581 600 540 612 c 128,-1,12
 499 624 499 624 458 624 c 0,13,14
 352 624 352 624 284 546 c 128,-1,15
 216 468 216 468 198 334 c 1,16,17
 234 390 234 390 290.5 420 c 128,-1,18
 347 450 347 450 418 450 c 0,19,20
 509 450 509 450 560 402 c 128,-1,21
 611 354 611 354 611 271 c 0,22,23
 611 190 611 190 574 127.5 c 128,-1,24
 537 65 537 65 471 30 c 128,-1,25
 405 -5 405 -5 323 -5 c 0,26,0
 213 -5 213 -5 153.5 62.5 c 128,-1,1
427.5 101 m 128,-1,28
 470 123 470 123 494.5 163.5 c 128,-1,29
 519 204 519 204 519 256 c 0,30,31
 519 310 519 310 484.5 341.5 c 128,-1,32
 450 373 450 373 388 373 c 0,33,34
 334 373 334 373 290 349 c 128,-1,35
 246 325 246 325 220.5 285 c 128,-1,36
 195 245 195 245 195 200 c 0,37,38
 195 150 195 150 230.5 114.5 c 128,-1,39
 266 79 266 79 332 79 c 0,40,27
 385 79 385 79 427.5 101 c 128,-1,28
EndSplineSet
Substitution2: "<21,0> Lower Case Numbers lookup 10 subtable" six.osf
Substitution2: "<6,0> Monospaced Numbers lookup 9 subtable" six.tf
Substitution2: "<11,2> Diagonal Fractions lookup 4 subtable" six.numr
Substitution2: "<10,1> Superiors lookup 2 subtable" uni2076
Substitution2: "<10,2> Inferiors lookup 1 subtable" uni2086
EndChar

StartChar: seven
Encoding: 55 55 27
Width: 622
Flags: W
LayerCount: 2
Fore
SplineSet
140 700 m 1,0,-1
 664 700 l 1,1,-1
 650 625 l 1,2,-1
 222 0 l 1,3,-1
 120 0 l 1,4,-1
 541 613 l 1,5,-1
 211 613 l 1,6,-1
 190 512 l 1,7,-1
 103 512 l 1,8,-1
 140 700 l 1,0,-1
EndSplineSet
Substitution2: "<21,0> Lower Case Numbers lookup 10 subtable" seven.osf
Substitution2: "<6,0> Monospaced Numbers lookup 9 subtable" seven.tf
Substitution2: "<11,2> Diagonal Fractions lookup 4 subtable" seven.numr
Substitution2: "<10,1> Superiors lookup 2 subtable" uni2077
Substitution2: "<10,2> Inferiors lookup 1 subtable" uni2087
EndChar

StartChar: eight
Encoding: 56 56 28
Width: 688
Flags: W
LayerCount: 2
Fore
SplineSet
574.5 664.5 m 128,-1,1
 627 625 627 625 627 556 c 0,2,3
 627 494 627 494 589 446.5 c 128,-1,4
 551 399 551 399 485 374 c 1,5,6
 538 356 538 356 567.5 317 c 128,-1,7
 597 278 597 278 597 226 c 0,8,9
 597 157 597 157 558.5 105 c 128,-1,10
 520 53 520 53 451 24 c 128,-1,11
 382 -5 382 -5 292 -5 c 0,12,13
 185 -5 185 -5 125 40 c 128,-1,14
 65 85 65 85 65 163 c 0,15,16
 65 239 65 239 115 294 c 128,-1,17
 165 349 165 349 251 374 c 1,18,19
 209 393 209 393 186.5 426 c 128,-1,20
 164 459 164 459 164 503 c 0,21,22
 164 563 164 563 197 608.5 c 128,-1,23
 230 654 230 654 290.5 679 c 128,-1,24
 351 704 351 704 429 704 c 0,25,0
 522 704 522 704 574.5 664.5 c 128,-1,1
291.5 598 m 128,-1,27
 245 562 245 562 245 501 c 0,28,29
 245 457 245 457 278 432 c 128,-1,30
 311 407 311 407 371 407 c 0,31,32
 450 407 450 407 496 443.5 c 128,-1,33
 542 480 542 480 542 541 c 0,34,35
 542 585 542 585 509 609.5 c 128,-1,36
 476 634 476 634 416 634 c 0,37,26
 338 634 338 634 291.5 598 c 128,-1,27
212 290.5 m 128,-1,39
 158 250 158 250 158 181 c 0,40,41
 158 129 158 129 196.5 100.5 c 128,-1,42
 235 72 235 72 306 72 c 0,43,44
 397 72 397 72 451.5 113.5 c 128,-1,45
 506 155 506 155 506 225 c 0,46,47
 506 275 506 275 467 303 c 128,-1,48
 428 331 428 331 357 331 c 0,49,38
 266 331 266 331 212 290.5 c 128,-1,39
EndSplineSet
Substitution2: "<21,0> Lower Case Numbers lookup 10 subtable" eight.osf
Substitution2: "<6,0> Monospaced Numbers lookup 9 subtable" eight.tf
Substitution2: "<11,2> Diagonal Fractions lookup 4 subtable" eight.numr
Substitution2: "<10,1> Superiors lookup 2 subtable" uni2078
Substitution2: "<10,2> Inferiors lookup 1 subtable" uni2088
EndChar

StartChar: nine
Encoding: 57 57 29
Width: 688
Flags: W
LayerCount: 2
Fore
SplineSet
183.5 88 m 128,-1,1
 224 76 224 76 265 76 c 0,2,3
 370 76 370 76 437.5 154 c 128,-1,4
 505 232 505 232 524 366 c 1,5,6
 489 310 489 310 432.5 280 c 128,-1,7
 376 250 376 250 305 250 c 0,8,9
 215 250 215 250 164.5 298 c 128,-1,10
 114 346 114 346 114 429 c 0,11,12
 114 510 114 510 150.5 572.5 c 128,-1,13
 187 635 187 635 252.5 669.5 c 128,-1,14
 318 704 318 704 400 704 c 0,15,16
 509 704 509 704 568.5 637 c 128,-1,17
 628 570 628 570 628 449 c 0,18,19
 628 322 628 322 579.5 218 c 128,-1,20
 531 114 531 114 446.5 54.5 c 128,-1,21
 362 -5 362 -5 258 -5 c 0,22,23
 207 -5 207 -5 154 9.5 c 128,-1,24
 101 24 101 24 61 49 c 1,25,-1
 113 122 l 1,26,0
 143 100 143 100 183.5 88 c 128,-1,1
296 598.5 m 128,-1,28
 254 576 254 576 230 536 c 128,-1,29
 206 496 206 496 206 443 c 256,30,31
 206 390 206 390 240 358.5 c 128,-1,32
 274 327 274 327 335 327 c 0,33,34
 389 327 389 327 433 351 c 128,-1,35
 477 375 477 375 502 415 c 128,-1,36
 527 455 527 455 527 500 c 0,37,38
 527 551 527 551 492 586 c 128,-1,39
 457 621 457 621 391 621 c 0,40,27
 338 621 338 621 296 598.5 c 128,-1,28
EndSplineSet
Substitution2: "<21,0> Lower Case Numbers lookup 10 subtable" nine.osf
Substitution2: "<6,0> Monospaced Numbers lookup 9 subtable" nine.tf
Substitution2: "<11,2> Diagonal Fractions lookup 4 subtable" nine.numr
Substitution2: "<10,1> Superiors lookup 2 subtable" uni2079
Substitution2: "<10,2> Inferiors lookup 1 subtable" uni2089
EndChar

StartChar: less
Encoding: 60 60 32
Width: 496
Flags: W
LayerCount: 2
Fore
SplineSet
516 554 m 1,0,-1
 502 477 l 1,1,-1
 113 323 l 1,2,-1
 440 168 l 1,3,-1
 426 98 l 1,4,-1
 42 284 l 1,5,-1
 58 369 l 1,6,-1
 516 554 l 1,0,-1
EndSplineSet
Substitution2: "'rtla' Right to Left Alternates lookup 0 subtable" greater
EndChar

StartChar: equal
Encoding: 61 61 33
Width: 495
Flags: W
LayerCount: 2
Fore
SplineSet
497 460 m 1,0,-1
 485 394 l 1,1,-1
 63 394 l 1,2,-1
 76 460 l 1,3,-1
 497 460 l 1,0,-1
456 253 m 1,4,-1
 443 187 l 1,5,-1
 21 187 l 1,6,-1
 34 253 l 1,7,-1
 456 253 l 1,4,-1
EndSplineSet
EndChar

StartChar: greater
Encoding: 62 62 34
Width: 496
Flags: W
LayerCount: 2
Fore
SplineSet
6 102 m 1,0,-1
 20 179 l 1,1,-1
 409 333 l 1,2,-1
 82 488 l 1,3,-1
 96 558 l 1,4,-1
 480 372 l 1,5,-1
 464 287 l 1,6,-1
 6 102 l 1,0,-1
EndSplineSet
Substitution2: "'rtla' Right to Left Alternates lookup 0 subtable" less
EndChar

StartChar: question
Encoding: 63 63 35
Width: 434
Flags: W
LayerCount: 2
Fore
SplineSet
125 642.5 m 128,-1,1
 183 692 183 692 272 692 c 0,2,3
 354 692 354 692 402.5 650 c 128,-1,4
 451 608 451 608 451 537 c 0,5,6
 451 498 451 498 437 466.5 c 128,-1,7
 423 435 423 435 403 412 c 128,-1,8
 383 389 383 389 348 355 c 0,9,10
 306 315 306 315 285 287 c 128,-1,11
 264 259 264 259 261 223 c 1,12,-1
 188 223 l 1,13,14
 193 277 193 277 217.5 313 c 128,-1,15
 242 349 242 349 286 392 c 0,16,17
 326 432 326 432 344.5 459.5 c 128,-1,18
 363 487 363 487 363 526 c 0,19,20
 363 568 363 568 337 589.5 c 128,-1,21
 311 611 311 611 261 611 c 0,22,23
 147 611 147 611 129 504 c 1,24,-1
 55 505 l 1,25,0
 67 593 67 593 125 642.5 c 128,-1,1
254 91.5 m 128,-1,27
 268 77 268 77 268 54 c 0,28,29
 268 28 268 28 250.5 9.5 c 128,-1,30
 233 -9 233 -9 208 -9 c 0,31,32
 186 -9 186 -9 172.5 6 c 128,-1,33
 159 21 159 21 159 44 c 0,34,35
 159 70 159 70 176 88 c 128,-1,36
 193 106 193 106 218 106 c 0,37,26
 240 106 240 106 254 91.5 c 128,-1,27
EndSplineSet
Substitution2: "<3,3> Small Caps in Latin lookup 11 subtable" question.sc
EndChar

StartChar: at
Encoding: 64 64 36
Width: 987
Flags: W
LayerCount: 2
Fore
SplineSet
765 657 m 128,-1,1
 854 609 854 609 903 523 c 128,-1,2
 952 437 952 437 952 327 c 0,3,4
 952 237 952 237 922.5 166 c 128,-1,5
 893 95 893 95 842 55.5 c 128,-1,6
 791 16 791 16 730 16 c 0,7,8
 684 16 684 16 658 38 c 128,-1,9
 632 60 632 60 631 102 c 2,10,-1
 633 131 l 1,11,12
 597 81 597 81 545 55 c 128,-1,13
 493 29 493 29 434 29 c 0,14,15
 376 29 376 29 329.5 55 c 128,-1,16
 283 81 283 81 256 128.5 c 128,-1,17
 229 176 229 176 229 237 c 0,18,19
 229 310 229 310 263.5 373 c 128,-1,20
 298 436 298 436 358.5 473.5 c 128,-1,21
 419 511 419 511 492 511 c 0,22,23
 535 511 535 511 570 496.5 c 128,-1,24
 605 482 605 482 627 461.5 c 128,-1,25
 649 441 649 441 655 422 c 1,26,-1
 666 503 l 1,27,-1
 755 503 l 1,28,-1
 703 139 l 2,29,30
 702 134 702 134 702 124 c 0,31,32
 702 78 702 78 747 78 c 0,33,34
 779 78 779 78 810 110 c 128,-1,35
 841 142 841 142 860.5 197.5 c 128,-1,36
 880 253 880 253 880 319 c 0,37,38
 880 410 880 410 840.5 482 c 128,-1,39
 801 554 801 554 727 595 c 128,-1,40
 653 636 653 636 552 636 c 0,41,42
 435 636 435 636 332.5 580 c 128,-1,43
 230 524 230 524 169 428.5 c 128,-1,44
 108 333 108 333 108 221 c 0,45,46
 108 132 108 132 149.5 62.5 c 128,-1,47
 191 -7 191 -7 265.5 -46.5 c 128,-1,48
 340 -86 340 -86 436 -86 c 0,49,50
 482 -86 482 -86 536.5 -71.5 c 128,-1,51
 591 -57 591 -57 634 -30 c 1,52,-1
 659 -93 l 1,53,54
 613 -122 613 -122 547.5 -140 c 128,-1,55
 482 -158 482 -158 427 -158 c 0,56,57
 313 -158 313 -158 224 -110.5 c 128,-1,58
 135 -63 135 -63 85.5 21.5 c 128,-1,59
 36 106 36 106 36 213 c 0,60,61
 36 347 36 347 108 460 c 128,-1,62
 180 573 180 573 300.5 639 c 128,-1,63
 421 705 421 705 561 705 c 0,64,0
 676 705 676 705 765 657 c 128,-1,1
411 402 m 128,-1,66
 371 378 371 378 348 337.5 c 128,-1,67
 325 297 325 297 325 249 c 0,68,69
 325 191 325 191 360 152.5 c 128,-1,70
 395 114 395 114 453 114 c 0,71,72
 503 114 503 114 543.5 138.5 c 128,-1,73
 584 163 584 163 607 204.5 c 128,-1,74
 630 246 630 246 630 294 c 0,75,76
 630 351 630 351 594 388.5 c 128,-1,77
 558 426 558 426 498 426 c 0,78,65
 451 426 451 426 411 402 c 128,-1,66
EndSplineSet
EndChar

StartChar: A
Encoding: 65 65 37
Width: 726
Flags: W
LayerCount: 2
Fore
SplineSet
568 0 m 1,0,-1
 522 171 l 1,1,-1
 152 171 l 1,2,-1
 50 0 l 1,3,-1
 -50 0 l 1,4,-1
 377 700 l 1,5,-1
 476 700 l 1,6,-1
 671 0 l 1,7,-1
 568 0 l 1,0,-1
203 257 m 1,8,-1
 499 257 l 1,9,-1
 407 599 l 1,10,-1
 203 257 l 1,8,-1
EndSplineSet
Substitution2: "<11,2> Diagonal Fractions lookup 7 nested-substitutions 0 subtable" ordfeminine
Substitution2: "<11,2> Diagonal Fractions lookup 5 nested-substitutions 0 subtable" ordfeminine
EndChar

StartChar: B
Encoding: 66 66 38
Width: 714
Flags: W
LayerCount: 2
Fore
SplineSet
615.5 320 m 128,-1,1
 648 282 648 282 648 225 c 0,2,3
 648 157 648 157 611.5 106 c 128,-1,4
 575 55 575 55 508 27.5 c 128,-1,5
 441 0 441 0 352 0 c 2,6,-1
 47 0 l 1,7,-1
 187 700 l 1,8,-1
 486 700 l 2,9,10
 580 700 580 700 632 661.5 c 128,-1,11
 684 623 684 623 684 555 c 0,12,13
 684 485 684 485 640.5 434.5 c 128,-1,14
 597 384 597 384 523 368 c 1,15,0
 583 358 583 358 615.5 320 c 128,-1,1
551.5 590 m 128,-1,17
 521 612 521 612 465 612 c 2,18,-1
 265 612 l 1,19,-1
 224 403 l 1,20,-1
 422 403 l 2,21,22
 496 403 496 403 539 436.5 c 128,-1,23
 582 470 582 470 582 528 c 0,24,16
 582 568 582 568 551.5 590 c 128,-1,17
498.5 123.5 m 128,-1,26
 550 159 550 159 550 221 c 0,27,28
 550 266 550 266 512 291 c 128,-1,29
 474 316 474 316 405 316 c 2,30,-1
 206 316 l 1,31,-1
 161 88 l 1,32,-1
 358 88 l 2,33,25
 447 88 447 88 498.5 123.5 c 128,-1,26
EndSplineSet
EndChar

StartChar: C
Encoding: 67 67 39
Width: 726
Flags: W
LayerCount: 2
Fore
SplineSet
598.5 678.5 m 128,-1,1
 664 651 664 651 710 601 c 1,2,-1
 646 532 l 1,3,4
 610 574 610 574 559.5 597.5 c 128,-1,5
 509 621 509 621 454 621 c 0,6,7
 374 621 374 621 305.5 581 c 128,-1,8
 237 541 237 541 196 473 c 128,-1,9
 155 405 155 405 155 325 c 0,10,11
 155 258 155 258 187 202.5 c 128,-1,12
 219 147 219 147 274.5 115 c 128,-1,13
 330 83 330 83 399 83 c 0,14,15
 454 83 454 83 509 105.5 c 128,-1,16
 564 128 564 128 609 167 c 1,17,-1
 661 104 l 1,18,19
 602 52 602 52 530 22.5 c 128,-1,20
 458 -7 458 -7 386 -7 c 0,21,22
 292 -7 292 -7 217 36 c 128,-1,23
 142 79 142 79 99.5 153 c 128,-1,24
 57 227 57 227 57 318 c 0,25,26
 57 424 57 424 112 513 c 128,-1,27
 167 602 167 602 259.5 654 c 128,-1,28
 352 706 352 706 460 706 c 0,29,0
 533 706 533 706 598.5 678.5 c 128,-1,1
EndSplineSet
EndChar

StartChar: D
Encoding: 68 68 40
Width: 785
Flags: W
LayerCount: 2
Fore
SplineSet
618 662 m 128,-1,1
 689 624 689 624 728 556 c 128,-1,2
 767 488 767 488 767 403 c 0,3,4
 767 292 767 292 710 199.5 c 128,-1,5
 653 107 653 107 556 53.5 c 128,-1,6
 459 0 459 0 346 0 c 2,7,-1
 48 0 l 1,8,-1
 187 700 l 1,9,-1
 455 700 l 2,10,0
 547 700 547 700 618 662 c 128,-1,1
640 505 m 128,-1,12
 611 555 611 555 559 583.5 c 128,-1,13
 507 612 507 612 441 612 c 2,14,-1
 266 612 l 1,15,-1
 162 88 l 1,16,-1
 364 88 l 2,17,18
 444 88 444 88 514 128 c 128,-1,19
 584 168 584 168 626.5 237.5 c 128,-1,20
 669 307 669 307 669 391 c 0,21,11
 669 455 669 455 640 505 c 128,-1,12
EndSplineSet
EndChar

StartChar: E
Encoding: 69 69 41
Width: 653
Flags: W
LayerCount: 2
Fore
SplineSet
656 612 m 1,0,-1
 265 612 l 1,1,-1
 222 397 l 1,2,-1
 571 397 l 1,3,-1
 554 310 l 1,4,-1
 205 310 l 1,5,-1
 161 88 l 1,6,-1
 562 88 l 1,7,-1
 546 0 l 1,8,-1
 47 0 l 1,9,-1
 187 700 l 1,10,-1
 672 700 l 1,11,-1
 656 612 l 1,0,-1
EndSplineSet
EndChar

StartChar: F
Encoding: 70 70 42
Width: 568
Flags: W
LayerCount: 2
Fore
SplineSet
625 612 m 1,0,-1
 265 612 l 1,1,-1
 219 383 l 1,2,-1
 543 383 l 1,3,-1
 526 296 l 1,4,-1
 202 296 l 1,5,-1
 143 0 l 1,6,-1
 47 0 l 1,7,-1
 187 700 l 1,8,-1
 642 700 l 1,9,-1
 625 612 l 1,0,-1
EndSplineSet
EndChar

StartChar: G
Encoding: 71 71 43
Width: 765
Flags: W
LayerCount: 2
Fore
SplineSet
450 380 m 1,0,-1
 713 380 l 1,1,-1
 654 85 l 1,2,3
 525 -7 525 -7 389 -7 c 0,4,5
 295 -7 295 -7 219 36 c 128,-1,6
 143 79 143 79 100 153 c 128,-1,7
 57 227 57 227 57 318 c 0,8,9
 57 424 57 424 112.5 513 c 128,-1,10
 168 602 168 602 262 654 c 128,-1,11
 356 706 356 706 465 706 c 0,12,13
 538 706 538 706 603 680.5 c 128,-1,14
 668 655 668 655 715 609 c 1,15,-1
 653 539 l 1,16,17
 616 578 616 578 565.5 599.5 c 128,-1,18
 515 621 515 621 458 621 c 0,19,20
 377 621 377 621 307.5 581 c 128,-1,21
 238 541 238 541 196.5 472.5 c 128,-1,22
 155 404 155 404 155 324 c 0,23,24
 155 256 155 256 187 200 c 128,-1,25
 219 144 219 144 276 111.5 c 128,-1,26
 333 79 333 79 404 79 c 0,27,28
 489 79 489 79 575 133 c 1,29,-1
 607 292 l 1,30,-1
 432 292 l 1,31,-1
 450 380 l 1,0,-1
EndSplineSet
EndChar

StartChar: H
Encoding: 72 72 44
Width: 863
Flags: W
LayerCount: 2
Fore
SplineSet
719 700 m 1,0,-1
 815 700 l 1,1,-1
 675 0 l 1,2,-1
 579 0 l 1,3,-1
 639 301 l 1,4,-1
 238 301 l 1,5,-1
 178 0 l 1,6,-1
 82 0 l 1,7,-1
 222 700 l 1,8,-1
 318 700 l 1,9,-1
 256 388 l 1,10,-1
 657 388 l 1,11,-1
 719 700 l 1,0,-1
EndSplineSet
EndChar

StartChar: I
Encoding: 73 73 45
Width: 296
Flags: W
LayerCount: 2
Fore
SplineSet
283 700 m 1,0,-1
 143 0 l 1,1,-1
 47 0 l 1,2,-1
 187 700 l 1,3,-1
 283 700 l 1,0,-1
EndSplineSet
EndChar

StartChar: J
Encoding: 74 74 46
Width: 490
Flags: W
LayerCount: 2
Fore
SplineSet
493 700 m 1,0,-1
 395 212 l 2,1,2
 375 109 375 109 308.5 52.5 c 128,-1,3
 242 -4 242 -4 144 -4 c 0,4,5
 85 -4 85 -4 39.5 22 c 128,-1,6
 -6 48 -6 48 -34 96 c 1,7,-1
 26 170 l 1,8,9
 52 131 52 131 87.5 110.5 c 128,-1,10
 123 90 123 90 162 90 c 0,11,12
 215 90 215 90 250.5 122.5 c 128,-1,13
 286 155 286 155 299 215 c 2,14,-1
 379 612 l 1,15,-1
 133 612 l 1,16,-1
 150 700 l 1,17,-1
 493 700 l 1,0,-1
EndSplineSet
EndChar

StartChar: K
Encoding: 75 75 47
Width: 707
Flags: W
LayerCount: 2
Fore
SplineSet
760 700 m 1,0,-1
 423 392 l 1,1,-1
 635 0 l 1,2,-1
 521 0 l 1,3,-1
 344 319 l 1,4,-1
 176 165 l 1,5,-1
 143 0 l 1,6,-1
 47 0 l 1,7,-1
 187 700 l 1,8,-1
 283 700 l 1,9,-1
 205 312 l 1,10,-1
 637 700 l 1,11,-1
 760 700 l 1,0,-1
EndSplineSet
EndChar

StartChar: L
Encoding: 76 76 48
Width: 524
Flags: W
LayerCount: 2
Fore
SplineSet
161 88 m 1,0,-1
 465 88 l 1,1,-1
 449 0 l 1,2,-1
 47 0 l 1,3,-1
 187 700 l 1,4,-1
 283 700 l 1,5,-1
 161 88 l 1,0,-1
EndSplineSet
EndChar

StartChar: M
Encoding: 77 77 49
Width: 940
Flags: W
LayerCount: 2
Fore
SplineSet
812 700 m 1,0,-1
 923 700 l 1,1,-1
 787 0 l 1,2,-1
 701 0 l 1,3,-1
 812 568 l 1,4,-1
 461 74 l 1,5,-1
 406 74 l 1,6,-1
 248 570 l 1,7,-1
 137 0 l 1,8,-1
 51 0 l 1,9,-1
 187 700 l 1,10,-1
 297 700 l 1,11,-1
 458 201 l 1,12,-1
 812 700 l 1,0,-1
EndSplineSet
EndChar

StartChar: N
Encoding: 78 78 50
Width: 794
Flags: W
LayerCount: 2
Fore
SplineSet
685 700 m 1,0,-1
 780 700 l 1,1,-1
 640 0 l 1,2,-1
 543 0 l 1,3,-1
 253 543 l 1,4,-1
 143 0 l 1,5,-1
 47 0 l 1,6,-1
 187 700 l 1,7,-1
 284 700 l 1,8,-1
 575 157 l 1,9,-1
 685 700 l 1,0,-1
EndSplineSet
EndChar

StartChar: O
Encoding: 79 79 51
Width: 817
Flags: W
LayerCount: 2
Fore
SplineSet
633.5 663.5 m 128,-1,1
 710 621 710 621 753.5 547.5 c 128,-1,2
 797 474 797 474 797 383 c 0,3,4
 797 278 797 278 741.5 188 c 128,-1,5
 686 98 686 98 592.5 45.5 c 128,-1,6
 499 -7 499 -7 391 -7 c 0,7,8
 296 -7 296 -7 220 36 c 128,-1,9
 144 79 144 79 100.5 153 c 128,-1,10
 57 227 57 227 57 318 c 0,11,12
 57 424 57 424 112.5 513 c 128,-1,13
 168 602 168 602 261 654 c 128,-1,14
 354 706 354 706 462 706 c 0,15,0
 557 706 557 706 633.5 663.5 c 128,-1,1
307.5 580 m 128,-1,17
 238 540 238 540 196.5 472 c 128,-1,18
 155 404 155 404 155 325 c 0,19,20
 155 257 155 257 187.5 201 c 128,-1,21
 220 145 220 145 276 112.5 c 128,-1,22
 332 80 332 80 400 80 c 0,23,24
 478 80 478 80 546.5 120.5 c 128,-1,25
 615 161 615 161 656 229.5 c 128,-1,26
 697 298 697 298 697 377 c 0,27,28
 697 445 697 445 665 500.5 c 128,-1,29
 633 556 633 556 577.5 588 c 128,-1,30
 522 620 522 620 455 620 c 0,31,16
 377 620 377 620 307.5 580 c 128,-1,17
EndSplineSet
Substitution2: "<11,2> Diagonal Fractions lookup 7 nested-substitutions 0 subtable" ordmasculine
Substitution2: "<11,2> Diagonal Fractions lookup 5 nested-substitutions 0 subtable" ordmasculine
EndChar

StartChar: P
Encoding: 80 80 52
Width: 684
Flags: W
LayerCount: 2
Fore
SplineSet
630 650.5 m 128,-1,1
 690 601 690 601 690 510 c 0,2,3
 690 422 690 422 650 356 c 128,-1,4
 610 290 610 290 536 254 c 128,-1,5
 462 218 462 218 361 218 c 2,6,-1
 187 218 l 1,7,-1
 143 0 l 1,8,-1
 47 0 l 1,9,-1
 187 700 l 1,10,-1
 457 700 l 2,11,0
 570 700 570 700 630 650.5 c 128,-1,1
537.5 354 m 128,-1,13
 596 403 596 403 596 492 c 0,14,15
 596 551 596 551 555 581.5 c 128,-1,16
 514 612 514 612 437 612 c 2,17,-1
 265 612 l 1,18,-1
 204 305 l 1,19,-1
 374 305 l 2,20,12
 479 305 479 305 537.5 354 c 128,-1,13
EndSplineSet
EndChar

StartChar: Q
Encoding: 81 81 53
Width: 821
Flags: W
LayerCount: 2
Fore
SplineSet
815 -71 m 1,0,1
 775 -107 775 -107 727 -127 c 128,-1,2
 679 -147 679 -147 632 -147 c 0,3,4
 570 -147 570 -147 513.5 -110.5 c 128,-1,5
 457 -74 457 -74 411 -6 c 1,6,7
 405 -7 405 -7 391 -7 c 0,8,9
 296 -7 296 -7 220 36 c 128,-1,10
 144 79 144 79 100.5 153 c 128,-1,11
 57 227 57 227 57 318 c 0,12,13
 57 424 57 424 112.5 513 c 128,-1,14
 168 602 168 602 261 654 c 128,-1,15
 354 706 354 706 462 706 c 0,16,17
 557 706 557 706 633.5 663.5 c 128,-1,18
 710 621 710 621 753.5 547.5 c 128,-1,19
 797 474 797 474 797 383 c 0,20,21
 797 297 797 297 759.5 221.5 c 128,-1,22
 722 146 722 146 657 91 c 128,-1,23
 592 36 592 36 510 11 c 1,24,25
 578 -63 578 -63 643 -63 c 0,26,27
 701 -63 701 -63 775 -2 c 1,28,-1
 815 -71 l 1,0,1
187.5 201 m 128,-1,30
 220 145 220 145 276 112.5 c 128,-1,31
 332 80 332 80 400 80 c 0,32,33
 478 80 478 80 546.5 120.5 c 128,-1,34
 615 161 615 161 656 229.5 c 128,-1,35
 697 298 697 298 697 377 c 0,36,37
 697 445 697 445 665 500.5 c 128,-1,38
 633 556 633 556 577.5 588 c 128,-1,39
 522 620 522 620 455 620 c 0,40,41
 377 620 377 620 307.5 580 c 128,-1,42
 238 540 238 540 196.5 472 c 128,-1,43
 155 404 155 404 155 325 c 0,44,29
 155 257 155 257 187.5 201 c 128,-1,30
EndSplineSet
EndChar

StartChar: R
Encoding: 82 82 54
Width: 723
Flags: W
LayerCount: 2
Fore
SplineSet
644.5 336.5 m 128,-1,1
 591 265 591 265 495 236 c 1,2,-1
 609 0 l 1,3,-1
 499 0 l 1,4,-1
 405 219 l 1,5,6
 392 218 392 218 365 218 c 2,7,-1
 187 218 l 1,8,-1
 143 0 l 1,9,-1
 47 0 l 1,10,-1
 187 700 l 1,11,-1
 461 700 l 2,12,13
 575 700 575 700 636.5 650 c 128,-1,14
 698 600 698 600 698 510 c 0,15,0
 698 408 698 408 644.5 336.5 c 128,-1,1
545.5 353.5 m 128,-1,17
 604 402 604 402 604 492 c 0,18,19
 604 551 604 551 563 581.5 c 128,-1,20
 522 612 522 612 444 612 c 2,21,-1
 265 612 l 1,22,-1
 204 305 l 1,23,-1
 381 305 l 2,24,16
 487 305 487 305 545.5 353.5 c 128,-1,17
EndSplineSet
EndChar

StartChar: S
Encoding: 83 83 55
Width: 609
Flags: W
LayerCount: 2
Fore
SplineSet
475.5 690.5 m 128,-1,1
 535 672 535 672 580 640 c 1,2,-1
 531 555 l 1,3,4
 486 586 486 586 435 601 c 128,-1,5
 384 616 384 616 339 616 c 0,6,7
 277 616 277 616 238.5 593 c 128,-1,8
 200 570 200 570 196 529 c 0,9,10
 192 492 192 492 211 468.5 c 128,-1,11
 230 445 230 445 261 431 c 128,-1,12
 292 417 292 417 345 400 c 0,13,14
 408 379 408 379 447 360 c 128,-1,15
 486 341 486 341 513.5 306 c 128,-1,16
 541 271 541 271 541 216 c 0,17,18
 541 200 541 200 540 191 c 0,19,20
 535 131 535 131 498 86.5 c 128,-1,21
 461 42 461 42 400 17.5 c 128,-1,22
 339 -7 339 -7 263 -7 c 0,23,24
 186 -7 186 -7 116 23 c 128,-1,25
 46 53 46 53 -3 103 c 1,26,-1
 48 186 l 1,27,28
 93 138 93 138 153.5 111.5 c 128,-1,29
 214 85 214 85 273 85 c 0,30,31
 347 85 347 85 390.5 115.5 c 128,-1,32
 434 146 434 146 434 198 c 0,33,34
 434 231 434 231 414 253 c 128,-1,35
 394 275 394 275 364 288 c 128,-1,36
 334 301 334 301 282 317 c 0,37,38
 220 336 220 336 180.5 354.5 c 128,-1,39
 141 373 141 373 113.5 408 c 128,-1,40
 86 443 86 443 86 498 c 0,41,42
 86 561 86 561 119.5 608.5 c 128,-1,43
 153 656 153 656 214 682.5 c 128,-1,44
 275 709 275 709 354 709 c 0,45,0
 416 709 416 709 475.5 690.5 c 128,-1,1
EndSplineSet
EndChar

StartChar: T
Encoding: 84 84 56
Width: 567
Flags: W
LayerCount: 2
Fore
SplineSet
645 700 m 1,0,-1
 628 612 l 1,1,-1
 402 612 l 1,2,-1
 279 0 l 1,3,-1
 182 0 l 1,4,-1
 305 612 l 1,5,-1
 81 612 l 1,6,-1
 97 700 l 1,7,-1
 645 700 l 1,0,-1
EndSplineSet
EndChar

StartChar: U
Encoding: 85 85 57
Width: 766
Flags: W
LayerCount: 2
Fore
SplineSet
687 289 m 2,0,1
 659 151 659 151 568.5 73.5 c 128,-1,2
 478 -4 478 -4 340 -4 c 0,3,4
 220 -4 220 -4 151 54.5 c 128,-1,5
 82 113 82 113 82 218 c 0,6,7
 82 249 82 249 90 289 c 2,8,-1
 172 700 l 1,9,-1
 268 700 l 1,10,-1
 186 289 l 2,11,12
 180 259 180 259 180 234 c 0,13,14
 180 162 180 162 225 122.5 c 128,-1,15
 270 83 270 83 350 83 c 0,16,17
 444 83 444 83 507.5 137.5 c 128,-1,18
 571 192 571 192 591 289 c 2,19,-1
 673 700 l 1,20,-1
 769 700 l 1,21,-1
 687 289 l 2,0,1
EndSplineSet
EndChar

StartChar: V
Encoding: 86 86 58
Width: 676
Flags: W
LayerCount: 2
Fore
SplineSet
657 700 m 1,0,-1
 758 700 l 1,1,-1
 358 0 l 1,2,-1
 258 0 l 1,3,-1
 92 700 l 1,4,-1
 196 700 l 1,5,-1
 327 104 l 1,6,-1
 657 700 l 1,0,-1
EndSplineSet
EndChar

StartChar: W
Encoding: 87 87 59
Width: 1025
Flags: W
LayerCount: 2
Fore
SplineSet
1018 700 m 1,0,-1
 1118 700 l 1,1,-1
 768 0 l 1,2,-1
 668 0 l 1,3,-1
 586 577 l 1,4,-1
 308 0 l 1,5,-1
 210 0 l 1,6,-1
 92 700 l 1,7,-1
 195 700 l 1,8,-1
 279 105 l 1,9,-1
 559 699 l 1,10,-1
 654 700 l 1,11,-1
 738 105 l 1,12,-1
 1018 700 l 1,0,-1
EndSplineSet
EndChar

StartChar: X
Encoding: 88 88 60
Width: 684
Flags: W
LayerCount: 2
Fore
SplineSet
701 700 m 1,0,-1
 408 364 l 1,1,-1
 605 0 l 1,2,-1
 490 0 l 1,3,-1
 335 283 l 1,4,-1
 86 0 l 1,5,-1
 -26 0 l 1,6,-1
 288 360 l 1,7,-1
 106 700 l 1,8,-1
 219 700 l 1,9,-1
 359 439 l 1,10,-1
 587 700 l 1,11,-1
 701 700 l 1,0,-1
EndSplineSet
EndChar

StartChar: Y
Encoding: 89 89 61
Width: 630
Flags: W
LayerCount: 2
Fore
SplineSet
714 700 m 1,0,-1
 377 242 l 1,1,-1
 338 0 l 1,2,-1
 241 0 l 1,3,-1
 281 242 l 1,4,-1
 90 700 l 1,5,-1
 189 700 l 1,6,-1
 344 341 l 1,7,-1
 616 700 l 1,8,-1
 714 700 l 1,0,-1
EndSplineSet
EndChar

StartChar: Z
Encoding: 90 90 62
Width: 674
Flags: W
LayerCount: 2
Fore
SplineSet
691 700 m 1,0,-1
 680 629 l 1,1,-1
 144 88 l 1,2,-1
 593 88 l 1,3,-1
 580 0 l 1,4,-1
 -1 0 l 1,5,-1
 10 71 l 1,6,-1
 547 612 l 1,7,-1
 114 612 l 1,8,-1
 128 700 l 1,9,-1
 691 700 l 1,0,-1
EndSplineSet
EndChar

StartChar: bracketleft
Encoding: 91 91 63
Width: 320
Flags: W
LayerCount: 2
Fore
SplineSet
393 742 m 1,0,-1
 379 666 l 1,1,-1
 253 666 l 1,2,-1
 109 -48 l 1,3,-1
 234 -48 l 1,4,-1
 219 -124 l 1,5,-1
 10 -124 l 1,6,-1
 184 742 l 1,7,-1
 393 742 l 1,0,-1
EndSplineSet
Substitution2: "'rtla' Right to Left Alternates lookup 0 subtable" bracketright
EndChar

StartChar: backslash
Encoding: 92 92 64
Width: 652
Flags: W
LayerCount: 2
Fore
SplineSet
89 819 m 1,0,-1
 170 819 l 1,1,-1
 545 -120 l 1,2,-1
 464 -120 l 1,3,-1
 89 819 l 1,0,-1
EndSplineSet
EndChar

StartChar: bracketright
Encoding: 93 93 65
Width: 376
Flags: W
LayerCount: 2
Fore
SplineSet
29 -124 m 1,0,-1
 43 -48 l 1,1,-1
 169 -48 l 1,2,-1
 313 666 l 1,3,-1
 188 666 l 1,4,-1
 203 742 l 1,5,-1
 412 742 l 1,6,-1
 238 -124 l 1,7,-1
 29 -124 l 1,0,-1
EndSplineSet
Substitution2: "'rtla' Right to Left Alternates lookup 0 subtable" bracketleft
EndChar

StartChar: asciicircum
Encoding: 94 94 66
Width: 525
Flags: W
LayerCount: 2
Fore
SplineSet
463 132 m 1,0,-1
 394 132 l 1,1,-1
 306 465 l 1,2,-1
 83 132 l 1,3,-1
 11 132 l 1,4,-1
 275 526 l 1,5,-1
 356 526 l 1,6,-1
 463 132 l 1,0,-1
EndSplineSet
EndChar

StartChar: underscore
Encoding: 95 95 67
Width: 560
Flags: W
LayerCount: 2
Fore
SplineSet
478 -146 m 1,0,-1
 466 -204 l 1,1,-1
 -94 -204 l 1,2,-1
 -82 -146 l 1,3,-1
 478 -146 l 1,0,-1
EndSplineSet
EndChar

StartChar: a
Encoding: 97 97 69
Width: 678
Flags: W
LayerCount: 2
Fore
SplineSet
145.5 25 m 128,-1,1
 95 55 95 55 67 108.5 c 128,-1,2
 39 162 39 162 39 232 c 0,3,4
 39 316 39 316 76.5 385 c 128,-1,5
 114 454 114 454 180 493.5 c 128,-1,6
 246 533 246 533 326 533 c 0,7,8
 400 533 400 533 450.5 499 c 128,-1,9
 501 465 501 465 521 403 c 1,10,-1
 547 529 l 1,11,-1
 640 529 l 1,12,-1
 535 0 l 1,13,-1
 442 0 l 1,14,-1
 460 86 l 1,15,16
 423 43 423 43 372 19 c 128,-1,17
 321 -5 321 -5 262 -5 c 0,18,0
 196 -5 196 -5 145.5 25 c 128,-1,1
394 101.5 m 128,-1,20
 440 130 440 130 467 179 c 128,-1,21
 494 228 494 228 494 287 c 0,22,23
 494 361 494 361 450.5 406 c 128,-1,24
 407 451 407 451 337 451 c 0,25,26
 281 451 281 451 234.5 422 c 128,-1,27
 188 393 188 393 160.5 344 c 128,-1,28
 133 295 133 295 133 237 c 0,29,30
 133 164 133 164 177.5 118.5 c 128,-1,31
 222 73 222 73 293 73 c 0,32,19
 348 73 348 73 394 101.5 c 128,-1,20
EndSplineSet
Substitution2: "<3,3> Small Caps in Latin lookup 11 subtable" a.sc
Substitution2: "<11,2> Diagonal Fractions lookup 7 nested-substitutions 0 subtable" ordfeminine
Substitution2: "<11,2> Diagonal Fractions lookup 5 nested-substitutions 0 subtable" ordfeminine
EndChar

StartChar: b
Encoding: 98 98 70
Width: 684
Flags: W
LayerCount: 2
Fore
SplineSet
537.5 502 m 128,-1,1
 588 472 588 472 616 418.5 c 128,-1,2
 644 365 644 365 644 295 c 0,3,4
 644 211 644 211 606.5 142 c 128,-1,5
 569 73 569 73 503 33.5 c 128,-1,6
 437 -6 437 -6 357 -6 c 0,7,8
 283 -6 283 -6 232.5 28 c 128,-1,9
 182 62 182 62 162 124 c 1,10,-1
 136 0 l 1,11,-1
 43 0 l 1,12,-1
 191 742 l 1,13,-1
 284 742 l 1,14,-1
 223 441 l 1,15,16
 260 484 260 484 311 508 c 128,-1,17
 362 532 362 532 421 532 c 0,18,0
 487 532 487 532 537.5 502 c 128,-1,1
289 425.5 m 128,-1,20
 243 397 243 397 216 348 c 128,-1,21
 189 299 189 299 189 240 c 0,22,23
 189 166 189 166 232.5 121 c 128,-1,24
 276 76 276 76 346 76 c 0,25,26
 402 76 402 76 448.5 105 c 128,-1,27
 495 134 495 134 522.5 183 c 128,-1,28
 550 232 550 232 550 290 c 0,29,30
 550 363 550 363 505.5 408.5 c 128,-1,31
 461 454 461 454 390 454 c 0,32,19
 335 454 335 454 289 425.5 c 128,-1,20
EndSplineSet
Substitution2: "<3,3> Small Caps in Latin lookup 11 subtable" b.sc
EndChar

StartChar: c
Encoding: 99 99 71
Width: 582
Flags: W
LayerCount: 2
Fore
SplineSet
153 27.5 m 128,-1,1
 99 58 99 58 69.5 112.5 c 128,-1,2
 40 167 40 167 40 237 c 0,3,4
 40 322 40 322 78 389.5 c 128,-1,5
 116 457 116 457 183 494.5 c 128,-1,6
 250 532 250 532 333 532 c 0,7,8
 399 532 399 532 450 511.5 c 128,-1,9
 501 491 501 491 534 452 c 1,10,-1
 477 388 l 1,11,12
 420 450 420 450 328 450 c 0,13,14
 273 450 273 450 228.5 423.5 c 128,-1,15
 184 397 184 397 158.5 350 c 128,-1,16
 133 303 133 303 133 244 c 0,17,18
 133 170 133 170 177 124 c 128,-1,19
 221 78 221 78 291 78 c 0,20,21
 342 78 342 78 385 94.5 c 128,-1,22
 428 111 428 111 458 144 c 1,23,-1
 505 89 l 1,24,25
 464 45 464 45 406.5 21 c 128,-1,26
 349 -3 349 -3 278 -3 c 256,27,0
 207 -3 207 -3 153 27.5 c 128,-1,1
EndSplineSet
Substitution2: "<3,3> Small Caps in Latin lookup 11 subtable" c.sc
EndChar

StartChar: d
Encoding: 100 100 72
Width: 683
Flags: W
LayerCount: 2
Fore
SplineSet
145.5 25 m 128,-1,1
 95 55 95 55 67 108.5 c 128,-1,2
 39 162 39 162 39 232 c 0,3,4
 39 316 39 316 76.5 385 c 128,-1,5
 114 454 114 454 180 493.5 c 128,-1,6
 246 533 246 533 326 533 c 0,7,8
 400 533 400 533 450.5 499 c 128,-1,9
 501 465 501 465 521 403 c 1,10,-1
 590 742 l 1,11,-1
 683 742 l 1,12,-1
 535 0 l 1,13,-1
 442 0 l 1,14,-1
 460 86 l 1,15,16
 423 43 423 43 372 19 c 128,-1,17
 321 -5 321 -5 262 -5 c 0,18,0
 196 -5 196 -5 145.5 25 c 128,-1,1
394 101.5 m 128,-1,20
 440 130 440 130 467 179 c 128,-1,21
 494 228 494 228 494 287 c 0,22,23
 494 361 494 361 450.5 406 c 128,-1,24
 407 451 407 451 337 451 c 0,25,26
 281 451 281 451 234.5 422 c 128,-1,27
 188 393 188 393 160.5 344 c 128,-1,28
 133 295 133 295 133 237 c 0,29,30
 133 164 133 164 177.5 118.5 c 128,-1,31
 222 73 222 73 293 73 c 0,32,19
 348 73 348 73 394 101.5 c 128,-1,20
EndSplineSet
Substitution2: "<3,3> Small Caps in Latin lookup 11 subtable" d.sc
EndChar

StartChar: e
Encoding: 101 101 73
Width: 602
Flags: W
LayerCount: 2
Fore
SplineSet
505.5 470 m 128,-1,1
 567 408 567 408 567 304 c 0,2,3
 567 270 567 270 559 228 c 1,4,-1
 132 228 l 1,5,6
 135 156 135 156 179.5 114 c 128,-1,7
 224 72 224 72 299 72 c 0,8,9
 343 72 343 72 383 86 c 128,-1,10
 423 100 423 100 454 126 c 1,11,-1
 497 65 l 1,12,13
 416 -5 416 -5 296 -5 c 0,14,15
 219 -5 219 -5 161 25 c 128,-1,16
 103 55 103 55 71.5 110 c 128,-1,17
 40 165 40 165 40 237 c 0,18,19
 40 320 40 320 79 387.5 c 128,-1,20
 118 455 118 455 186 493.5 c 128,-1,21
 254 532 254 532 337 532 c 0,22,0
 444 532 444 532 505.5 470 c 128,-1,1
446 414.5 m 128,-1,24
 408 455 408 455 337 455 c 0,25,26
 267 455 267 455 213 412 c 128,-1,27
 159 369 159 369 140 300 c 1,28,-1
 483 300 l 1,29,23
 484 374 484 374 446 414.5 c 128,-1,24
EndSplineSet
Substitution2: "<3,3> Small Caps in Latin lookup 11 subtable" e.sc
EndChar

StartChar: f
Encoding: 102 102 74
Width: 331
Flags: W
LayerCount: 2
Fore
SplineSet
304.5 641 m 128,-1,1
 274 617 274 617 265 576 c 2,2,-1
 252 511 l 1,3,-1
 397 511 l 1,4,-1
 384 440 l 1,5,-1
 238 440 l 1,6,-1
 150 0 l 1,7,-1
 57 0 l 1,8,-1
 145 440 l 1,9,-1
 76 440 l 1,10,-1
 90 511 l 1,11,-1
 160 511 l 1,12,-1
 172 573 l 2,13,14
 183 630 183 630 214.5 669.5 c 128,-1,15
 246 709 246 709 288 728.5 c 128,-1,16
 330 748 330 748 375 748 c 0,17,18
 428 748 428 748 467 723 c 1,19,-1
 438 648 l 1,20,21
 424 656 424 656 406 660.5 c 128,-1,22
 388 665 388 665 373 665 c 0,23,0
 335 665 335 665 304.5 641 c 128,-1,1
EndSplineSet
Substitution2: "<3,3> Small Caps in Latin lookup 11 subtable" f.sc
EndChar

StartChar: g
Encoding: 103 103 75
Width: 640
Flags: W
LayerCount: 2
Fore
SplineSet
101 -177.5 m 128,-1,1
 48 -159 48 -159 -2 -120 c 1,2,-1
 43 -57 l 1,3,4
 115 -118 115 -118 213 -118 c 0,5,6
 296 -118 296 -118 348.5 -82 c 128,-1,7
 401 -46 401 -46 417 23 c 2,8,-1
 437 111 l 1,9,10
 402 70 402 70 354 48.5 c 128,-1,11
 306 27 306 27 252 27 c 0,12,13
 190 27 190 27 142.5 55 c 128,-1,14
 95 83 95 83 68.5 133.5 c 128,-1,15
 42 184 42 184 42 250 c 0,16,17
 42 328 42 328 78 393 c 128,-1,18
 114 458 114 458 176 495.5 c 128,-1,19
 238 533 238 533 313 533 c 0,20,21
 383 533 383 533 430 502.5 c 128,-1,22
 477 472 477 472 496 414 c 1,23,-1
 520 529 l 1,24,-1
 613 529 l 1,25,-1
 509 17 l 2,26,27
 487 -87 487 -87 412 -141.5 c 128,-1,28
 337 -196 337 -196 216 -196 c 0,29,0
 154 -196 154 -196 101 -177.5 c 128,-1,1
378 130.5 m 128,-1,31
 421 157 421 157 446 202 c 128,-1,32
 471 247 471 247 471 301 c 0,33,34
 471 368 471 368 430.5 409.5 c 128,-1,35
 390 451 390 451 324 451 c 0,36,37
 273 451 273 451 230 424.5 c 128,-1,38
 187 398 187 398 161.5 353 c 128,-1,39
 136 308 136 308 136 254 c 0,40,41
 136 187 136 187 177 145.5 c 128,-1,42
 218 104 218 104 284 104 c 0,43,30
 335 104 335 104 378 130.5 c 128,-1,31
EndSplineSet
Substitution2: "<3,3> Small Caps in Latin lookup 11 subtable" g.sc
EndChar

StartChar: h
Encoding: 104 104 76
Width: 667
Flags: W
LayerCount: 2
Fore
SplineSet
557.5 490 m 128,-1,1
 608 445 608 445 608 367 c 0,2,3
 608 341 608 341 602 312 c 2,4,-1
 539 0 l 1,5,-1
 445 0 l 1,6,-1
 505 301 l 2,7,8
 509 318 509 318 509 338 c 0,9,10
 509 390 509 390 476.5 420 c 128,-1,11
 444 450 444 450 385 450 c 0,12,13
 315 450 315 450 263.5 405 c 128,-1,14
 212 360 212 360 196 284 c 2,15,-1
 139 0 l 1,16,-1
 45 0 l 1,17,-1
 191 742 l 1,18,-1
 286 742 l 1,19,-1
 226 440 l 1,20,21
 292 533 292 533 417 535 c 0,22,0
 507 535 507 535 557.5 490 c 128,-1,1
EndSplineSet
Substitution2: "<3,3> Small Caps in Latin lookup 11 subtable" h.sc
EndChar

StartChar: k
Encoding: 107 107 79
Width: 597
Flags: W
LayerCount: 2
Fore
SplineSet
620 529 m 1,0,-1
 371 316 l 1,1,-1
 526 0 l 1,2,-1
 413 0 l 1,3,-1
 298 252 l 1,4,-1
 165 138 l 1,5,-1
 137 0 l 1,6,-1
 43 0 l 1,7,-1
 191 742 l 1,8,-1
 285 742 l 1,9,-1
 191 271 l 1,10,-1
 497 529 l 1,11,-1
 620 529 l 1,0,-1
EndSplineSet
Substitution2: "<3,3> Small Caps in Latin lookup 11 subtable" k.sc
EndChar

StartChar: l
Encoding: 108 108 80
Width: 285
Flags: W
LayerCount: 2
Fore
SplineSet
285 742 m 1,0,-1
 137 0 l 1,1,-1
 43 0 l 1,2,-1
 191 742 l 1,3,-1
 285 742 l 1,0,-1
EndSplineSet
Substitution2: "<3,3> Small Caps in Latin lookup 11 subtable" l.sc
EndChar

StartChar: m
Encoding: 109 109 81
Width: 1061
Flags: W
LayerCount: 2
Fore
SplineSet
951.5 490 m 128,-1,1
 1002 445 1002 445 1002 367 c 0,2,3
 1002 341 1002 341 996 312 c 2,4,-1
 933 0 l 1,5,-1
 839 0 l 1,6,-1
 899 301 l 2,7,8
 903 318 903 318 903 338 c 0,9,10
 903 390 903 390 870.5 420 c 128,-1,11
 838 450 838 450 779 450 c 0,12,13
 712 450 712 450 661.5 408.5 c 128,-1,14
 611 367 611 367 593 297 c 2,15,-1
 533 0 l 1,16,-1
 439 0 l 1,17,-1
 499 301 l 2,18,19
 503 318 503 318 503 338 c 0,20,21
 503 390 503 390 470.5 420 c 128,-1,22
 438 450 438 450 379 450 c 0,23,24
 309 450 309 450 257 404.5 c 128,-1,25
 205 359 205 359 190 284 c 2,26,-1
 133 0 l 1,27,-1
 39 0 l 1,28,-1
 143 529 l 1,29,-1
 238 529 l 1,30,-1
 220 440 l 1,31,32
 286 533 286 533 411 535 c 0,33,34
 489 535 489 535 537.5 501.5 c 128,-1,35
 586 468 586 468 598 407 c 1,36,37
 672 533 672 533 811 535 c 0,38,0
 901 535 901 535 951.5 490 c 128,-1,1
EndSplineSet
Substitution2: "<3,3> Small Caps in Latin lookup 11 subtable" m.sc
EndChar

StartChar: n
Encoding: 110 110 82
Width: 661
Flags: W
LayerCount: 2
Fore
SplineSet
551.5 490 m 128,-1,1
 602 445 602 445 602 367 c 0,2,3
 602 341 602 341 596 312 c 2,4,-1
 533 0 l 1,5,-1
 439 0 l 1,6,-1
 499 301 l 2,7,8
 503 318 503 318 503 338 c 0,9,10
 503 390 503 390 470.5 420 c 128,-1,11
 438 450 438 450 379 450 c 0,12,13
 309 450 309 450 257.5 405 c 128,-1,14
 206 360 206 360 190 284 c 2,15,-1
 133 0 l 1,16,-1
 39 0 l 1,17,-1
 143 529 l 1,18,-1
 238 529 l 1,19,-1
 220 440 l 1,20,21
 286 533 286 533 411 535 c 0,22,0
 501 535 501 535 551.5 490 c 128,-1,1
EndSplineSet
Substitution2: "<3,3> Small Caps in Latin lookup 11 subtable" n.sc
EndChar

StartChar: o
Encoding: 111 111 83
Width: 627
Flags: W
LayerCount: 2
Fore
SplineSet
469 501.5 m 128,-1,1
 525 471 525 471 556 416 c 128,-1,2
 587 361 587 361 587 291 c 0,3,4
 587 206 587 206 547.5 139 c 128,-1,5
 508 72 508 72 439.5 34.5 c 128,-1,6
 371 -3 371 -3 286 -3 c 0,7,8
 212 -3 212 -3 156.5 27.5 c 128,-1,9
 101 58 101 58 70.5 113 c 128,-1,10
 40 168 40 168 40 239 c 0,11,12
 40 323 40 323 79 390 c 128,-1,13
 118 457 118 457 186.5 494.5 c 128,-1,14
 255 532 255 532 340 532 c 0,15,0
 413 532 413 532 469 501.5 c 128,-1,1
231 424.5 m 128,-1,17
 186 398 186 398 160 350.5 c 128,-1,18
 134 303 134 303 134 243 c 0,19,20
 134 168 134 168 178 122 c 128,-1,21
 222 76 222 76 294 76 c 0,22,23
 350 76 350 76 394.5 102.5 c 128,-1,24
 439 129 439 129 465 176.5 c 128,-1,25
 491 224 491 224 491 284 c 0,26,27
 491 358 491 358 447.5 404.5 c 128,-1,28
 404 451 404 451 332 451 c 0,29,16
 276 451 276 451 231 424.5 c 128,-1,17
EndSplineSet
Substitution2: "<3,3> Small Caps in Latin lookup 11 subtable" o.sc
Substitution2: "<11,2> Diagonal Fractions lookup 7 nested-substitutions 0 subtable" ordmasculine
Substitution2: "<11,2> Diagonal Fractions lookup 5 nested-substitutions 0 subtable" ordmasculine
EndChar

StartChar: p
Encoding: 112 112 84
Width: 683
Flags: W
LayerCount: 2
Fore
SplineSet
537.5 503.5 m 128,-1,1
 588 474 588 474 616 420 c 128,-1,2
 644 366 644 366 644 296 c 0,3,4
 644 213 644 213 606.5 144 c 128,-1,5
 569 75 569 75 503 35 c 128,-1,6
 437 -5 437 -5 357 -5 c 0,7,8
 283 -5 283 -5 232.5 29 c 128,-1,9
 182 63 182 63 162 125 c 1,10,-1
 97 -194 l 1,11,-1
 4 -194 l 1,12,-1
 148 529 l 1,13,-1
 241 529 l 1,14,-1
 223 442 l 1,15,16
 260 485 260 485 311 509 c 128,-1,17
 362 533 362 533 421 533 c 0,18,0
 487 533 487 533 537.5 503.5 c 128,-1,1
289 427.5 m 128,-1,20
 243 399 243 399 216 350 c 128,-1,21
 189 301 189 301 189 242 c 0,22,23
 189 168 189 168 232.5 123 c 128,-1,24
 276 78 276 78 346 78 c 0,25,26
 402 78 402 78 448.5 107 c 128,-1,27
 495 136 495 136 522.5 185 c 128,-1,28
 550 234 550 234 550 292 c 0,29,30
 550 365 550 365 505.5 410.5 c 128,-1,31
 461 456 461 456 390 456 c 0,32,19
 335 456 335 456 289 427.5 c 128,-1,20
EndSplineSet
Substitution2: "<3,3> Small Caps in Latin lookup 11 subtable" p.sc
EndChar

StartChar: q
Encoding: 113 113 85
Width: 683
Flags: W
LayerCount: 2
Fore
SplineSet
145.5 25 m 128,-1,1
 95 55 95 55 67 108.5 c 128,-1,2
 39 162 39 162 39 232 c 0,3,4
 39 316 39 316 76.5 385 c 128,-1,5
 114 454 114 454 180 493.5 c 128,-1,6
 246 533 246 533 326 533 c 0,7,8
 400 533 400 533 450.5 499 c 128,-1,9
 501 465 501 465 521 403 c 1,10,-1
 547 529 l 1,11,-1
 640 529 l 1,12,-1
 496 -194 l 1,13,-1
 403 -194 l 1,14,-1
 460 86 l 1,15,16
 423 43 423 43 372 19 c 128,-1,17
 321 -5 321 -5 262 -5 c 0,18,0
 196 -5 196 -5 145.5 25 c 128,-1,1
394 101.5 m 128,-1,20
 440 130 440 130 467 179 c 128,-1,21
 494 228 494 228 494 287 c 0,22,23
 494 361 494 361 450.5 406 c 128,-1,24
 407 451 407 451 337 451 c 0,25,26
 281 451 281 451 234.5 422 c 128,-1,27
 188 393 188 393 160.5 344 c 128,-1,28
 133 295 133 295 133 237 c 0,29,30
 133 164 133 164 177.5 118.5 c 128,-1,31
 222 73 222 73 293 73 c 0,32,19
 348 73 348 73 394 101.5 c 128,-1,20
EndSplineSet
Substitution2: "<3,3> Small Caps in Latin lookup 11 subtable" q.sc
EndChar

StartChar: r
Encoding: 114 114 86
Width: 384
Flags: W
LayerCount: 2
Fore
SplineSet
422 532 m 1,1,-1
 410 442 l 1,2,3
 330 445 330 445 269.5 398 c 128,-1,4
 209 351 209 351 186 273 c 1,5,-1
 132 0 l 1,6,-1
 38 0 l 1,7,-1
 143 529 l 1,8,-1
 237 529 l 1,9,-1
 215 420 l 1,10,0
 288 530 288 530 422 532 c 1,1,-1
EndSplineSet
Substitution2: "<3,3> Small Caps in Latin lookup 11 subtable" r.sc
EndChar

StartChar: s
Encoding: 115 115 87
Width: 473
Flags: W
LayerCount: 2
Fore
SplineSet
87 21.5 m 128,-1,1
 23 49 23 49 -11 93 c 1,2,-1
 32 156 l 1,3,4
 63 119 63 119 115 95 c 128,-1,5
 167 71 167 71 217 71 c 0,6,7
 262 71 262 71 291 91.5 c 128,-1,8
 320 112 320 112 320 146 c 0,9,10
 320 177 320 177 295 195 c 128,-1,11
 270 213 270 213 218 233 c 0,12,13
 171 252 171 252 143 268 c 128,-1,14
 115 284 115 284 95 311.5 c 128,-1,15
 75 339 75 339 75 380 c 0,16,17
 75 449 75 449 127 491.5 c 128,-1,18
 179 534 179 534 263 534 c 0,19,20
 320 534 320 534 374 514.5 c 128,-1,21
 428 495 428 495 464 463 c 1,22,-1
 418 398 l 1,23,24
 384 424 384 424 341 440.5 c 128,-1,25
 298 457 298 457 261 457 c 0,26,27
 220 457 220 457 193.5 438 c 128,-1,28
 167 419 167 419 167 388 c 0,29,30
 167 360 167 360 192 343 c 128,-1,31
 217 326 217 326 267 306 c 0,32,33
 313 287 313 287 343 270.5 c 128,-1,34
 373 254 373 254 394 225.5 c 128,-1,35
 415 197 415 197 415 155 c 0,36,37
 415 108 415 108 390 71.5 c 128,-1,38
 365 35 365 35 320.5 14.5 c 128,-1,39
 276 -6 276 -6 219 -6 c 0,40,0
 151 -6 151 -6 87 21.5 c 128,-1,1
EndSplineSet
Substitution2: "<3,3> Small Caps in Latin lookup 11 subtable" s.sc
EndChar

StartChar: t
Encoding: 116 116 88
Width: 399
Flags: W
LayerCount: 2
Fore
SplineSet
182 159 m 2,0,1
 178 142 178 142 178 126 c 0,2,3
 178 102 178 102 189.5 92 c 128,-1,4
 201 82 201 82 225 82 c 0,5,6
 264 82 264 82 315 109 c 1,7,-1
 332 34 l 1,8,9
 266 -4 266 -4 203 -4 c 0,10,11
 149 -4 149 -4 116.5 24.5 c 128,-1,12
 84 53 84 53 84 108 c 0,13,14
 84 131 84 131 88 151 c 2,15,-1
 146 440 l 1,16,-1
 71 440 l 1,17,-1
 84 511 l 1,18,-1
 160 511 l 1,19,-1
 188 653 l 1,20,-1
 281 653 l 1,21,-1
 253 511 l 1,22,-1
 415 511 l 1,23,-1
 402 440 l 1,24,-1
 238 440 l 1,25,-1
 182 159 l 2,0,1
EndSplineSet
Substitution2: "<3,3> Small Caps in Latin lookup 11 subtable" t.sc
EndChar

StartChar: u
Encoding: 117 117 89
Width: 661
Flags: W
LayerCount: 2
Fore
SplineSet
109.5 39 m 128,-1,1
 59 84 59 84 59 162 c 0,2,3
 59 189 59 189 65 217 c 2,4,-1
 128 529 l 1,5,-1
 222 529 l 1,6,-1
 162 228 l 2,7,8
 158 211 158 211 158 191 c 0,9,10
 158 139 158 139 190.5 109 c 128,-1,11
 223 79 223 79 282 79 c 0,12,13
 352 79 352 79 403.5 124 c 128,-1,14
 455 169 455 169 471 245 c 2,15,-1
 528 529 l 1,16,-1
 622 529 l 1,17,-1
 518 0 l 1,18,-1
 423 0 l 1,19,-1
 441 89 l 1,20,21
 375 -4 375 -4 250 -6 c 0,22,0
 160 -6 160 -6 109.5 39 c 128,-1,1
EndSplineSet
Substitution2: "<3,3> Small Caps in Latin lookup 11 subtable" u.sc
EndChar

StartChar: v
Encoding: 118 118 90
Width: 510
Flags: W
LayerCount: 2
Fore
SplineSet
566 529 m 1,0,-1
 255 0 l 1,1,-1
 158 0 l 1,2,-1
 56 529 l 1,3,-1
 153 529 l 1,4,-1
 223 92 l 1,5,-1
 470 529 l 1,6,-1
 566 529 l 1,0,-1
EndSplineSet
Substitution2: "<3,3> Small Caps in Latin lookup 11 subtable" v.sc
EndChar

StartChar: w
Encoding: 119 119 91
Width: 876
Flags: W
LayerCount: 2
Fore
SplineSet
933 529 m 1,0,-1
 633 0 l 1,1,-1
 536 0 l 1,2,-1
 475 417 l 1,3,-1
 243 0 l 1,4,-1
 147 0 l 1,5,-1
 56 529 l 1,6,-1
 151 529 l 1,7,-1
 211 92 l 1,8,-1
 445 529 l 1,9,-1
 543 529 l 1,10,-1
 601 92 l 1,11,-1
 835 529 l 1,12,-1
 933 529 l 1,0,-1
EndSplineSet
Substitution2: "<3,3> Small Caps in Latin lookup 11 subtable" w.sc
EndChar

StartChar: x
Encoding: 120 120 92
Width: 540
Flags: W
LayerCount: 2
Fore
SplineSet
192 529 m 1,0,-1
 282 335 l 1,1,-1
 455 529 l 1,2,-1
 560 529 l 1,3,-1
 334 271 l 1,4,-1
 466 0 l 1,5,-1
 359 0 l 1,6,-1
 263 208 l 1,7,-1
 72 0 l 1,8,-1
 -35 0 l 1,9,-1
 210 271 l 1,10,-1
 85 529 l 1,11,-1
 192 529 l 1,0,-1
EndSplineSet
Substitution2: "<3,3> Small Caps in Latin lookup 11 subtable" x.sc
EndChar

StartChar: y
Encoding: 121 121 93
Width: 514
Flags: W
LayerCount: 2
Fore
SplineSet
571 529 m 1,0,-1
 208 -79 l 2,1,2
 137 -198 137 -198 24 -198 c 0,3,4
 -11 -198 -11 -198 -37.5 -187.5 c 128,-1,5
 -64 -177 -64 -177 -88 -155 c 1,6,-1
 -39 -86 l 1,7,8
 -11 -109 -11 -109 26 -109 c 0,9,10
 86 -109 86 -109 135 -38 c 2,11,-1
 164 6 l 1,12,-1
 51 529 l 1,13,-1
 147 529 l 1,14,-1
 229 101 l 1,15,-1
 475 529 l 1,16,-1
 571 529 l 1,0,-1
EndSplineSet
Substitution2: "<3,3> Small Caps in Latin lookup 11 subtable" y.sc
EndChar

StartChar: z
Encoding: 122 122 94
Width: 531
Flags: W
LayerCount: 2
Fore
SplineSet
536 528 m 1,0,-1
 524 462 l 1,1,-1
 127 77 l 1,2,-1
 453 77 l 1,3,-1
 438 -1 l 1,4,-1
 -3 0 l 1,5,-1
 9 66 l 1,6,-1
 405 451 l 1,7,-1
 97 452 l 1,8,-1
 111 529 l 1,9,-1
 536 528 l 1,0,-1
EndSplineSet
Substitution2: "<3,3> Small Caps in Latin lookup 11 subtable" z.sc
EndChar

StartChar: braceleft
Encoding: 123 123 95
Width: 340
Flags: W
LayerCount: 2
Fore
SplineSet
212.5 339 m 128,-1,1
 193 315 193 315 159 308 c 1,2,3
 184 300 184 300 195 285.5 c 128,-1,4
 206 271 206 271 206 246 c 0,5,6
 206 231 206 231 201 206 c 2,7,-1
 164 23 l 2,8,9
 162 7 162 7 162 2 c 0,10,11
 162 -26 162 -26 182 -38 c 128,-1,12
 202 -50 202 -50 247 -50 c 1,13,-1
 232 -126 l 1,14,-1
 198 -126 l 2,15,16
 131 -126 131 -126 100.5 -106.5 c 128,-1,17
 70 -87 70 -87 70 -42 c 0,18,19
 70 -23 70 -23 74 -4 c 2,20,-1
 118 212 l 2,21,22
 121 224 121 224 121 234 c 0,23,24
 121 270 121 270 83 270 c 2,25,-1
 54 270 l 1,26,-1
 69 347 l 1,27,-1
 98 347 l 2,28,29
 122 347 122 347 135.5 361 c 128,-1,30
 149 375 149 375 156 405 c 2,31,-1
 200 621 l 2,32,33
 213 686 213 686 253 714.5 c 128,-1,34
 293 743 293 743 372 743 c 2,35,-1
 406 743 l 1,36,-1
 391 667 l 1,37,38
 338 667 338 667 312 650.5 c 128,-1,39
 286 634 286 634 279 594 c 2,40,-1
 241 410 l 2,41,0
 232 363 232 363 212.5 339 c 128,-1,1
EndSplineSet
Substitution2: "'rtla' Right to Left Alternates lookup 0 subtable" braceright
EndChar

StartChar: bar
Encoding: 124 124 96
Width: 259
Flags: W
LayerCount: 2
Fore
SplineSet
276 813 m 1,0,-1
 89 -119 l 1,1,-1
 16 -119 l 1,2,-1
 203 813 l 1,3,-1
 276 813 l 1,0,-1
EndSplineSet
EndChar

StartChar: braceright
Encoding: 125 125 97
Width: 439
Flags: W
LayerCount: 2
Fore
SplineSet
244.5 279 m 128,-1,1
 264 303 264 303 298 310 c 1,2,3
 273 318 273 318 262 332.5 c 128,-1,4
 251 347 251 347 251 372 c 0,5,6
 251 387 251 387 256 412 c 2,7,-1
 293 595 l 2,8,9
 295 611 295 611 295 616 c 0,10,11
 295 644 295 644 275 656 c 128,-1,12
 255 668 255 668 210 668 c 1,13,-1
 225 744 l 1,14,-1
 259 744 l 2,15,16
 326 744 326 744 356.5 724.5 c 128,-1,17
 387 705 387 705 387 660 c 0,18,19
 387 641 387 641 383 622 c 2,20,-1
 339 406 l 2,21,22
 336 394 336 394 336 384 c 0,23,24
 336 348 336 348 374 348 c 2,25,-1
 403 348 l 1,26,-1
 388 271 l 1,27,-1
 359 271 l 2,28,29
 335 271 335 271 321.5 257 c 128,-1,30
 308 243 308 243 301 213 c 2,31,-1
 257 -3 l 2,32,33
 244 -68 244 -68 204 -96.5 c 128,-1,34
 164 -125 164 -125 85 -125 c 2,35,-1
 51 -125 l 1,36,-1
 66 -49 l 1,37,38
 119 -49 119 -49 145 -32.5 c 128,-1,39
 171 -16 171 -16 178 24 c 2,40,-1
 216 208 l 2,41,0
 225 255 225 255 244.5 279 c 128,-1,1
EndSplineSet
Substitution2: "'rtla' Right to Left Alternates lookup 0 subtable" braceleft
EndChar

StartChar: asciitilde
Encoding: 126 126 98
Width: 495
Flags: W
LayerCount: 2
Fore
SplineSet
221.5 380.5 m 128,-1,1
 240 372 240 372 267 355 c 0,2,3
 285 342 285 342 298.5 335.5 c 128,-1,4
 312 329 312 329 326 329 c 0,5,6
 347 329 347 329 362 343 c 128,-1,7
 377 357 377 357 382 382 c 1,8,-1
 448 382 l 1,9,10
 424 255 424 255 333 255 c 0,11,12
 308 255 308 255 288 264 c 128,-1,13
 268 273 268 273 244 290 c 0,14,15
 225 303 225 303 213 309 c 128,-1,16
 201 315 201 315 188 315 c 0,17,18
 168 315 168 315 155 301.5 c 128,-1,19
 142 288 142 288 137 263 c 1,20,-1
 70 263 l 1,21,22
 94 389 94 389 181 389 c 0,23,0
 203 389 203 389 221.5 380.5 c 128,-1,1
EndSplineSet
EndChar

StartChar: exclamdown
Encoding: 161 161 100
Width: 209
Flags: W
LayerCount: 2
Fore
SplineSet
118 436.5 m 128,-1,1
 104 451 104 451 104 474 c 0,2,3
 104 500 104 500 121.5 518.5 c 128,-1,4
 139 537 139 537 164 537 c 0,5,6
 186 537 186 537 199.5 522 c 128,-1,7
 213 507 213 507 213 484 c 0,8,9
 213 458 213 458 196 440 c 128,-1,10
 179 422 179 422 154 422 c 0,11,0
 132 422 132 422 118 436.5 c 128,-1,1
-11 -162 m 1,12,-1
 23 9 l 1,13,-1
 98 313 l 1,14,-1
 159 313 l 1,15,-1
 112 9 l 1,16,-1
 78 -162 l 1,17,-1
 -11 -162 l 1,12,-1
EndSplineSet
Substitution2: "<3,3> Small Caps in Latin lookup 11 subtable" exclamdown.sc
EndChar

StartChar: cent
Encoding: 162 162 101
Width: 582
Flags: W
LayerCount: 2
Fore
SplineSet
385 94.5 m 128,-1,1
 428 111 428 111 458 144 c 1,2,-1
 505 89 l 1,3,4
 465 45 465 45 409 21.5 c 128,-1,5
 353 -2 353 -2 283 -3 c 1,6,-1
 256 -140 l 1,7,-1
 184 -140 l 1,8,-1
 213 4 l 1,9,10
 133 24 133 24 86.5 86 c 128,-1,11
 40 148 40 148 40 237 c 0,12,13
 40 319 40 319 76 385 c 128,-1,14
 112 451 112 451 175 489.5 c 128,-1,15
 238 528 238 528 317 532 c 1,16,-1
 344 677 l 1,17,-1
 417 677 l 1,18,-1
 389 528 l 1,19,20
 482 513 482 513 534 452 c 1,21,-1
 477 388 l 1,22,23
 420 450 420 450 328 450 c 0,24,25
 273 450 273 450 228.5 423.5 c 128,-1,26
 184 397 184 397 158.5 350 c 128,-1,27
 133 303 133 303 133 244 c 0,28,29
 133 170 133 170 177 124 c 128,-1,30
 221 78 221 78 291 78 c 0,31,0
 342 78 342 78 385 94.5 c 128,-1,1
EndSplineSet
EndChar

StartChar: sterling
Encoding: 163 163 102
Width: 544
Flags: W
LayerCount: 2
Fore
SplineSet
518 680 m 128,-1,1
 563 656 563 656 592 612 c 1,2,-1
 538 538 l 1,3,4
 489 617 489 617 411 617 c 0,5,6
 354 617 354 617 316.5 583.5 c 128,-1,7
 279 550 279 550 266 485 c 2,8,-1
 244 377 l 1,9,-1
 423 377 l 1,10,-1
 413 323 l 1,11,-1
 234 323 l 1,12,-1
 185 79 l 1,13,-1
 472 79 l 1,14,-1
 457 0 l 1,15,-1
 -12 0 l 1,16,-1
 2 79 l 1,17,-1
 89 79 l 1,18,-1
 138 323 l 1,19,-1
 52 323 l 1,20,-1
 62 377 l 1,21,-1
 149 377 l 1,22,-1
 171 487 l 2,23,24
 191 591 191 591 255 647.5 c 128,-1,25
 319 704 319 704 417 704 c 0,26,0
 473 704 473 704 518 680 c 128,-1,1
EndSplineSet
EndChar

StartChar: currency
Encoding: 164 164 103
Width: 820
Flags: W
LayerCount: 2
Fore
SplineSet
678 233.5 m 128,-1,1
 663 192 663 192 636 158 c 1,2,-1
 739 55 l 1,3,-1
 684 -2 l 1,4,-1
 579 104 l 1,5,6
 508 55 508 55 420 55 c 256,7,8
 332 55 332 55 263 105 c 1,9,-1
 156 -2 l 1,10,-1
 102 55 l 1,11,-1
 205 159 l 1,12,13
 178 193 178 193 163.5 234 c 128,-1,14
 149 275 149 275 149 319 c 0,15,16
 149 407 149 407 203 478 c 1,17,-1
 102 580 l 1,18,-1
 156 637 l 1,19,-1
 260 533 l 1,20,21
 332 584 332 584 420 584 c 0,22,23
 509 584 509 584 581 533 c 1,24,-1
 684 637 l 1,25,-1
 739 580 l 1,26,-1
 638 479 l 1,27,28
 693 406 693 406 693 319 c 0,29,0
 693 275 693 275 678 233.5 c 128,-1,1
518.5 159 m 128,-1,31
 564 184 564 184 591 226.5 c 128,-1,32
 618 269 618 269 618 319 c 256,33,34
 618 369 618 369 591 412 c 128,-1,35
 564 455 564 455 518.5 480 c 128,-1,36
 473 505 473 505 420 505 c 256,37,38
 367 505 367 505 322.5 480 c 128,-1,39
 278 455 278 455 251.5 412 c 128,-1,40
 225 369 225 369 225 319 c 256,41,42
 225 269 225 269 251.5 226.5 c 128,-1,43
 278 184 278 184 322.5 159 c 128,-1,44
 367 134 367 134 420 134 c 256,45,30
 473 134 473 134 518.5 159 c 128,-1,31
EndSplineSet
EndChar

StartChar: yen
Encoding: 165 165 104
Width: 623
Flags: W
LayerCount: 2
Fore
SplineSet
714 700 m 1,0,-1
 417 294 l 1,1,-1
 585 294 l 1,2,-1
 575 241 l 1,3,-1
 379 241 l 1,4,-1
 376 238 l 1,5,-1
 366 176 l 1,6,-1
 563 176 l 1,7,-1
 553 122 l 1,8,-1
 358 122 l 1,9,-1
 338 0 l 1,10,-1
 242 0 l 1,11,-1
 262 122 l 1,12,-1
 66 122 l 1,13,-1
 76 176 l 1,14,-1
 270 176 l 1,15,-1
 281 241 l 1,16,-1
 88 241 l 1,17,-1
 98 294 l 1,18,-1
 265 294 l 1,19,-1
 98 700 l 1,20,-1
 196 700 l 1,21,-1
 349 347 l 1,22,-1
 616 700 l 1,23,-1
 714 700 l 1,0,-1
EndSplineSet
EndChar

StartChar: brokenbar
Encoding: 166 166 105
Width: 259
Flags: W
LayerCount: 2
Fore
SplineSet
276 813 m 1,0,-1
 207 466 l 1,1,-1
 134 466 l 1,2,-1
 203 813 l 1,3,-1
 276 813 l 1,0,-1
159 229 m 1,4,-1
 89 -119 l 1,5,-1
 16 -119 l 1,6,-1
 86 229 l 1,7,-1
 159 229 l 1,4,-1
EndSplineSet
EndChar

StartChar: section
Encoding: 167 167 106
Width: 491
Flags: W
LayerCount: 2
Fore
SplineSet
75 -55 m 128,-1,1
 13 -29 13 -29 -27 17 c 1,2,-1
 15 72 l 1,3,4
 53 31 53 31 101 8.5 c 128,-1,5
 149 -14 149 -14 200 -14 c 0,6,7
 249 -14 249 -14 281 8 c 128,-1,8
 313 30 313 30 313 63 c 0,9,10
 313 94 313 94 286 113 c 128,-1,11
 259 132 259 132 202 158 c 0,12,13
 156 178 156 178 126.5 195 c 128,-1,14
 97 212 97 212 76.5 238.5 c 128,-1,15
 56 265 56 265 56 302 c 0,16,17
 56 359 56 359 97.5 395 c 128,-1,18
 139 431 139 431 213 438 c 1,19,20
 165 463 165 463 143.5 487.5 c 128,-1,21
 122 512 122 512 122 543 c 0,22,23
 122 608 122 608 173.5 648 c 128,-1,24
 225 688 225 688 307 688 c 0,25,26
 362 688 362 688 413.5 670 c 128,-1,27
 465 652 465 652 506 619 c 1,28,-1
 465 563 l 1,29,30
 428 591 428 591 387 606 c 128,-1,31
 346 621 346 621 307 621 c 0,32,33
 261 621 261 621 233 601.5 c 128,-1,34
 205 582 205 582 205 550 c 0,35,36
 205 519 205 519 232 499.5 c 128,-1,37
 259 480 259 480 316 456 c 0,38,39
 363 436 363 436 393 419 c 128,-1,40
 423 402 423 402 444 375.5 c 128,-1,41
 465 349 465 349 465 311 c 0,42,43
 465 259 465 259 424.5 217.5 c 128,-1,44
 384 176 384 176 325 168 c 1,45,46
 364 148 364 148 381.5 124.5 c 128,-1,47
 399 101 399 101 399 70 c 0,48,49
 399 26 399 26 374.5 -8.5 c 128,-1,50
 350 -43 350 -43 306 -62 c 128,-1,51
 262 -81 262 -81 205 -81 c 0,52,0
 137 -81 137 -81 75 -55 c 128,-1,1
351.5 244.5 m 128,-1,54
 379 266 379 266 379 301 c 0,55,56
 379 338 379 338 341 361 c 128,-1,57
 303 384 303 384 242 384 c 0,58,59
 195 384 195 384 168 365 c 128,-1,60
 141 346 141 346 141 313 c 0,61,62
 141 276 141 276 181 249.5 c 128,-1,63
 221 223 221 223 278 223 c 0,64,53
 324 223 324 223 351.5 244.5 c 128,-1,54
EndSplineSet
EndChar

StartChar: copyright
Encoding: 169 169 108
Width: 765
Flags: W
LayerCount: 2
Fore
SplineSet
570.5 643.5 m 128,-1,1
 648 598 648 598 693 520 c 128,-1,2
 738 442 738 442 738 350 c 0,3,4
 738 259 738 259 693 180.5 c 128,-1,5
 648 102 648 102 570 55.5 c 128,-1,6
 492 9 492 9 398 9 c 0,7,8
 305 9 305 9 227.5 55 c 128,-1,9
 150 101 150 101 105.5 179 c 128,-1,10
 61 257 61 257 61 348 c 256,11,12
 61 439 61 439 106 517.5 c 128,-1,13
 151 596 151 596 228.5 642.5 c 128,-1,14
 306 689 306 689 400 689 c 0,15,0
 493 689 493 689 570.5 643.5 c 128,-1,1
252.5 598.5 m 128,-1,17
 186 559 186 559 148 492.5 c 128,-1,18
 110 426 110 426 110 348 c 256,19,20
 110 270 110 270 148 204 c 128,-1,21
 186 138 186 138 252 99 c 128,-1,22
 318 60 318 60 398 60 c 0,23,24
 479 60 479 60 545.5 99.5 c 128,-1,25
 612 139 612 139 650.5 205.5 c 128,-1,26
 689 272 689 272 689 350 c 0,27,28
 689 429 689 429 651 495 c 128,-1,29
 613 561 613 561 546.5 599.5 c 128,-1,30
 480 638 480 638 400 638 c 0,31,16
 319 638 319 638 252.5 598.5 c 128,-1,17
475 509 m 128,-1,33
 509 495 509 495 535 470 c 1,34,-1
 505 435 l 1,35,36
 484 455 484 455 458.5 466 c 128,-1,37
 433 477 433 477 406 477 c 0,38,39
 351 477 351 477 312.5 440 c 128,-1,40
 274 403 274 403 274 350 c 0,41,42
 274 296 274 296 312.5 258.5 c 128,-1,43
 351 221 351 221 406 221 c 0,44,45
 432 221 432 221 458.5 232 c 128,-1,46
 485 243 485 243 505 262 c 1,47,-1
 535 229 l 1,48,49
 508 203 508 203 473.5 188.5 c 128,-1,50
 439 174 439 174 403 174 c 0,51,52
 353 174 353 174 312 197.5 c 128,-1,53
 271 221 271 221 247 261 c 128,-1,54
 223 301 223 301 223 349 c 256,55,56
 223 397 223 397 247 437 c 128,-1,57
 271 477 271 477 313 500 c 128,-1,58
 355 523 355 523 405 523 c 0,59,32
 441 523 441 523 475 509 c 128,-1,33
EndSplineSet
EndChar

StartChar: ordfeminine
Encoding: 170 170 109
Width: 383
Flags: W
LayerCount: 2
Fore
SplineSet
379 750.5 m 128,-1,1
 410 728 410 728 410 686 c 0,2,3
 410 671 410 671 408 663 c 2,4,-1
 367 458 l 1,5,-1
 301 458 l 1,6,-1
 311 510 l 1,7,8
 268 456 268 456 191 456 c 0,9,10
 148 456 148 456 120.5 478.5 c 128,-1,11
 93 501 93 501 93 536 c 0,12,13
 93 543 93 543 95 555 c 0,14,15
 112 637 112 637 233 637 c 2,16,-1
 335 637 l 1,17,-1
 339 656 l 2,18,19
 341 666 341 666 341 671 c 0,20,21
 341 720 341 720 265 720 c 0,22,23
 219 720 219 720 158 688 c 1,24,-1
 149 735 l 1,25,26
 228 773 228 773 289 773 c 0,27,0
 348 773 348 773 379 750.5 c 128,-1,1
320 556 m 1,29,-1
 328 601 l 1,30,-1
 239 601 l 2,31,32
 200 601 200 601 179 586 c 128,-1,33
 158 571 158 571 158 544 c 0,34,35
 158 524 158 524 172.5 513 c 128,-1,36
 187 502 187 502 213 502 c 0,37,28
 282 502 282 502 320 556 c 1,29,-1
EndSplineSet
EndChar

StartChar: logicalnot
Encoding: 172 172 111
Width: 566
Flags: W
LayerCount: 2
Fore
SplineSet
502 394 m 1,0,-1
 489 328 l 1,1,-1
 453 148 l 1,2,-1
 383 148 l 1,3,-1
 418 328 l 1,4,-1
 50 328 l 1,5,-1
 62 394 l 1,6,-1
 502 394 l 1,0,-1
EndSplineSet
EndChar

StartChar: registered
Encoding: 174 174 113
Width: 765
Flags: W
LayerCount: 2
Fore
SplineSet
570.5 643.5 m 128,-1,1
 648 598 648 598 693 520 c 128,-1,2
 738 442 738 442 738 350 c 0,3,4
 738 259 738 259 693 180.5 c 128,-1,5
 648 102 648 102 570 55.5 c 128,-1,6
 492 9 492 9 398 9 c 0,7,8
 305 9 305 9 227.5 55 c 128,-1,9
 150 101 150 101 105.5 179 c 128,-1,10
 61 257 61 257 61 348 c 256,11,12
 61 439 61 439 106 517.5 c 128,-1,13
 151 596 151 596 228.5 642.5 c 128,-1,14
 306 689 306 689 400 689 c 0,15,0
 493 689 493 689 570.5 643.5 c 128,-1,1
545.5 99.5 m 128,-1,17
 612 139 612 139 650.5 205.5 c 128,-1,18
 689 272 689 272 689 350 c 0,19,20
 689 429 689 429 651 495 c 128,-1,21
 613 561 613 561 546.5 599.5 c 128,-1,22
 480 638 480 638 400 638 c 0,23,24
 319 638 319 638 252.5 598.5 c 128,-1,25
 186 559 186 559 148 492.5 c 128,-1,26
 110 426 110 426 110 348 c 256,27,28
 110 270 110 270 148 204 c 128,-1,29
 186 138 186 138 252 99 c 128,-1,30
 318 60 318 60 398 60 c 0,31,16
 479 60 479 60 545.5 99.5 c 128,-1,17
525.5 344 m 128,-1,33
 506 315 506 315 470 302 c 1,34,-1
 551 185 l 1,35,-1
 494 185 l 1,36,-1
 425 293 l 1,37,38
 419 292 419 292 406 292 c 2,39,-1
 320 292 l 1,40,-1
 320 185 l 1,41,-1
 271 185 l 1,42,-1
 271 531 l 1,43,-1
 406 531 l 2,44,45
 473 531 473 531 509 500.5 c 128,-1,46
 545 470 545 470 545 414 c 0,47,32
 545 373 545 373 525.5 344 c 128,-1,33
406 334 m 2,48,49
 450 334 450 334 474 355 c 128,-1,50
 498 376 498 376 498 414 c 0,51,52
 498 451 498 451 474 470.5 c 128,-1,53
 450 490 450 490 406 490 c 2,54,-1
 320 490 l 1,55,-1
 320 334 l 1,56,-1
 406 334 l 2,48,49
EndSplineSet
EndChar

StartChar: degree
Encoding: 176 176 115
Width: 341
Flags: W
LayerCount: 2
Fore
SplineSet
364.5 773 m 128,-1,1
 399 739 399 739 399 693 c 256,2,3
 399 647 399 647 364.5 613.5 c 128,-1,4
 330 580 330 580 283 580 c 256,5,6
 236 580 236 580 202 613.5 c 128,-1,7
 168 647 168 647 168 693 c 256,8,9
 168 739 168 739 202 773 c 128,-1,10
 236 807 236 807 283 807 c 256,11,0
 330 807 330 807 364.5 773 c 128,-1,1
231.5 742.5 m 128,-1,13
 210 722 210 722 210 693 c 0,14,15
 210 665 210 665 231.5 644.5 c 128,-1,16
 253 624 253 624 283 624 c 256,17,18
 313 624 313 624 335 644.5 c 128,-1,19
 357 665 357 665 357 693 c 256,20,21
 357 721 357 721 335 742 c 128,-1,22
 313 763 313 763 283 763 c 256,23,12
 253 763 253 763 231.5 742.5 c 128,-1,13
EndSplineSet
EndChar

StartChar: plusminus
Encoding: 177 177 116
Width: 560
Flags: W
LayerCount: 2
Fore
SplineSet
197 178 m 1,0,-1
 233 353 l 1,1,-1
 53 353 l 1,2,-1
 66 419 l 1,3,-1
 246 419 l 1,4,-1
 282 593 l 1,5,-1
 344 593 l 1,6,-1
 309 419 l 1,7,-1
 488 419 l 1,8,-1
 475 353 l 1,9,-1
 295 353 l 1,10,-1
 260 178 l 1,11,-1
 197 178 l 1,0,-1
67 94 m 1,12,-1
 489 94 l 1,13,-1
 476 27 l 1,14,-1
 54 27 l 1,15,-1
 67 94 l 1,12,-1
EndSplineSet
EndChar

StartChar: uni00B5
Encoding: 181 181 120
Width: 682
Flags: W
LayerCount: 2
Fore
SplineSet
643 529 m 1,0,-1
 539 0 l 1,1,-1
 444 0 l 1,2,-1
 462 89 l 1,3,4
 395 -6 395 -6 271 -6 c 0,5,6
 193 -6 193 -6 144 28 c 1,7,-1
 100 -194 l 1,8,-1
 6 -194 l 1,9,-1
 82 189 l 2,10,11
 84 207 84 207 86 217 c 2,12,-1
 149 529 l 1,13,-1
 243 529 l 1,14,-1
 181 214 l 2,15,16
 179 198 179 198 179 190 c 0,17,18
 179 137 179 137 212 107.5 c 128,-1,19
 245 78 245 78 303 78 c 0,20,21
 373 79 373 79 424.5 124 c 128,-1,22
 476 169 476 169 492 244 c 2,23,-1
 549 529 l 1,24,-1
 643 529 l 1,0,-1
EndSplineSet
EndChar

StartChar: paragraph
Encoding: 182 182 121
Width: 602
Flags: W
LayerCount: 2
Fore
SplineSet
427 -110 m 1,0,-1
 354 -110 l 1,1,-1
 513 682 l 1,2,-1
 370 682 l 1,3,-1
 212 -110 l 1,4,-1
 140 -110 l 1,5,-1
 237 371 l 1,6,7
 225 370 225 370 204 370 c 0,8,9
 123 370 123 370 88.5 410.5 c 128,-1,10
 54 451 54 451 54 510 c 0,11,12
 54 535 54 535 58 552 c 0,13,14
 75 632 75 632 140 687 c 128,-1,15
 205 742 205 742 315 742 c 2,16,-1
 597 742 l 1,17,-1
 427 -110 l 1,0,-1
EndSplineSet
EndChar

StartChar: ordmasculine
Encoding: 186 186 125
Width: 408
Flags: W
LayerCount: 2
Fore
SplineSet
401.5 734 m 128,-1,1
 444 695 444 695 444 630 c 0,2,3
 444 580 444 580 420 540 c 128,-1,4
 396 500 396 500 353.5 478 c 128,-1,5
 311 456 311 456 259 456 c 0,6,7
 189 456 189 456 146.5 495 c 128,-1,8
 104 534 104 534 104 598 c 0,9,10
 104 649 104 649 128 688.5 c 128,-1,11
 152 728 152 728 194 750.5 c 128,-1,12
 236 773 236 773 289 773 c 0,13,0
 359 773 359 773 401.5 734 c 128,-1,1
205 684.5 m 128,-1,15
 173 652 173 652 173 601 c 0,16,17
 173 560 173 560 198 535 c 128,-1,18
 223 510 223 510 264 510 c 0,19,20
 312 510 312 510 343.5 542 c 128,-1,21
 375 574 375 574 375 625 c 0,22,23
 375 666 375 666 350 691.5 c 128,-1,24
 325 717 325 717 285 717 c 0,25,14
 237 717 237 717 205 684.5 c 128,-1,15
EndSplineSet
EndChar

StartChar: questiondown
Encoding: 191 191 130
Width: 433
Flags: W
LayerCount: 2
Fore
SplineSet
179 436.5 m 128,-1,1
 165 451 165 451 165 474 c 0,2,3
 165 500 165 500 182.5 518.5 c 128,-1,4
 200 537 200 537 225 537 c 0,5,6
 247 537 247 537 260.5 522 c 128,-1,7
 274 507 274 507 274 484 c 0,8,9
 274 458 274 458 257 440 c 128,-1,10
 240 422 240 422 215 422 c 0,11,0
 193 422 193 422 179 436.5 c 128,-1,1
308 -114.5 m 128,-1,13
 250 -164 250 -164 161 -164 c 0,14,15
 79 -164 79 -164 30.5 -122 c 128,-1,16
 -18 -80 -18 -80 -18 -9 c 0,17,18
 -18 30 -18 30 -4 61.5 c 128,-1,19
 10 93 10 93 30 116 c 128,-1,20
 50 139 50 139 85 173 c 0,21,22
 127 213 127 213 148 241 c 128,-1,23
 169 269 169 269 172 305 c 1,24,-1
 245 305 l 1,25,26
 240 251 240 251 215.5 215 c 128,-1,27
 191 179 191 179 147 136 c 0,28,29
 107 96 107 96 88.5 68.5 c 128,-1,30
 70 41 70 41 70 2 c 0,31,32
 70 -40 70 -40 96 -61.5 c 128,-1,33
 122 -83 122 -83 172 -83 c 0,34,35
 286 -83 286 -83 304 24 c 1,36,-1
 378 23 l 1,37,12
 366 -65 366 -65 308 -114.5 c 128,-1,13
EndSplineSet
Substitution2: "<3,3> Small Caps in Latin lookup 11 subtable" questiondown.sc
EndChar

StartChar: AE
Encoding: 198 198 137
Width: 1037
Flags: W
LayerCount: 2
Fore
SplineSet
1040 612 m 1,0,-1
 650 612 l 1,1,-1
 606 397 l 1,2,-1
 955 397 l 1,3,-1
 938 310 l 1,4,-1
 589 310 l 1,5,-1
 543 88 l 1,6,-1
 946 88 l 1,7,-1
 929 0 l 1,8,-1
 431 0 l 1,9,-1
 468 184 l 1,10,-1
 195 184 l 1,11,-1
 53 0 l 1,12,-1
 -50 0 l 1,13,-1
 500 700 l 1,14,-1
 1057 700 l 1,15,-1
 1040 612 l 1,0,-1
483 261 m 1,16,-1
 555 620 l 1,17,-1
 533 620 l 1,18,-1
 255 261 l 1,19,-1
 483 261 l 1,16,-1
EndSplineSet
EndChar

StartChar: Ccedilla
Encoding: 199 199 138
Width: 726
Flags: W
LayerCount: 2
Fore
SplineSet
537.5 26 m 128,-1,1
 469 -3 469 -3 401 -7 c 1,2,-1
 376 -51 l 1,3,4
 410 -56 410 -56 426.5 -74 c 128,-1,5
 443 -92 443 -92 443 -117 c 0,6,7
 443 -163 443 -163 405.5 -190 c 128,-1,8
 368 -217 368 -217 313 -217 c 0,9,10
 263 -217 263 -217 223 -196 c 1,11,-1
 256 -134 l 1,12,13
 282 -148 282 -148 312 -148 c 0,14,15
 335 -148 335 -148 350 -137.5 c 128,-1,16
 365 -127 365 -127 365 -114 c 0,17,18
 365 -103 365 -103 353 -95.5 c 128,-1,19
 341 -88 341 -88 319 -88 c 2,20,-1
 289 -88 l 1,21,-1
 331 -3 l 1,22,23
 251 9 251 9 189 54 c 128,-1,24
 127 99 127 99 92 167.5 c 128,-1,25
 57 236 57 236 57 317 c 0,26,27
 57 423 57 423 112 512.5 c 128,-1,28
 167 602 167 602 259.5 654 c 128,-1,29
 352 706 352 706 460 706 c 0,30,31
 533 706 533 706 598.5 678.5 c 128,-1,32
 664 651 664 651 710 601 c 1,33,-1
 646 532 l 1,34,35
 610 574 610 574 559.5 597.5 c 128,-1,36
 509 621 509 621 454 621 c 0,37,38
 374 621 374 621 305.5 581 c 128,-1,39
 237 541 237 541 196 473 c 128,-1,40
 155 405 155 405 155 325 c 0,41,42
 155 258 155 258 187 202.5 c 128,-1,43
 219 147 219 147 274.5 115 c 128,-1,44
 330 83 330 83 399 83 c 0,45,46
 454 83 454 83 509 105.5 c 128,-1,47
 564 128 564 128 609 167 c 1,48,-1
 661 104 l 1,49,0
 606 55 606 55 537.5 26 c 128,-1,1
EndSplineSet
EndChar

StartChar: multiply
Encoding: 215 215 154
Width: 545
Flags: W
LayerCount: 2
Fore
SplineSet
455 449 m 1,0,-1
 330 324 l 1,1,-1
 455 198 l 1,2,-1
 411 151 l 1,3,-1
 284 278 l 1,4,-1
 157 151 l 1,5,-1
 113 198 l 1,6,-1
 239 324 l 1,7,-1
 113 449 l 1,8,-1
 157 496 l 1,9,-1
 284 369 l 1,10,-1
 411 496 l 1,11,-1
 455 449 l 1,0,-1
EndSplineSet
EndChar

StartChar: Oslash
Encoding: 216 216 155
Width: 817
Flags: W
LayerCount: 2
Fore
SplineSet
763.5 528.5 m 128,-1,1
 797 461 797 461 797 382 c 0,2,3
 797 277 797 277 741.5 187.5 c 128,-1,4
 686 98 686 98 592.5 45.5 c 128,-1,5
 499 -7 499 -7 391 -7 c 0,6,7
 296 -7 296 -7 219 37 c 1,8,-1
 150 -55 l 1,9,-1
 68 -55 l 1,10,-1
 165 75 l 1,11,12
 114 120 114 120 85.5 183.5 c 128,-1,13
 57 247 57 247 57 319 c 0,14,15
 57 424 57 424 112.5 513 c 128,-1,16
 168 602 168 602 261 654 c 128,-1,17
 354 706 354 706 462 706 c 0,18,19
 544 706 544 706 613 674 c 1,20,-1
 673 755 l 1,21,-1
 756 755 l 1,22,-1
 670 640 l 1,23,0
 730 596 730 596 763.5 528.5 c 128,-1,1
173 231 m 128,-1,25
 191 187 191 187 223 153 c 1,26,-1
 556 599 l 1,27,28
 508 620 508 620 455 620 c 0,29,30
 377 620 377 620 307.5 580 c 128,-1,31
 238 540 238 540 196.5 472 c 128,-1,32
 155 404 155 404 155 325 c 0,33,24
 155 275 155 275 173 231 c 128,-1,25
675 481 m 128,-1,35
 653 530 653 530 613 564 c 1,36,-1
 275 113 l 1,37,38
 333 80 333 80 400 80 c 0,39,40
 478 80 478 80 546.5 120 c 128,-1,41
 615 160 615 160 656 228 c 128,-1,42
 697 296 697 296 697 376 c 0,43,34
 697 432 697 432 675 481 c 128,-1,35
EndSplineSet
EndChar

StartChar: Thorn
Encoding: 222 222 161
Width: 688
Flags: W
LayerCount: 2
Fore
SplineSet
609.5 549.5 m 128,-1,1
 675 501 675 501 675 411 c 0,2,3
 675 323 675 323 634 259.5 c 128,-1,4
 593 196 593 196 514 161.5 c 128,-1,5
 435 127 435 127 324 127 c 2,6,-1
 168 127 l 1,7,-1
 143 0 l 1,8,-1
 47 0 l 1,9,-1
 187 700 l 1,10,-1
 283 700 l 1,11,-1
 263 598 l 1,12,-1
 419 598 l 2,13,0
 544 598 544 598 609.5 549.5 c 128,-1,1
513.5 256 m 128,-1,15
 574 305 574 305 574 395 c 0,16,17
 574 518 574 518 400 518 c 2,18,-1
 247 518 l 1,19,-1
 184 207 l 1,20,-1
 336 207 l 2,21,14
 453 207 453 207 513.5 256 c 128,-1,15
EndSplineSet
EndChar

StartChar: germandbls
Encoding: 223 223 162
Width: 653
Flags: W
LayerCount: 2
Fore
SplineSet
524.5 725.5 m 128,-1,1
 570 705 570 705 595 668.5 c 128,-1,2
 620 632 620 632 620 585 c 0,3,4
 620 516 620 516 575.5 459.5 c 128,-1,5
 531 403 531 403 458 380 c 1,6,7
 519 369 519 369 554 331 c 128,-1,8
 589 293 589 293 589 238 c 0,9,10
 589 170 589 170 550.5 115.5 c 128,-1,11
 512 61 512 61 443.5 30.5 c 128,-1,12
 375 0 375 0 288 0 c 2,13,-1
 236 0 l 1,14,-1
 250 73 l 1,15,-1
 308 73 l 2,16,17
 361 73 361 73 404 93.5 c 128,-1,18
 447 114 447 114 472 149.5 c 128,-1,19
 497 185 497 185 497 229 c 0,20,21
 497 278 497 278 456 306 c 128,-1,22
 415 334 415 334 341 334 c 2,23,-1
 329 334 l 1,24,-1
 343 407 l 1,25,26
 396 407 396 407 438 428 c 128,-1,27
 480 449 480 449 503 486.5 c 128,-1,28
 526 524 526 524 526 572 c 0,29,30
 526 617 526 617 496 643.5 c 128,-1,31
 466 670 466 670 414 670 c 0,32,33
 344 670 344 670 292.5 622.5 c 128,-1,34
 241 575 241 575 225 495 c 2,35,-1
 126 0 l 1,36,-1
 33 0 l 1,37,-1
 130 489 l 2,38,39
 154 610 154 610 231 678 c 128,-1,40
 308 746 308 746 421 746 c 0,41,0
 479 746 479 746 524.5 725.5 c 128,-1,1
EndSplineSet
Substitution2: "<3,3> Small Caps in Latin lookup 11 subtable" germandbls.sc
EndChar

StartChar: ae
Encoding: 230 230 169
Width: 965
Flags: W
LayerCount: 2
Fore
SplineSet
69 36 m 128,-1,1
 22 76 22 76 22 142 c 0,2,3
 22 217 22 217 77.5 258.5 c 128,-1,4
 133 300 133 300 234 300 c 2,5,-1
 404 300 l 1,6,-1
 408 340 l 2,7,8
 412 397 412 397 380.5 426 c 128,-1,9
 349 455 349 455 284 455 c 0,10,11
 199 455 199 455 100 397 c 1,12,-1
 79 466 l 1,13,14
 196 532 196 532 304 532 c 0,15,16
 372 532 372 532 418.5 507.5 c 128,-1,17
 465 483 465 483 483 439 c 1,18,19
 521 484 521 484 574 508 c 128,-1,20
 627 532 627 532 689 532 c 0,21,22
 761 532 761 532 815 502 c 128,-1,23
 869 472 869 472 898.5 416.5 c 128,-1,24
 928 361 928 361 928 289 c 0,25,26
 928 269 928 269 925 246 c 1,27,-1
 494 246 l 1,28,-1
 493 226 l 2,29,30
 489 186 489 186 510.5 150.5 c 128,-1,31
 532 115 532 115 571.5 94 c 128,-1,32
 611 73 611 73 658 73 c 0,33,34
 704 73 704 73 747 90 c 128,-1,35
 790 107 790 107 822 139 c 1,36,-1
 871 84 l 1,37,38
 828 41 828 41 771.5 19 c 128,-1,39
 715 -3 715 -3 650 -3 c 0,40,41
 572 -3 572 -3 514.5 32.5 c 128,-1,42
 457 68 457 68 431 130 c 1,43,44
 357 -4 357 -4 194 -4 c 0,45,0
 116 -4 116 -4 69 36 c 128,-1,1
836 299 m 1,46,47
 840 374 840 374 799.5 418 c 128,-1,48
 759 462 759 462 689 462 c 0,49,50
 618 462 618 462 565.5 417 c 128,-1,51
 513 372 513 372 499 299 c 1,52,-1
 836 299 l 1,46,47
393 173 m 1,54,-1
 400 246 l 1,55,-1
 249 246 l 2,56,57
 185 247 185 247 148 221.5 c 128,-1,58
 111 196 111 196 111 149 c 0,59,60
 111 110 111 110 138.5 86.5 c 128,-1,61
 166 63 166 63 214 63 c 0,62,53
 333 63 333 63 393 173 c 1,54,-1
EndSplineSet
Substitution2: "<3,3> Small Caps in Latin lookup 11 subtable" ae.sc
EndChar

StartChar: ccedilla
Encoding: 231 231 170
Width: 582
Flags: W
LayerCount: 2
Fore
SplineSet
385 94.5 m 128,-1,1
 428 111 428 111 458 144 c 1,2,-1
 505 89 l 1,3,4
 425 1 425 1 289 -3 c 1,5,-1
 262 -51 l 1,6,7
 296 -56 296 -56 312.5 -74 c 128,-1,8
 329 -92 329 -92 329 -117 c 0,9,10
 329 -163 329 -163 291.5 -190 c 128,-1,11
 254 -217 254 -217 199 -217 c 0,12,13
 149 -217 149 -217 109 -196 c 1,14,-1
 142 -134 l 1,15,16
 168 -148 168 -148 198 -148 c 0,17,18
 221 -148 221 -148 236 -137.5 c 128,-1,19
 251 -127 251 -127 251 -114 c 0,20,21
 251 -103 251 -103 239 -95.5 c 128,-1,22
 227 -88 227 -88 205 -88 c 2,23,-1
 175 -88 l 1,24,-1
 220 3 l 1,25,26
 137 20 137 20 88.5 83 c 128,-1,27
 40 146 40 146 40 237 c 0,28,29
 40 322 40 322 78 389.5 c 128,-1,30
 116 457 116 457 183 494.5 c 128,-1,31
 250 532 250 532 333 532 c 0,32,33
 399 532 399 532 450 511.5 c 128,-1,34
 501 491 501 491 534 452 c 1,35,-1
 477 388 l 1,36,37
 420 450 420 450 328 450 c 0,38,39
 273 450 273 450 228.5 423.5 c 128,-1,40
 184 397 184 397 158.5 350 c 128,-1,41
 133 303 133 303 133 244 c 0,42,43
 133 170 133 170 177 124 c 128,-1,44
 221 78 221 78 291 78 c 0,45,0
 342 78 342 78 385 94.5 c 128,-1,1
EndSplineSet
Substitution2: "<3,3> Small Caps in Latin lookup 11 subtable" ccedilla.sc
EndChar

StartChar: eth
Encoding: 240 240 179
Width: 588
Flags: W
LayerCount: 2
Fore
SplineSet
429 607 m 1,0,1
 487 539 487 539 518 460 c 128,-1,2
 549 381 549 381 549 300 c 0,3,4
 549 209 549 209 513.5 140.5 c 128,-1,5
 478 72 478 72 413.5 34.5 c 128,-1,6
 349 -3 349 -3 263 -3 c 0,7,8
 158 -3 158 -3 96 51.5 c 128,-1,9
 34 106 34 106 34 199 c 0,10,11
 34 271 34 271 65 326.5 c 128,-1,12
 96 382 96 382 152 412.5 c 128,-1,13
 208 443 208 443 280 443 c 0,14,15
 343 443 343 443 394 416 c 128,-1,16
 445 389 445 389 464 346 c 1,17,18
 455 404 455 404 426 462.5 c 128,-1,19
 397 521 397 521 351 573 c 1,20,-1
 163 494 l 1,21,-1
 144 544 l 1,22,-1
 311 615 l 1,23,24
 255 668 255 668 190 705 c 1,25,-1
 256 747 l 1,26,27
 331 705 331 705 390 649 c 1,28,-1
 539 712 l 1,29,-1
 560 662 l 1,30,-1
 429 607 l 1,0,1
360 101 m 128,-1,32
 400 122 400 122 422.5 160 c 128,-1,33
 445 198 445 198 445 246 c 0,34,35
 445 305 445 305 405.5 339 c 128,-1,36
 366 373 366 373 299 373 c 0,37,38
 249 373 249 373 209 351.5 c 128,-1,39
 169 330 169 330 147 292 c 128,-1,40
 125 254 125 254 125 206 c 0,41,42
 125 148 125 148 163.5 114 c 128,-1,43
 202 80 202 80 268 80 c 0,44,31
 320 80 320 80 360 101 c 128,-1,32
EndSplineSet
Substitution2: "<3,3> Small Caps in Latin lookup 11 subtable" eth.sc
EndChar

StartChar: divide
Encoding: 247 247 186
Width: 494
Flags: W
LayerCount: 2
Fore
SplineSet
326.5 548 m 128,-1,1
 339 535 339 535 339 515 c 0,2,3
 339 488 339 488 319 468.5 c 128,-1,4
 299 449 299 449 273 449 c 0,5,6
 254 449 254 449 241.5 462.5 c 128,-1,7
 229 476 229 476 229 496 c 0,8,9
 229 523 229 523 248.5 542 c 128,-1,10
 268 561 268 561 294 561 c 0,11,0
 314 561 314 561 326.5 548 c 128,-1,1
476 357 m 1,12,-1
 463 290 l 1,13,-1
 41 290 l 1,14,-1
 54 357 l 1,15,-1
 476 357 l 1,12,-1
256.5 194 m 128,-1,17
 269 181 269 181 269 161 c 0,18,19
 269 134 269 134 249 114.5 c 128,-1,20
 229 95 229 95 203 95 c 0,21,22
 184 95 184 95 171.5 108.5 c 128,-1,23
 159 122 159 122 159 142 c 0,24,25
 159 169 159 169 178.5 188 c 128,-1,26
 198 207 198 207 224 207 c 0,27,16
 244 207 244 207 256.5 194 c 128,-1,17
EndSplineSet
EndChar

StartChar: oslash
Encoding: 248 248 187
Width: 627
Flags: W
LayerCount: 2
Fore
SplineSet
564 401 m 128,-1,1
 587 352 587 352 587 291 c 0,2,3
 587 206 587 206 547.5 139 c 128,-1,4
 508 72 508 72 439.5 34.5 c 128,-1,5
 371 -3 371 -3 286 -3 c 0,6,7
 225 -3 225 -3 173 19 c 1,8,-1
 91 -98 l 1,9,-1
 22 -98 l 1,10,-1
 125 48 l 1,11,12
 84 81 84 81 62 130 c 128,-1,13
 40 179 40 179 40 239 c 0,14,15
 40 323 40 323 79 390 c 128,-1,16
 118 457 118 457 186.5 494.5 c 128,-1,17
 255 532 255 532 340 532 c 0,18,19
 401 532 401 532 449 511 c 1,20,-1
 531 627 l 1,21,-1
 599 627 l 1,22,-1
 498 483 l 1,23,0
 541 450 541 450 564 401 c 128,-1,1
140.5 173 m 128,-1,25
 152 141 152 141 174 118 c 1,26,-1
 402 443 l 1,27,28
 371 457 371 457 333 457 c 0,29,30
 276 457 276 457 229.5 429.5 c 128,-1,31
 183 402 183 402 156 353 c 128,-1,32
 129 304 129 304 129 243 c 0,33,24
 129 205 129 205 140.5 173 c 128,-1,25
396.5 97.5 m 128,-1,35
 443 125 443 125 470 174 c 128,-1,36
 497 223 497 223 497 285 c 0,37,38
 497 324 497 324 484 356.5 c 128,-1,39
 471 389 471 389 448 412 c 1,40,-1
 219 85 l 1,41,42
 252 70 252 70 293 70 c 0,43,34
 350 70 350 70 396.5 97.5 c 128,-1,35
EndSplineSet
Substitution2: "<3,3> Small Caps in Latin lookup 11 subtable" oslash.sc
EndChar

StartChar: thorn
Encoding: 254 254 193
Width: 683
Flags: W
LayerCount: 2
Fore
SplineSet
537.5 503.5 m 128,-1,1
 588 474 588 474 616 420 c 128,-1,2
 644 366 644 366 644 296 c 0,3,4
 644 213 644 213 606.5 144 c 128,-1,5
 569 75 569 75 503 35 c 128,-1,6
 437 -5 437 -5 357 -5 c 0,7,8
 283 -5 283 -5 232.5 29 c 128,-1,9
 182 63 182 63 162 125 c 1,10,-1
 97 -194 l 1,11,-1
 4 -194 l 1,12,-1
 191 742 l 1,13,-1
 284 742 l 1,14,-1
 223 442 l 1,15,16
 260 485 260 485 311 509 c 128,-1,17
 362 533 362 533 421 533 c 0,18,0
 487 533 487 533 537.5 503.5 c 128,-1,1
289 427.5 m 128,-1,20
 243 399 243 399 216 350 c 128,-1,21
 189 301 189 301 189 242 c 0,22,23
 189 168 189 168 232.5 123 c 128,-1,24
 276 78 276 78 346 78 c 0,25,26
 402 78 402 78 448.5 107 c 128,-1,27
 495 136 495 136 522.5 185 c 128,-1,28
 550 234 550 234 550 292 c 0,29,30
 550 365 550 365 505.5 410.5 c 128,-1,31
 461 456 461 456 390 456 c 0,32,19
 335 456 335 456 289 427.5 c 128,-1,20
EndSplineSet
Substitution2: "<3,3> Small Caps in Latin lookup 11 subtable" thorn.sc
EndChar

StartChar: Aogonek
Encoding: 260 260 199
Width: 726
Flags: W
LayerCount: 2
Fore
SplineSet
620 -135 m 1,1,-1
 631 -197 l 1,2,3
 589 -216 589 -216 546 -216 c 0,4,5
 507 -216 507 -216 484.5 -198 c 128,-1,6
 462 -180 462 -180 462 -146 c 0,7,8
 462 -68 462 -68 567 2 c 1,9,-1
 522 171 l 1,10,-1
 152 171 l 1,11,-1
 50 0 l 1,12,-1
 -50 0 l 1,13,-1
 377 700 l 1,14,-1
 476 700 l 1,15,-1
 671 0 l 1,16,17
 606 -42 606 -42 579.5 -68.5 c 128,-1,18
 553 -95 553 -95 553 -120 c 0,19,20
 553 -132 553 -132 560 -138.5 c 128,-1,21
 567 -145 567 -145 579 -145 c 0,22,0
 600 -145 600 -145 620 -135 c 1,1,-1
203 257 m 1,23,-1
 499 257 l 1,24,-1
 407 599 l 1,25,-1
 203 257 l 1,23,-1
EndSplineSet
EndChar

StartChar: aogonek
Encoding: 261 261 200
Width: 678
Flags: W
LayerCount: 2
Fore
SplineSet
443.5 -68.5 m 128,-1,1
 417 -95 417 -95 417 -120 c 0,2,3
 417 -132 417 -132 424 -138.5 c 128,-1,4
 431 -145 431 -145 443 -145 c 0,5,6
 464 -145 464 -145 484 -135 c 1,7,-1
 495 -197 l 1,8,9
 453 -216 453 -216 410 -216 c 0,10,11
 371 -216 371 -216 348.5 -198 c 128,-1,12
 326 -180 326 -180 326 -146 c 0,13,14
 326 -64 326 -64 444 11 c 1,15,-1
 460 86 l 1,16,17
 423 43 423 43 372 19 c 128,-1,18
 321 -5 321 -5 262 -5 c 0,19,20
 196 -5 196 -5 145.5 25 c 128,-1,21
 95 55 95 55 67 108.5 c 128,-1,22
 39 162 39 162 39 232 c 0,23,24
 39 316 39 316 76.5 385 c 128,-1,25
 114 454 114 454 180 493.5 c 128,-1,26
 246 533 246 533 326 533 c 0,27,28
 400 533 400 533 450.5 499 c 128,-1,29
 501 465 501 465 521 403 c 1,30,-1
 547 529 l 1,31,-1
 640 529 l 1,32,-1
 535 0 l 1,33,0
 470 -42 470 -42 443.5 -68.5 c 128,-1,1
394 101.5 m 128,-1,35
 440 130 440 130 467 179 c 128,-1,36
 494 228 494 228 494 287 c 0,37,38
 494 361 494 361 450.5 406 c 128,-1,39
 407 451 407 451 337 451 c 0,40,41
 281 451 281 451 234.5 422 c 128,-1,42
 188 393 188 393 160.5 344 c 128,-1,43
 133 295 133 295 133 237 c 0,44,45
 133 164 133 164 177.5 118.5 c 128,-1,46
 222 73 222 73 293 73 c 0,47,34
 348 73 348 73 394 101.5 c 128,-1,35
EndSplineSet
Substitution2: "<3,3> Small Caps in Latin lookup 11 subtable" aogonek.sc
EndChar

StartChar: Dcroat
Encoding: 272 272 211
Width: 785
Flags: W
LayerCount: 2
Fore
SplineSet
618 662 m 128,-1,1
 689 624 689 624 728 556 c 128,-1,2
 767 488 767 488 767 403 c 0,3,4
 767 292 767 292 710 199.5 c 128,-1,5
 653 107 653 107 556 53.5 c 128,-1,6
 459 0 459 0 346 0 c 2,7,-1
 48 0 l 1,8,-1
 112 321 l 1,9,-1
 38 321 l 1,10,-1
 49 379 l 1,11,-1
 123 379 l 1,12,-1
 187 700 l 1,13,-1
 455 700 l 2,14,0
 547 700 547 700 618 662 c 128,-1,1
640 505 m 128,-1,16
 611 555 611 555 559 583.5 c 128,-1,17
 507 612 507 612 441 612 c 2,18,-1
 266 612 l 1,19,-1
 220 379 l 1,20,-1
 415 379 l 1,21,-1
 404 321 l 1,22,-1
 208 321 l 1,23,-1
 162 88 l 1,24,-1
 364 88 l 2,25,26
 444 88 444 88 514 128 c 128,-1,27
 584 168 584 168 626.5 237.5 c 128,-1,28
 669 307 669 307 669 391 c 0,29,15
 669 455 669 455 640 505 c 128,-1,16
EndSplineSet
EndChar

StartChar: dcroat
Encoding: 273 273 212
Width: 677
Flags: W
LayerCount: 2
Fore
SplineSet
727 595 m 1,0,-1
 654 595 l 1,1,-1
 536 0 l 1,2,-1
 443 0 l 1,3,-1
 461 83 l 1,4,5
 423 41 423 41 372.5 18 c 128,-1,6
 322 -5 322 -5 263 -5 c 0,7,8
 197 -5 197 -5 146 24 c 128,-1,9
 95 53 95 53 67 106 c 128,-1,10
 39 159 39 159 39 227 c 0,11,12
 39 308 39 308 76.5 374.5 c 128,-1,13
 114 441 114 441 179.5 479 c 128,-1,14
 245 517 245 517 325 517 c 0,15,16
 399 517 399 517 449.5 485 c 128,-1,17
 500 453 500 453 520 393 c 1,18,-1
 561 595 l 1,19,-1
 347 595 l 1,20,-1
 358 653 l 1,21,-1
 572 653 l 1,22,-1
 590 742 l 1,23,-1
 683 742 l 1,24,-1
 665 653 l 1,25,-1
 738 653 l 1,26,-1
 727 595 l 1,0,-1
395 100.5 m 128,-1,28
 441 128 441 128 467.5 174.5 c 128,-1,29
 494 221 494 221 494 277 c 0,30,31
 494 348 494 348 450.5 391 c 128,-1,32
 407 434 407 434 336 434 c 0,33,34
 280 434 280 434 233.5 406.5 c 128,-1,35
 187 379 187 379 160 332.5 c 128,-1,36
 133 286 133 286 133 230 c 0,37,38
 133 160 133 160 177.5 116.5 c 128,-1,39
 222 73 222 73 293 73 c 0,40,27
 349 73 349 73 395 100.5 c 128,-1,28
EndSplineSet
Substitution2: "<3,3> Small Caps in Latin lookup 11 subtable" dcroat.sc
EndChar

StartChar: Eogonek
Encoding: 280 280 219
Width: 653
Flags: W
LayerCount: 2
Fore
SplineSet
265 612 m 1,0,-1
 222 397 l 1,1,-1
 571 397 l 1,2,-1
 554 310 l 1,3,-1
 205 310 l 1,4,-1
 161 88 l 1,5,-1
 562 88 l 1,6,-1
 546 0 l 1,7,8
 481 -42 481 -42 454.5 -68.5 c 128,-1,9
 428 -95 428 -95 428 -120 c 0,10,11
 428 -132 428 -132 435 -138.5 c 128,-1,12
 442 -145 442 -145 454 -145 c 0,13,14
 475 -145 475 -145 495 -135 c 1,15,-1
 506 -197 l 1,16,17
 464 -216 464 -216 421 -216 c 0,18,19
 382 -216 382 -216 359.5 -198 c 128,-1,20
 337 -180 337 -180 337 -146 c 0,21,22
 337 -70 337 -70 439 0 c 1,23,-1
 47 0 l 1,24,-1
 187 700 l 1,25,-1
 672 700 l 1,26,-1
 656 612 l 1,27,-1
 265 612 l 1,0,-1
EndSplineSet
EndChar

StartChar: eogonek
Encoding: 281 281 220
Width: 602
Flags: W
LayerCount: 2
Fore
SplineSet
505.5 470 m 128,-1,1
 567 408 567 408 567 304 c 0,2,3
 567 270 567 270 559 228 c 1,4,-1
 132 228 l 1,5,6
 135 156 135 156 179.5 114 c 128,-1,7
 224 72 224 72 299 72 c 0,8,9
 343 72 343 72 383 86 c 128,-1,10
 423 100 423 100 454 126 c 1,11,-1
 497 65 l 1,12,13
 478 48 478 48 455 35 c 0,14,15
 407 -2 407 -2 375.5 -45 c 128,-1,16
 344 -88 344 -88 344 -118 c 0,17,18
 344 -130 344 -130 351 -137.5 c 128,-1,19
 358 -145 358 -145 370 -145 c 0,20,21
 390 -145 390 -145 410 -135 c 1,22,-1
 422 -197 l 1,23,24
 379 -216 379 -216 336 -216 c 0,25,26
 297 -216 297 -216 275.5 -195.5 c 128,-1,27
 254 -175 254 -175 254 -138 c 0,28,29
 254 -73 254 -73 327 -4 c 1,30,31
 317 -5 317 -5 296 -5 c 0,32,33
 219 -5 219 -5 161 25 c 128,-1,34
 103 55 103 55 71.5 110 c 128,-1,35
 40 165 40 165 40 237 c 0,36,37
 40 320 40 320 79 387.5 c 128,-1,38
 118 455 118 455 186 493.5 c 128,-1,39
 254 532 254 532 337 532 c 0,40,0
 444 532 444 532 505.5 470 c 128,-1,1
446 414.5 m 128,-1,42
 408 455 408 455 337 455 c 0,43,44
 267 455 267 455 213 412 c 128,-1,45
 159 369 159 369 140 300 c 1,46,-1
 483 300 l 1,47,41
 484 374 484 374 446 414.5 c 128,-1,42
EndSplineSet
Substitution2: "<3,3> Small Caps in Latin lookup 11 subtable" eogonek.sc
EndChar

StartChar: Hbar
Encoding: 294 294 233
Width: 844
Flags: W
LayerCount: 2
Fore
SplineSet
869 583 m 1,0,-1
 858 525 l 1,1,-1
 771 525 l 1,2,-1
 666 0 l 1,3,-1
 569 0 l 1,4,-1
 629 301 l 1,5,-1
 229 301 l 1,6,-1
 169 0 l 1,7,-1
 73 0 l 1,8,-1
 178 525 l 1,9,-1
 89 525 l 1,10,-1
 100 583 l 1,11,-1
 190 583 l 1,12,-1
 213 700 l 1,13,-1
 309 700 l 1,14,-1
 286 583 l 1,15,-1
 686 583 l 1,16,-1
 709 700 l 1,17,-1
 806 700 l 1,18,-1
 783 583 l 1,19,-1
 869 583 l 1,0,-1
647 388 m 1,20,-1
 674 525 l 1,21,-1
 274 525 l 1,22,-1
 247 388 l 1,23,-1
 647 388 l 1,20,-1
EndSplineSet
EndChar

StartChar: hbar
Encoding: 295 295 234
Width: 665
Flags: W
LayerCount: 2
Fore
SplineSet
555.5 474 m 128,-1,1
 606 431 606 431 606 354 c 0,2,3
 606 329 606 329 600 302 c 2,4,-1
 539 0 l 1,5,-1
 445 0 l 1,6,-1
 503 291 l 2,7,8
 507 307 507 307 507 326 c 0,9,10
 507 376 507 376 473.5 404.5 c 128,-1,11
 440 433 440 433 382 433 c 0,12,13
 312 432 312 432 260.5 389 c 128,-1,14
 209 346 209 346 194 274 c 2,15,-1
 139 0 l 1,16,-1
 45 0 l 1,17,-1
 162 595 l 1,18,-1
 90 595 l 1,19,-1
 101 653 l 1,20,-1
 173 653 l 1,21,-1
 191 742 l 1,22,-1
 286 742 l 1,23,-1
 268 653 l 1,24,-1
 476 653 l 1,25,-1
 465 595 l 1,26,-1
 257 595 l 1,27,-1
 223 426 l 1,28,29
 291 517 291 517 414 517 c 0,30,0
 505 517 505 517 555.5 474 c 128,-1,1
EndSplineSet
Substitution2: "<3,3> Small Caps in Latin lookup 11 subtable" hbar.sc
EndChar

StartChar: Iogonek
Encoding: 302 302 241
Width: 296
Flags: W
LayerCount: 2
Fore
SplineSet
51.5 -68.5 m 128,-1,1
 25 -95 25 -95 25 -120 c 0,2,3
 25 -132 25 -132 32 -138.5 c 128,-1,4
 39 -145 39 -145 51 -145 c 0,5,6
 72 -145 72 -145 92 -135 c 1,7,-1
 103 -197 l 1,8,9
 61 -216 61 -216 18 -216 c 0,10,11
 -21 -216 -21 -216 -43.5 -198 c 128,-1,12
 -66 -180 -66 -180 -66 -146 c 0,13,14
 -66 -65 -66 -65 49 8 c 1,15,-1
 187 700 l 1,16,-1
 283 700 l 1,17,-1
 143 0 l 1,18,0
 78 -42 78 -42 51.5 -68.5 c 128,-1,1
EndSplineSet
EndChar

StartChar: iogonek
Encoding: 303 303 242
Width: 274
Flags: W
LayerCount: 2
Fore
SplineSet
266 726.5 m 128,-1,1
 279 713 279 713 279 691 c 0,2,3
 279 662 279 662 257.5 641 c 128,-1,4
 236 620 236 620 208 620 c 0,5,6
 187 620 187 620 174 634.5 c 128,-1,7
 161 649 161 649 161 670 c 0,8,9
 161 699 161 699 182 719.5 c 128,-1,10
 203 740 203 740 231 740 c 0,11,0
 253 740 253 740 266 726.5 c 128,-1,1
143 529 m 1,12,-1
 236 529 l 1,13,-1
 131 0 l 1,14,15
 66 -42 66 -42 39.5 -68.5 c 128,-1,16
 13 -95 13 -95 13 -120 c 0,17,18
 13 -132 13 -132 20 -138.5 c 128,-1,19
 27 -145 27 -145 39 -145 c 0,20,21
 60 -145 60 -145 80 -135 c 1,22,-1
 91 -197 l 1,23,24
 49 -216 49 -216 6 -216 c 0,25,26
 -33 -216 -33 -216 -55.5 -198 c 128,-1,27
 -78 -180 -78 -180 -78 -146 c 0,28,29
 -78 -64 -78 -64 40 10 c 1,30,-1
 143 529 l 1,12,-1
EndSplineSet
Substitution2: "<3,3> Small Caps in Latin lookup 11 subtable" iogonek.sc
EndChar

StartChar: dotlessi
Encoding: 305 305 244
Width: 274
Flags: W
LayerCount: 2
Fore
SplineSet
236 529 m 1,0,-1
 131 0 l 1,1,-1
 38 0 l 1,2,-1
 143 529 l 1,3,-1
 236 529 l 1,0,-1
EndSplineSet
Substitution2: "<3,3> Small Caps in Latin lookup 11 subtable" dotlessi.sc
EndChar

StartChar: kgreenlandic
Encoding: 312 312 251
Width: 592
Flags: W
LayerCount: 2
Fore
SplineSet
615 529 m 1,0,-1
 366 316 l 1,1,-1
 521 0 l 1,2,-1
 408 0 l 1,3,-1
 293 252 l 1,4,-1
 159 138 l 1,5,-1
 132 0 l 1,6,-1
 38 0 l 1,7,-1
 143 529 l 1,8,-1
 237 529 l 1,9,-1
 186 271 l 1,10,-1
 492 529 l 1,11,-1
 615 529 l 1,0,-1
EndSplineSet
Substitution2: "<3,3> Small Caps in Latin lookup 11 subtable" kgreenlandic.sc
EndChar

StartChar: Lslash
Encoding: 321 321 260
Width: 549
Flags: W
LayerCount: 2
Fore
SplineSet
185 88 m 1,0,-1
 490 88 l 1,1,-1
 473 0 l 1,2,-1
 72 0 l 1,3,-1
 134 308 l 1,4,-1
 37 259 l 1,5,-1
 49 326 l 1,6,-1
 147 375 l 1,7,-1
 212 700 l 1,8,-1
 308 700 l 1,9,-1
 253 429 l 1,10,-1
 390 498 l 1,11,-1
 377 430 l 1,12,-1
 240 361 l 1,13,-1
 185 88 l 1,0,-1
EndSplineSet
EndChar

StartChar: lslash
Encoding: 322 322 261
Width: 362
Flags: W
LayerCount: 2
Fore
SplineSet
387 498 m 1,0,-1
 374 430 l 1,1,-1
 256 371 l 1,2,-1
 182 0 l 1,3,-1
 88 0 l 1,4,-1
 151 318 l 1,5,-1
 34 259 l 1,6,-1
 47 326 l 1,7,-1
 165 386 l 1,8,-1
 236 742 l 1,9,-1
 330 742 l 1,10,-1
 269 439 l 1,11,-1
 387 498 l 1,0,-1
EndSplineSet
Substitution2: "<3,3> Small Caps in Latin lookup 11 subtable" lslash.sc
EndChar

StartChar: Eng
Encoding: 330 330 269
Width: 794
Flags: W
LayerCount: 2
Fore
SplineSet
640 0 m 2,0,1
 620 -93 620 -93 554 -147.5 c 128,-1,2
 488 -202 488 -202 392 -202 c 0,3,4
 277 -202 277 -202 217 -119 c 1,5,-1
 279 -45 l 1,6,7
 304 -76 304 -76 338 -92 c 128,-1,8
 372 -108 372 -108 408 -108 c 0,9,10
 457 -108 457 -108 492 -80 c 128,-1,11
 527 -52 527 -52 542 1 c 1,12,-1
 253 540 l 1,13,-1
 143 0 l 1,14,-1
 47 0 l 1,15,-1
 187 700 l 1,16,-1
 284 700 l 1,17,-1
 575 159 l 1,18,-1
 685 700 l 1,19,-1
 780 700 l 1,20,-1
 640 0 l 2,0,1
EndSplineSet
EndChar

StartChar: eng
Encoding: 331 331 270
Width: 659
Flags: W
LayerCount: 2
Fore
SplineSet
560.5 492.5 m 128,-1,1
 603 453 603 453 603 382 c 0,2,3
 603 356 603 356 597 327 c 2,4,-1
 528 -18 l 2,5,6
 511 -106 511 -106 455.5 -152 c 128,-1,7
 400 -198 400 -198 332 -198 c 0,8,9
 272 -198 272 -198 230 -162 c 1,10,-1
 276 -88 l 1,11,12
 306 -115 306 -115 344 -115 c 0,13,14
 376 -115 376 -115 399.5 -94 c 128,-1,15
 423 -73 423 -73 432 -30 c 2,16,-1
 499 302 l 2,17,18
 503 321 503 321 503 340 c 0,19,20
 503 390 503 390 473 417 c 128,-1,21
 443 444 443 444 387 444 c 0,22,23
 314 444 314 444 259.5 399 c 128,-1,24
 205 354 205 354 189 283 c 2,25,-1
 132 0 l 1,26,-1
 38 0 l 1,27,-1
 143 529 l 1,28,-1
 237 529 l 1,29,-1
 215 420 l 1,30,31
 293 532 293 532 439 532 c 0,32,0
 518 532 518 532 560.5 492.5 c 128,-1,1
EndSplineSet
Substitution2: "<3,3> Small Caps in Latin lookup 11 subtable" eng.sc
EndChar

StartChar: OE
Encoding: 338 338 277
Width: 1100
Flags: W
LayerCount: 2
Fore
SplineSet
713 612 m 1,0,-1
 670 397 l 1,1,-1
 1017 397 l 1,2,-1
 1001 310 l 1,3,-1
 652 310 l 1,4,-1
 607 88 l 1,5,-1
 1009 88 l 1,6,-1
 992 0 l 1,7,-1
 392 0 l 2,8,9
 298 0 298 0 221 43 c 128,-1,10
 144 86 144 86 100.5 161 c 128,-1,11
 57 236 57 236 57 327 c 0,12,13
 57 428 57 428 112 513.5 c 128,-1,14
 167 599 167 599 260.5 649.5 c 128,-1,15
 354 700 354 700 462 700 c 2,16,-1
 1120 700 l 1,17,-1
 1103 612 l 1,18,-1
 713 612 l 1,0,-1
511 87 m 1,19,-1
 617 613 l 1,20,-1
 455 613 l 2,21,22
 375 613 375 613 306 575 c 128,-1,23
 237 537 237 537 196 472 c 128,-1,24
 155 407 155 407 155 330 c 0,25,26
 155 262 155 262 187 206.5 c 128,-1,27
 219 151 219 151 275 119 c 128,-1,28
 331 87 331 87 400 87 c 2,29,-1
 511 87 l 1,19,-1
EndSplineSet
EndChar

StartChar: oe
Encoding: 339 339 278
Width: 1052
Flags: W
LayerCount: 2
Fore
SplineSet
578 245 m 1,0,1
 578 167 578 167 623.5 120 c 128,-1,2
 669 73 669 73 744 73 c 0,3,4
 790 73 790 73 832.5 89.5 c 128,-1,5
 875 106 875 106 909 138 c 1,6,-1
 955 85 l 1,7,8
 912 43 912 43 854 20 c 128,-1,9
 796 -3 796 -3 730 -3 c 0,10,11
 655 -3 655 -3 601.5 31 c 128,-1,12
 548 65 548 65 523 125 c 1,13,14
 486 65 486 65 425 31 c 128,-1,15
 364 -3 364 -3 287 -3 c 0,16,17
 213 -3 213 -3 157 27 c 128,-1,18
 101 57 101 57 70.5 111.5 c 128,-1,19
 40 166 40 166 40 237 c 0,20,21
 40 322 40 322 79 389 c 128,-1,22
 118 456 118 456 186 494 c 128,-1,23
 254 532 254 532 339 532 c 0,24,25
 415 532 415 532 469 498 c 128,-1,26
 523 464 523 464 548 403 c 1,27,28
 584 464 584 464 644.5 498 c 128,-1,29
 705 532 705 532 780 532 c 0,30,31
 852 532 852 532 905 502 c 128,-1,32
 958 472 958 472 986.5 418 c 128,-1,33
 1015 364 1015 364 1015 292 c 0,34,35
 1015 269 1015 269 1012 245 c 1,36,-1
 578 245 l 1,0,1
651 416 m 128,-1,38
 598 370 598 370 583 297 c 1,39,-1
 923 297 l 1,40,41
 927 371 927 371 886.5 416.5 c 128,-1,42
 846 462 846 462 775 462 c 256,43,37
 704 462 704 462 651 416 c 128,-1,38
448 405.5 m 128,-1,45
 404 451 404 451 332 451 c 0,46,47
 276 451 276 451 231.5 424 c 128,-1,48
 187 397 187 397 161 349 c 128,-1,49
 135 301 135 301 135 240 c 0,50,51
 135 167 135 167 178.5 121.5 c 128,-1,52
 222 76 222 76 294 76 c 0,53,54
 349 76 349 76 394.5 103 c 128,-1,55
 440 130 440 130 466 178 c 128,-1,56
 492 226 492 226 492 287 c 0,57,44
 492 360 492 360 448 405.5 c 128,-1,45
EndSplineSet
Substitution2: "<3,3> Small Caps in Latin lookup 11 subtable" oe.sc
EndChar

StartChar: Scedilla
Encoding: 350 350 289
Width: 609
Flags: W
LayerCount: 2
Fore
SplineSet
211 468.5 m 128,-1,1
 230 445 230 445 261 431 c 128,-1,2
 292 417 292 417 345 400 c 0,3,4
 408 379 408 379 447 360 c 128,-1,5
 486 341 486 341 513.5 306 c 128,-1,6
 541 271 541 271 541 216 c 0,7,8
 541 200 541 200 540 191 c 0,9,10
 533 107 533 107 464.5 54 c 128,-1,11
 396 1 396 1 291 -6 c 1,12,-1
 265 -51 l 1,13,14
 299 -56 299 -56 315.5 -74 c 128,-1,15
 332 -92 332 -92 332 -117 c 0,16,17
 332 -163 332 -163 294.5 -190 c 128,-1,18
 257 -217 257 -217 202 -217 c 0,19,20
 152 -217 152 -217 112 -196 c 1,21,-1
 145 -134 l 1,22,23
 171 -148 171 -148 201 -148 c 0,24,25
 224 -148 224 -148 239 -137.5 c 128,-1,26
 254 -127 254 -127 254 -114 c 0,27,28
 254 -103 254 -103 242 -95.5 c 128,-1,29
 230 -88 230 -88 208 -88 c 2,30,-1
 178 -88 l 1,31,-1
 220 -5 l 1,32,33
 154 3 154 3 96 31.5 c 128,-1,34
 38 60 38 60 -3 103 c 1,35,-1
 48 186 l 1,36,37
 93 138 93 138 153.5 111.5 c 128,-1,38
 214 85 214 85 273 85 c 0,39,40
 347 85 347 85 390.5 115.5 c 128,-1,41
 434 146 434 146 434 198 c 0,42,43
 434 231 434 231 414 253 c 128,-1,44
 394 275 394 275 364 288 c 128,-1,45
 334 301 334 301 282 317 c 0,46,47
 220 336 220 336 180.5 354.5 c 128,-1,48
 141 373 141 373 113.5 408 c 128,-1,49
 86 443 86 443 86 498 c 0,50,51
 86 561 86 561 119.5 608.5 c 128,-1,52
 153 656 153 656 214 682.5 c 128,-1,53
 275 709 275 709 354 709 c 0,54,55
 416 709 416 709 475.5 690.5 c 128,-1,56
 535 672 535 672 580 640 c 1,57,-1
 531 555 l 1,58,59
 486 586 486 586 435 601 c 128,-1,60
 384 616 384 616 339 616 c 0,61,62
 277 616 277 616 238.5 593 c 128,-1,63
 200 570 200 570 196 529 c 0,64,0
 192 492 192 492 211 468.5 c 128,-1,1
EndSplineSet
EndChar

StartChar: scedilla
Encoding: 351 351 290
Width: 473
Flags: W
LayerCount: 2
Fore
SplineSet
193.5 438 m 128,-1,1
 167 419 167 419 167 388 c 0,2,3
 167 360 167 360 192 343 c 128,-1,4
 217 326 217 326 267 306 c 0,5,6
 313 287 313 287 343 270.5 c 128,-1,7
 373 254 373 254 394 225.5 c 128,-1,8
 415 197 415 197 415 155 c 0,9,10
 415 84 415 84 361.5 40 c 128,-1,11
 308 -4 308 -4 224 -6 c 1,12,-1
 198 -51 l 1,13,14
 232 -56 232 -56 248.5 -74 c 128,-1,15
 265 -92 265 -92 265 -117 c 0,16,17
 265 -163 265 -163 227.5 -190 c 128,-1,18
 190 -217 190 -217 135 -217 c 0,19,20
 85 -217 85 -217 45 -196 c 1,21,-1
 78 -134 l 1,22,23
 104 -148 104 -148 134 -148 c 0,24,25
 157 -148 157 -148 172 -137.5 c 128,-1,26
 187 -127 187 -127 187 -114 c 0,27,28
 187 -103 187 -103 175 -95.5 c 128,-1,29
 163 -88 163 -88 141 -88 c 2,30,-1
 111 -88 l 1,31,-1
 155 0 l 1,32,33
 104 11 104 11 59 35.5 c 128,-1,34
 14 60 14 60 -11 93 c 1,35,-1
 32 156 l 1,36,37
 63 119 63 119 115 95 c 128,-1,38
 167 71 167 71 217 71 c 0,39,40
 262 71 262 71 291 91.5 c 128,-1,41
 320 112 320 112 320 146 c 0,42,43
 320 177 320 177 295 195 c 128,-1,44
 270 213 270 213 218 233 c 0,45,46
 171 252 171 252 143 268 c 128,-1,47
 115 284 115 284 95 311.5 c 128,-1,48
 75 339 75 339 75 380 c 0,49,50
 75 449 75 449 127 491.5 c 128,-1,51
 179 534 179 534 263 534 c 0,52,53
 320 534 320 534 374 514.5 c 128,-1,54
 428 495 428 495 464 463 c 1,55,-1
 418 398 l 1,56,57
 384 424 384 424 341 440.5 c 128,-1,58
 298 457 298 457 261 457 c 0,59,0
 220 457 220 457 193.5 438 c 128,-1,1
EndSplineSet
Substitution2: "<3,3> Small Caps in Latin lookup 11 subtable" scedilla.sc
EndChar

StartChar: uni0162
Encoding: 354 354 293
Width: 567
Flags: W
LayerCount: 2
Fore
SplineSet
267 0 m 1,0,-1
 238 -51 l 1,1,2
 272 -56 272 -56 288.5 -74 c 128,-1,3
 305 -92 305 -92 305 -117 c 0,4,5
 305 -163 305 -163 267.5 -190 c 128,-1,6
 230 -217 230 -217 175 -217 c 0,7,8
 125 -217 125 -217 85 -196 c 1,9,-1
 118 -134 l 1,10,11
 144 -148 144 -148 174 -148 c 0,12,13
 197 -148 197 -148 212 -137.5 c 128,-1,14
 227 -127 227 -127 227 -114 c 0,15,16
 227 -103 227 -103 215 -95.5 c 128,-1,17
 203 -88 203 -88 181 -88 c 2,18,-1
 151 -88 l 1,19,-1
 195 0 l 1,20,-1
 182 0 l 1,21,-1
 305 612 l 1,22,-1
 81 612 l 1,23,-1
 97 700 l 1,24,-1
 645 700 l 1,25,-1
 628 612 l 1,26,-1
 402 612 l 1,27,-1
 279 0 l 1,28,-1
 267 0 l 1,0,-1
EndSplineSet
EndChar

StartChar: uni0163
Encoding: 355 355 294
Width: 399
Flags: W
LayerCount: 2
Fore
SplineSet
182 159 m 2,0,1
 178 142 178 142 178 126 c 0,2,3
 178 102 178 102 189.5 92 c 128,-1,4
 201 82 201 82 225 82 c 0,5,6
 264 82 264 82 315 109 c 1,7,-1
 332 34 l 1,8,9
 278 3 278 3 224 -3 c 1,10,-1
 197 -51 l 1,11,12
 231 -56 231 -56 247.5 -74 c 128,-1,13
 264 -92 264 -92 264 -117 c 0,14,15
 264 -163 264 -163 226.5 -190 c 128,-1,16
 189 -217 189 -217 134 -217 c 0,17,18
 84 -217 84 -217 44 -196 c 1,19,-1
 77 -134 l 1,20,21
 103 -148 103 -148 133 -148 c 0,22,23
 156 -148 156 -148 171 -137.5 c 128,-1,24
 186 -127 186 -127 186 -114 c 0,25,26
 186 -103 186 -103 174 -95.5 c 128,-1,27
 162 -88 162 -88 140 -88 c 2,28,-1
 110 -88 l 1,29,-1
 155 3 l 1,30,31
 122 13 122 13 102.5 40 c 128,-1,32
 83 67 83 67 83 108 c 0,33,34
 83 126 83 126 88 151 c 2,35,-1
 146 440 l 1,36,-1
 71 440 l 1,37,-1
 84 511 l 1,38,-1
 160 511 l 1,39,-1
 188 653 l 1,40,-1
 281 653 l 1,41,-1
 253 511 l 1,42,-1
 415 511 l 1,43,-1
 402 440 l 1,44,-1
 238 440 l 1,45,-1
 182 159 l 2,0,1
EndSplineSet
Substitution2: "<3,3> Small Caps in Latin lookup 11 subtable" uni0163.sc
EndChar

StartChar: Tbar
Encoding: 358 358 297
Width: 567
Flags: W
LayerCount: 2
Fore
SplineSet
628 612 m 1,0,-1
 402 612 l 1,1,-1
 352 362 l 1,2,-1
 502 362 l 1,3,-1
 491 304 l 1,4,-1
 340 304 l 1,5,-1
 279 0 l 1,6,-1
 182 0 l 1,7,-1
 243 304 l 1,8,-1
 89 304 l 1,9,-1
 100 362 l 1,10,-1
 255 362 l 1,11,-1
 305 612 l 1,12,-1
 81 612 l 1,13,-1
 97 700 l 1,14,-1
 645 700 l 1,15,-1
 628 612 l 1,0,-1
EndSplineSet
EndChar

StartChar: tbar
Encoding: 359 359 298
Width: 397
Flags: W
LayerCount: 2
Fore
SplineSet
238 440 m 1,0,-1
 216 330 l 1,1,-1
 379 330 l 1,2,-1
 366 258 l 1,3,-1
 202 258 l 1,4,-1
 183 164 l 2,5,6
 179 140 179 140 179 131 c 0,7,8
 179 105 179 105 191.5 93.5 c 128,-1,9
 204 82 204 82 230 82 c 0,10,11
 268 82 268 82 318 107 c 1,12,-1
 330 35 l 1,13,14
 260 -4 260 -4 198 -4 c 0,15,16
 145 -4 145 -4 113.5 23 c 128,-1,17
 82 50 82 50 82 104 c 0,18,19
 82 120 82 120 87 147 c 2,20,-1
 109 258 l 1,21,-1
 35 258 l 1,22,-1
 48 330 l 1,23,-1
 124 330 l 1,24,-1
 145 440 l 1,25,-1
 71 440 l 1,26,-1
 84 511 l 1,27,-1
 160 511 l 1,28,-1
 188 653 l 1,29,-1
 281 653 l 1,30,-1
 253 511 l 1,31,-1
 415 511 l 1,32,-1
 402 440 l 1,33,-1
 238 440 l 1,0,-1
EndSplineSet
Substitution2: "<3,3> Small Caps in Latin lookup 11 subtable" tbar.sc
EndChar

StartChar: Uogonek
Encoding: 370 370 309
Width: 766
Flags: W
LayerCount: 2
Fore
SplineSet
769 700 m 1,0,-1
 687 289 l 2,1,2
 670 205 670 205 629 142.5 c 128,-1,3
 588 80 588 80 527 44 c 1,4,5
 475 5 475 5 440 -40.5 c 128,-1,6
 405 -86 405 -86 405 -118 c 0,7,8
 405 -130 405 -130 412 -137.5 c 128,-1,9
 419 -145 419 -145 431 -145 c 0,10,11
 451 -145 451 -145 471 -135 c 1,12,-1
 483 -197 l 1,13,14
 440 -216 440 -216 397 -216 c 0,15,16
 358 -216 358 -216 336.5 -195.5 c 128,-1,17
 315 -175 315 -175 315 -138 c 0,18,19
 315 -71 315 -71 391 -1 c 1,20,21
 367 -4 367 -4 340 -4 c 0,22,23
 220 -4 220 -4 151 54.5 c 128,-1,24
 82 113 82 113 82 218 c 0,25,26
 82 249 82 249 90 289 c 2,27,-1
 172 700 l 1,28,-1
 268 700 l 1,29,-1
 186 289 l 2,30,31
 180 259 180 259 180 234 c 0,32,33
 180 162 180 162 225 122.5 c 128,-1,34
 270 83 270 83 350 83 c 0,35,36
 444 83 444 83 507.5 137.5 c 128,-1,37
 571 192 571 192 591 289 c 2,38,-1
 673 700 l 1,39,-1
 769 700 l 1,0,-1
EndSplineSet
EndChar

StartChar: uogonek
Encoding: 371 371 310
Width: 661
Flags: W
LayerCount: 2
Fore
SplineSet
622 529 m 1,0,-1
 518 0 l 1,1,-1
 517 0 l 1,2,3
 452 -42 452 -42 425.5 -68.5 c 128,-1,4
 399 -95 399 -95 399 -120 c 0,5,6
 399 -132 399 -132 406 -138.5 c 128,-1,7
 413 -145 413 -145 425 -145 c 0,8,9
 446 -145 446 -145 466 -135 c 1,10,-1
 477 -197 l 1,11,12
 435 -216 435 -216 392 -216 c 0,13,14
 353 -216 353 -216 330.5 -198 c 128,-1,15
 308 -180 308 -180 308 -146 c 0,16,17
 308 -63 308 -63 425 10 c 1,18,-1
 441 89 l 1,19,20
 375 -4 375 -4 250 -6 c 0,21,22
 160 -6 160 -6 109.5 39 c 128,-1,23
 59 84 59 84 59 162 c 0,24,25
 59 189 59 189 65 217 c 2,26,-1
 128 529 l 1,27,-1
 222 529 l 1,28,-1
 162 228 l 2,29,30
 158 211 158 211 158 191 c 0,31,32
 158 139 158 139 190.5 109 c 128,-1,33
 223 79 223 79 282 79 c 0,34,35
 352 79 352 79 403.5 124 c 128,-1,36
 455 169 455 169 471 245 c 2,37,-1
 528 529 l 1,38,-1
 622 529 l 1,0,-1
EndSplineSet
Substitution2: "<3,3> Small Caps in Latin lookup 11 subtable" uogonek.sc
EndChar

StartChar: uni018F
Encoding: 399 399 322
Width: 791
Flags: W
LayerCount: 2
Fore
SplineSet
614 664 m 128,-1,1
 688 622 688 622 729.5 548 c 128,-1,2
 771 474 771 474 771 383 c 0,3,4
 771 277 771 277 718 187.5 c 128,-1,5
 665 98 665 98 576 45.5 c 128,-1,6
 487 -7 487 -7 384 -7 c 0,7,8
 288 -7 288 -7 214 36 c 128,-1,9
 140 79 140 79 99.5 156 c 128,-1,10
 59 233 59 233 59 332 c 0,11,12
 59 361 59 361 60 375 c 1,13,-1
 677 375 l 1,14,-1
 677 381 l 2,15,16
 677 447 677 447 646 502 c 128,-1,17
 615 557 615 557 561 588.5 c 128,-1,18
 507 620 507 620 442 620 c 0,19,20
 378 620 378 620 319.5 592.5 c 128,-1,21
 261 565 261 565 218 516 c 1,22,-1
 154 581 l 1,23,24
 277 706 277 706 448 706 c 0,25,0
 540 706 540 706 614 664 c 128,-1,1
508.5 105 m 128,-1,27
 564 130 564 130 605 177.5 c 128,-1,28
 646 225 646 225 664 288 c 1,29,-1
 157 288 l 1,30,31
 163 227 163 227 194.5 180 c 128,-1,32
 226 133 226 133 277.5 106.5 c 128,-1,33
 329 80 329 80 393 80 c 0,34,26
 453 80 453 80 508.5 105 c 128,-1,27
EndSplineSet
EndChar

StartChar: florin
Encoding: 402 402 323
Width: 427
Flags: W
LayerCount: 2
Fore
SplineSet
316 645.5 m 128,-1,1
 287 618 287 618 277 573 c 2,2,-1
 256 464 l 1,3,-1
 402 464 l 1,4,-1
 389 394 l 1,5,-1
 243 394 l 1,6,-1
 161 -35 l 2,7,8
 145 -112 145 -112 100.5 -155 c 128,-1,9
 56 -198 56 -198 -14 -198 c 0,10,11
 -41 -198 -41 -198 -69.5 -187 c 128,-1,12
 -98 -176 -98 -176 -118 -160 c 1,13,-1
 -87 -92 l 1,14,15
 -74 -104 -74 -104 -55.5 -111.5 c 128,-1,16
 -37 -119 -37 -119 -21 -119 c 0,17,18
 50 -119 50 -119 70 -18 c 2,19,-1
 150 394 l 1,20,-1
 82 394 l 1,21,-1
 94 464 l 1,22,-1
 163 464 l 1,23,-1
 187 588 l 2,24,25
 201 663 201 663 252 707.5 c 128,-1,26
 303 752 303 752 374 752 c 0,27,28
 406 752 406 752 439 741 c 128,-1,29
 472 730 472 730 495 713 c 1,30,-1
 457 646 l 1,31,32
 442 658 442 658 421.5 665.5 c 128,-1,33
 401 673 401 673 384 673 c 0,34,0
 345 673 345 673 316 645.5 c 128,-1,1
EndSplineSet
EndChar

StartChar: Ohorn
Encoding: 416 416 324
Width: 864
Flags: W
LayerCount: 2
Fore
SplineSet
773 508.5 m 128,-1,1
 797 450 797 450 797 383 c 0,2,3
 797 278 797 278 741.5 188 c 128,-1,4
 686 98 686 98 592.5 45.5 c 128,-1,5
 499 -7 499 -7 391 -7 c 0,6,7
 296 -7 296 -7 220 36 c 128,-1,8
 144 79 144 79 100.5 153 c 128,-1,9
 57 227 57 227 57 318 c 0,10,11
 57 424 57 424 112.5 513 c 128,-1,12
 168 602 168 602 261 654 c 128,-1,13
 354 706 354 706 462 706 c 0,14,15
 545 706 545 706 616 673 c 0,16,17
 635 665 635 665 657 665 c 0,18,19
 694 665 694 665 717 693 c 128,-1,20
 740 721 740 721 740 759 c 0,21,22
 740 782 740 782 729 804 c 1,23,-1
 811 833 l 1,24,25
 824 798 824 798 824 763 c 0,26,27
 824 708 824 708 791.5 666.5 c 128,-1,28
 759 625 759 625 705 610 c 1,29,0
 749 567 749 567 773 508.5 c 128,-1,1
665 500.5 m 128,-1,31
 633 556 633 556 577.5 588 c 128,-1,32
 522 620 522 620 455 620 c 0,33,34
 377 620 377 620 307.5 580 c 128,-1,35
 238 540 238 540 196.5 472 c 128,-1,36
 155 404 155 404 155 325 c 0,37,38
 155 257 155 257 187.5 201 c 128,-1,39
 220 145 220 145 276 112.5 c 128,-1,40
 332 80 332 80 400 80 c 0,41,42
 478 80 478 80 546.5 120.5 c 128,-1,43
 615 161 615 161 656 229.5 c 128,-1,44
 697 298 697 298 697 377 c 0,45,30
 697 445 697 445 665 500.5 c 128,-1,31
EndSplineSet
EndChar

StartChar: ohorn
Encoding: 417 417 325
Width: 627
Flags: W
LayerCount: 2
Fore
SplineSet
673 592 m 0,1,2
 673 533 673 533 637.5 491 c 128,-1,3
 602 449 602 449 543 437 c 1,4,5
 587 374 587 374 587 291 c 0,6,7
 587 206 587 206 547.5 139 c 128,-1,8
 508 72 508 72 439.5 34.5 c 128,-1,9
 371 -3 371 -3 286 -3 c 0,10,11
 212 -3 212 -3 156.5 27.5 c 128,-1,12
 101 58 101 58 70.5 113 c 128,-1,13
 40 168 40 168 40 239 c 0,14,15
 40 323 40 323 79 390 c 128,-1,16
 118 457 118 457 186.5 494.5 c 128,-1,17
 255 532 255 532 340 532 c 0,18,19
 416 532 416 532 474 499 c 1,20,21
 491 494 491 494 506 494 c 0,22,23
 543 494 543 494 566 522 c 128,-1,24
 589 550 589 550 589 588 c 0,25,26
 589 611 589 611 578 633 c 1,27,-1
 660 662 l 1,28,0
 673 626 673 626 673 592 c 0,1,2
394.5 102.5 m 128,-1,30
 439 129 439 129 465 176.5 c 128,-1,31
 491 224 491 224 491 284 c 0,32,33
 491 358 491 358 447.5 404.5 c 128,-1,34
 404 451 404 451 332 451 c 0,35,36
 276 451 276 451 231 424.5 c 128,-1,37
 186 398 186 398 160 350.5 c 128,-1,38
 134 303 134 303 134 243 c 0,39,40
 134 168 134 168 178 122 c 128,-1,41
 222 76 222 76 294 76 c 0,42,29
 350 76 350 76 394.5 102.5 c 128,-1,30
EndSplineSet
Substitution2: "<3,3> Small Caps in Latin lookup 11 subtable" ohorn.sc
EndChar

StartChar: Uhorn
Encoding: 431 431 326
Width: 819
Flags: W
LayerCount: 2
Fore
SplineSet
887 785 m 0,1,2
 887 728 887 728 852.5 689.5 c 128,-1,3
 818 651 818 651 757 642 c 1,4,-1
 687 289 l 2,5,6
 659 151 659 151 568.5 73.5 c 128,-1,7
 478 -4 478 -4 340 -4 c 0,8,9
 220 -4 220 -4 151 54.5 c 128,-1,10
 82 113 82 113 82 218 c 0,11,12
 82 249 82 249 90 289 c 2,13,-1
 172 700 l 1,14,-1
 268 700 l 1,15,-1
 186 289 l 2,16,17
 180 259 180 259 180 234 c 0,18,19
 180 162 180 162 225 122.5 c 128,-1,20
 270 83 270 83 350 83 c 0,21,22
 444 83 444 83 507.5 137.5 c 128,-1,23
 571 192 571 192 591 289 c 2,24,-1
 673 700 l 1,25,-1
 732 700 l 2,26,27
 770 700 770 700 790 718.5 c 128,-1,28
 810 737 810 737 810 768 c 0,29,30
 810 786 810 786 804 805 c 1,31,-1
 881 833 l 1,32,0
 887 808 887 808 887 785 c 0,1,2
EndSplineSet
EndChar

StartChar: uhorn
Encoding: 432 432 327
Width: 661
Flags: W
LayerCount: 2
Fore
SplineSet
740 614 m 0,1,2
 740 557 740 557 705.5 518.5 c 128,-1,3
 671 480 671 480 611 471 c 1,4,-1
 518 0 l 1,5,-1
 423 0 l 1,6,-1
 441 89 l 1,7,8
 375 -4 375 -4 250 -6 c 0,9,10
 160 -6 160 -6 109.5 39 c 128,-1,11
 59 84 59 84 59 162 c 0,12,13
 59 189 59 189 65 217 c 2,14,-1
 128 529 l 1,15,-1
 222 529 l 1,16,-1
 162 228 l 2,17,18
 158 211 158 211 158 191 c 0,19,20
 158 139 158 139 190.5 109 c 128,-1,21
 223 79 223 79 282 79 c 0,22,23
 352 79 352 79 403.5 124 c 128,-1,24
 455 169 455 169 471 245 c 2,25,-1
 528 529 l 1,26,-1
 585 529 l 2,27,28
 623 529 623 529 643 547.5 c 128,-1,29
 663 566 663 566 663 597 c 0,30,31
 663 615 663 615 657 634 c 1,32,-1
 734 662 l 1,33,0
 740 637 740 637 740 614 c 0,1,2
EndSplineSet
Substitution2: "<3,3> Small Caps in Latin lookup 11 subtable" uhorn.sc
EndChar

StartChar: uni01EA
Encoding: 490 490 339
Width: 817
Flags: W
LayerCount: 2
Fore
SplineSet
633.5 663.5 m 128,-1,1
 710 621 710 621 753.5 547.5 c 128,-1,2
 797 474 797 474 797 383 c 0,3,4
 797 279 797 279 743.5 190.5 c 128,-1,5
 690 102 690 102 600 50 c 1,6,7
 545 11 545 11 507 -37 c 128,-1,8
 469 -85 469 -85 469 -118 c 0,9,10
 469 -130 469 -130 476 -137.5 c 128,-1,11
 483 -145 483 -145 495 -145 c 0,12,13
 515 -145 515 -145 535 -135 c 1,14,-1
 547 -197 l 1,15,16
 504 -216 504 -216 461 -216 c 0,17,18
 422 -216 422 -216 400.5 -195.5 c 128,-1,19
 379 -175 379 -175 379 -138 c 0,20,21
 379 -73 379 -73 454 -2 c 1,22,23
 419 -7 419 -7 391 -7 c 0,24,25
 296 -7 296 -7 220 36 c 128,-1,26
 144 79 144 79 100.5 153 c 128,-1,27
 57 227 57 227 57 318 c 0,28,29
 57 424 57 424 112.5 513 c 128,-1,30
 168 602 168 602 261 654 c 128,-1,31
 354 706 354 706 462 706 c 0,32,0
 557 706 557 706 633.5 663.5 c 128,-1,1
665 500.5 m 128,-1,34
 633 556 633 556 577.5 588 c 128,-1,35
 522 620 522 620 455 620 c 0,36,37
 377 620 377 620 307.5 580 c 128,-1,38
 238 540 238 540 196.5 472 c 128,-1,39
 155 404 155 404 155 325 c 0,40,41
 155 257 155 257 187.5 201 c 128,-1,42
 220 145 220 145 276 112.5 c 128,-1,43
 332 80 332 80 400 80 c 0,44,45
 478 80 478 80 546.5 120.5 c 128,-1,46
 615 161 615 161 656 229.5 c 128,-1,47
 697 298 697 298 697 377 c 0,48,33
 697 445 697 445 665 500.5 c 128,-1,34
EndSplineSet
EndChar

StartChar: uni01EB
Encoding: 491 491 340
Width: 627
Flags: W
LayerCount: 2
Fore
SplineSet
368 -40.5 m 128,-1,1
 333 -86 333 -86 333 -118 c 0,2,3
 333 -130 333 -130 340 -137.5 c 128,-1,4
 347 -145 347 -145 359 -145 c 0,5,6
 379 -145 379 -145 399 -135 c 1,7,-1
 411 -197 l 1,8,9
 368 -216 368 -216 325 -216 c 0,10,11
 286 -216 286 -216 264.5 -195.5 c 128,-1,12
 243 -175 243 -175 243 -138 c 0,13,14
 243 -71 243 -71 319 -2 c 1,15,-1
 286 -3 l 2,16,17
 212 -3 212 -3 156.5 27.5 c 128,-1,18
 101 58 101 58 70.5 113 c 128,-1,19
 40 168 40 168 40 239 c 0,20,21
 40 323 40 323 79 390 c 128,-1,22
 118 457 118 457 186.5 494.5 c 128,-1,23
 255 532 255 532 340 532 c 0,24,25
 413 532 413 532 469 501.5 c 128,-1,26
 525 471 525 471 556 416 c 128,-1,27
 587 361 587 361 587 291 c 0,28,29
 587 211 587 211 552 146.5 c 128,-1,30
 517 82 517 82 456 44 c 1,31,0
 403 5 403 5 368 -40.5 c 128,-1,1
178 122 m 128,-1,33
 222 76 222 76 294 76 c 0,34,35
 350 76 350 76 394.5 102.5 c 128,-1,36
 439 129 439 129 465 176.5 c 128,-1,37
 491 224 491 224 491 284 c 0,38,39
 491 358 491 358 447.5 404.5 c 128,-1,40
 404 451 404 451 332 451 c 0,41,42
 276 451 276 451 231 424.5 c 128,-1,43
 186 398 186 398 160 350.5 c 128,-1,44
 134 303 134 303 134 243 c 0,45,32
 134 168 134 168 178 122 c 128,-1,33
EndSplineSet
Substitution2: "<3,3> Small Caps in Latin lookup 11 subtable" uni01EB.sc
EndChar

StartChar: uni0237
Encoding: 567 567 383
Width: 270
Flags: W
LayerCount: 2
Fore
SplineSet
-73 -118 m 0,1,2
 -33 -119 -33 -119 -6 -90 c 128,-1,3
 21 -61 21 -61 32 -8 c 2,4,-1
 140 529 l 1,5,-1
 234 529 l 1,6,-1
 122 -30 l 2,7,8
 106 -112 106 -112 60 -154.5 c 128,-1,9
 14 -197 14 -197 -56 -197 c 0,10,11
 -101 -197 -101 -197 -142 -179 c 1,12,-1
 -114 -110 l 1,13,0
 -101 -116 -101 -116 -73 -118 c 0,1,2
EndSplineSet
EndChar

StartChar: uni0259
Encoding: 601 601 384
Width: 604
Flags: W
LayerCount: 2
Fore
SplineSet
443 502 m 128,-1,1
 501 472 501 472 532.5 417 c 128,-1,2
 564 362 564 362 564 290 c 0,3,4
 564 207 564 207 525 139.5 c 128,-1,5
 486 72 486 72 418 33.5 c 128,-1,6
 350 -5 350 -5 267 -5 c 0,7,8
 160 -5 160 -5 98.5 57 c 128,-1,9
 37 119 37 119 37 223 c 0,10,11
 37 257 37 257 45 299 c 1,12,-1
 472 299 l 1,13,14
 469 372 469 372 424 413.5 c 128,-1,15
 379 455 379 455 304 455 c 0,16,17
 261 455 261 455 221.5 441 c 128,-1,18
 182 427 182 427 150 401 c 1,19,-1
 107 462 l 1,20,21
 188 532 188 532 308 532 c 0,22,0
 385 532 385 532 443 502 c 128,-1,1
391.5 115.5 m 128,-1,24
 445 158 445 158 464 227 c 1,25,-1
 121 227 l 1,26,27
 120 153 120 153 158 113 c 128,-1,28
 196 73 196 73 267 73 c 256,29,23
 338 73 338 73 391.5 115.5 c 128,-1,24
EndSplineSet
Substitution2: "<3,3> Small Caps in Latin lookup 11 subtable" uni0259.sc
EndChar

StartChar: uni02BB
Encoding: 699 699 385
Width: 326
Flags: W
LayerCount: 2
Fore
SplineSet
250 508 m 1,0,-1
 164 528 l 1,1,-1
 223 700 l 1,2,-1
 287 700 l 1,3,-1
 250 508 l 1,0,-1
EndSplineSet
EndChar

StartChar: uni02BC
Encoding: 700 700 386
Width: 129
Flags: W
LayerCount: 2
Fore
SplineSet
116 700 m 1,0,-1
 189 700 l 1,1,-1
 125 440 l 1,2,-1
 64 440 l 1,3,-1
 116 700 l 1,0,-1
EndSplineSet
EndChar

StartChar: uni02BE
Encoding: 702 702 387
Width: 321
Flags: W
LayerCount: 2
Fore
SplineSet
175 612 m 1,0,1
 206 612 206 612 231.5 634.5 c 128,-1,2
 257 657 257 657 257 687 c 0,3,4
 258 714 258 714 239.5 732.5 c 128,-1,5
 221 751 221 751 192 751 c 1,6,-1
 197 796 l 1,7,8
 241 796 241 796 271 766 c 128,-1,9
 301 736 301 736 301 693 c 0,10,11
 301 660 301 660 282.5 631 c 128,-1,12
 264 602 264 602 233.5 584.5 c 128,-1,13
 203 567 203 567 170 567 c 1,14,-1
 175 612 l 1,0,1
EndSplineSet
EndChar

StartChar: uni02BF
Encoding: 703 703 388
Width: 313
Flags: W
LayerCount: 2
Fore
SplineSet
273 612 m 1,0,1
 246 612 246 612 229 629 c 128,-1,2
 212 646 212 646 212 671 c 0,3,4
 212 703 212 703 239.5 727 c 128,-1,5
 267 751 267 751 301 751 c 1,6,-1
 310 796 l 1,7,8
 275 796 275 796 242 777.5 c 128,-1,9
 209 759 209 759 188.5 728.5 c 128,-1,10
 168 698 168 698 168 664 c 0,11,12
 168 623 168 623 195.5 595 c 128,-1,13
 223 567 223 567 265 567 c 1,14,-1
 273 612 l 1,0,1
EndSplineSet
EndChar

StartChar: caron
Encoding: 711 711 390
Width: 426
Flags: W
LayerCount: 2
Fore
SplineSet
358 749 m 1,0,-1
 451 749 l 1,1,-1
 320 616 l 1,2,-1
 223 616 l 1,3,-1
 143 749 l 1,4,-1
 236 749 l 1,5,-1
 284 682 l 1,6,-1
 358 749 l 1,0,-1
EndSplineSet
EndChar

StartChar: uni02C8
Encoding: 712 712 391
Width: 319
Flags: W
LayerCount: 2
Fore
SplineSet
178 524 m 1,0,-1
 212 700 l 1,1,-1
 281 700 l 1,2,-1
 247 524 l 1,3,-1
 178 524 l 1,0,-1
EndSplineSet
EndChar

StartChar: uni02C9
Encoding: 713 713 392
Width: 475
Flags: W
LayerCount: 2
Fore
SplineSet
203 710 m 1,0,-1
 449 710 l 1,1,-1
 438 648 l 1,2,-1
 191 648 l 1,3,-1
 203 710 l 1,0,-1
EndSplineSet
EndChar

StartChar: uni02CA
Encoding: 714 714 393
Width: 340
Flags: W
LayerCount: 2
Fore
SplineSet
274 752 m 1,0,-1
 363 710 l 1,1,-1
 220 612 l 1,2,-1
 142 622 l 1,3,-1
 274 752 l 1,0,-1
EndSplineSet
EndChar

StartChar: uni02CB
Encoding: 715 715 394
Width: 308
Flags: W
LayerCount: 2
Fore
SplineSet
246 752 m 1,0,-1
 328 622 l 1,1,-1
 246 612 l 1,2,-1
 142 710 l 1,3,-1
 246 752 l 1,0,-1
EndSplineSet
EndChar

StartChar: uni02CC
Encoding: 716 716 395
Width: 318
Flags: W
LayerCount: 2
Fore
SplineSet
32 -207 m 1,0,-1
 66 -31 l 1,1,-1
 134 -31 l 1,2,-1
 100 -207 l 1,3,-1
 32 -207 l 1,0,-1
EndSplineSet
EndChar

StartChar: gravecomb
Encoding: 768 768 402
Width: 0
Flags: W
LayerCount: 2
Fore
SplineSet
-70 752 m 1,0,-1
 37 622 l 1,1,-1
 -43 612 l 1,2,-1
 -166 710 l 1,3,-1
 -70 752 l 1,0,-1
EndSplineSet
Substitution2: "<3,3> Small Caps in Latin lookup 11 subtable" gravecomb.sc
EndChar

StartChar: acutecomb
Encoding: 769 769 403
Width: 0
Flags: W
LayerCount: 2
Fore
SplineSet
-91 752 m 1,0,-1
 5 710 l 1,1,-1
 -118 612 l 1,2,-1
 -198 622 l 1,3,-1
 -91 752 l 1,0,-1
EndSplineSet
Substitution2: "<3,3> Small Caps in Latin lookup 11 subtable" acutecomb.sc
EndChar

StartChar: uni0302
Encoding: 770 770 404
Width: 0
Flags: W
LayerCount: 2
Fore
SplineSet
24 617 m 1,0,-1
 -69 617 l 1,1,-1
 -117 684 l 1,2,-1
 -191 617 l 1,3,-1
 -284 617 l 1,4,-1
 -153 750 l 1,5,-1
 -56 750 l 1,6,-1
 24 617 l 1,0,-1
EndSplineSet
Substitution2: "<3,3> Small Caps in Latin lookup 11 subtable" uni0302.sc
EndChar

StartChar: tildecomb
Encoding: 771 771 405
Width: 0
Flags: W
LayerCount: 2
Fore
SplineSet
-49.5 642 m 128,-1,1
 -75 608 -75 608 -118 608 c 0,2,3
 -139 608 -139 608 -155.5 616 c 128,-1,4
 -172 624 -172 624 -194 640 c 0,5,6
 -210 651 -210 651 -219.5 656 c 128,-1,7
 -229 661 -229 661 -238 661 c 0,8,9
 -271 661 -271 661 -280 612 c 1,10,-1
 -345 612 l 1,11,12
 -335 665 -335 665 -309.5 699.5 c 128,-1,13
 -284 734 -284 734 -242 734 c 0,14,15
 -221 734 -221 734 -204.5 726 c 128,-1,16
 -188 718 -188 718 -165 703 c 0,17,18
 -149 692 -149 692 -139.5 687 c 128,-1,19
 -130 682 -130 682 -121 682 c 0,20,21
 -103 682 -103 682 -92.5 695 c 128,-1,22
 -82 708 -82 708 -79 730 c 1,23,-1
 -14 730 l 1,24,0
 -24 676 -24 676 -49.5 642 c 128,-1,1
EndSplineSet
Substitution2: "<3,3> Small Caps in Latin lookup 11 subtable" tildecomb.sc
EndChar

StartChar: uni0304
Encoding: 772 772 406
Width: 0
Flags: W
LayerCount: 2
Fore
SplineSet
-292 710 m 1,0,-1
 -6 710 l 1,1,-1
 -17 648 l 1,2,-1
 -304 648 l 1,3,-1
 -292 710 l 1,0,-1
EndSplineSet
Substitution2: "<3,3> Small Caps in Latin lookup 11 subtable" uni0304.sc
EndChar

StartChar: uni0306
Encoding: 774 774 407
Width: 0
Flags: W
LayerCount: 2
Fore
SplineSet
-201 731 m 0,1,2
 -201 706 -201 706 -186 690 c 128,-1,3
 -171 674 -171 674 -146 674 c 0,4,5
 -118 674 -118 674 -95 694 c 128,-1,6
 -72 714 -72 714 -64 744 c 1,7,-1
 1 744 l 1,8,9
 -12 684 -12 684 -56.5 647 c 128,-1,10
 -101 610 -101 610 -158 610 c 0,11,12
 -208 610 -208 610 -237.5 639 c 128,-1,13
 -267 668 -267 668 -267 717 c 0,14,15
 -267 726 -267 726 -265 744 c 1,16,-1
 -200 744 l 1,17,0
 -201 740 -201 740 -201 731 c 0,1,2
EndSplineSet
Substitution2: "<3,3> Small Caps in Latin lookup 11 subtable" uni0306.sc
EndChar

StartChar: uni0307
Encoding: 775 775 408
Width: 0
Flags: W
LayerCount: 2
Fore
SplineSet
-28 726.5 m 128,-1,1
 -15 713 -15 713 -15 691 c 0,2,3
 -15 662 -15 662 -36.5 641 c 128,-1,4
 -58 620 -58 620 -86 620 c 0,5,6
 -107 620 -107 620 -120 634.5 c 128,-1,7
 -133 649 -133 649 -133 670 c 0,8,9
 -133 699 -133 699 -112 719.5 c 128,-1,10
 -91 740 -91 740 -63 740 c 0,11,0
 -41 740 -41 740 -28 726.5 c 128,-1,1
EndSplineSet
Substitution2: "<3,3> Small Caps in Latin lookup 11 subtable" uni0307.sc
EndChar

StartChar: uni0308
Encoding: 776 776 409
Width: 0
Flags: W
LayerCount: 2
Fore
SplineSet
-200 721 m 128,-1,1
 -188 708 -188 708 -188 688 c 0,2,3
 -188 663 -188 663 -207.5 643.5 c 128,-1,4
 -227 624 -227 624 -252 624 c 0,5,6
 -271 624 -271 624 -283.5 637 c 128,-1,7
 -296 650 -296 650 -296 670 c 0,8,9
 -296 697 -296 697 -277 715.5 c 128,-1,10
 -258 734 -258 734 -231 734 c 0,11,0
 -212 734 -212 734 -200 721 c 128,-1,1
-28.5 721.5 m 128,-1,13
 -17 709 -17 709 -17 688 c 0,14,15
 -17 663 -17 663 -36 643.5 c 128,-1,16
 -55 624 -55 624 -80 624 c 0,17,18
 -99 624 -99 624 -111.5 637 c 128,-1,19
 -124 650 -124 650 -124 670 c 0,20,21
 -124 697 -124 697 -105 715.5 c 128,-1,22
 -86 734 -86 734 -59 734 c 0,23,12
 -40 734 -40 734 -28.5 721.5 c 128,-1,13
EndSplineSet
Substitution2: "<3,3> Small Caps in Latin lookup 11 subtable" uni0308.sc
EndChar

StartChar: hookabovecomb
Encoding: 777 777 410
Width: 0
Flags: W
LayerCount: 2
Fore
SplineSet
-28 761.5 m 128,-1,1
 -6 744 -6 744 -6 713 c 256,2,3
 -6 682 -6 682 -33 645.5 c 128,-1,4
 -60 609 -60 609 -102 578 c 1,5,-1
 -150 602 l 1,6,7
 -122 623 -122 623 -105.5 647.5 c 128,-1,8
 -89 672 -89 672 -89 688 c 0,9,10
 -89 699 -89 699 -97 706.5 c 128,-1,11
 -105 714 -105 714 -118 714 c 0,12,13
 -137 714 -137 714 -159 701 c 1,14,-1
 -181 751 l 1,15,16
 -134 779 -134 779 -86 779 c 0,17,0
 -50 779 -50 779 -28 761.5 c 128,-1,1
EndSplineSet
Substitution2: "<3,3> Small Caps in Latin lookup 11 subtable" hookabovecomb.sc
EndChar

StartChar: uni030A
Encoding: 778 778 411
Width: 0
Flags: W
LayerCount: 2
Fore
SplineSet
-29.5 762 m 128,-1,1
 -3 735 -3 735 -3 695 c 0,2,3
 -3 664 -3 664 -19.5 637 c 128,-1,4
 -36 610 -36 610 -63.5 594 c 128,-1,5
 -91 578 -91 578 -122 578 c 0,6,7
 -163 578 -163 578 -189.5 604.5 c 128,-1,8
 -216 631 -216 631 -216 670 c 0,9,10
 -216 701 -216 701 -199.5 728.5 c 128,-1,11
 -183 756 -183 756 -155.5 772.5 c 128,-1,12
 -128 789 -128 789 -97 789 c 0,13,0
 -56 789 -56 789 -29.5 762 c 128,-1,1
-145.5 718 m 128,-1,15
 -164 700 -164 700 -164 677 c 0,16,17
 -164 657 -164 657 -150.5 644 c 128,-1,18
 -137 631 -137 631 -116 631 c 0,19,20
 -92 631 -92 631 -73 648.5 c 128,-1,21
 -54 666 -54 666 -54 689 c 0,22,23
 -54 709 -54 709 -68 722.5 c 128,-1,24
 -82 736 -82 736 -103 736 c 0,25,14
 -127 736 -127 736 -145.5 718 c 128,-1,15
EndSplineSet
EndChar

StartChar: uni030B
Encoding: 779 779 412
Width: 0
Flags: W
LayerCount: 2
Fore
SplineSet
-233 758 m 1,0,-1
 -160 720 l 1,1,-1
 -255 612 l 1,2,-1
 -323 621 l 1,3,-1
 -233 758 l 1,0,-1
-79 758 m 1,4,-1
 -6 720 l 1,5,-1
 -100 612 l 1,6,-1
 -168 621 l 1,7,-1
 -79 758 l 1,4,-1
EndSplineSet
Substitution2: "<3,3> Small Caps in Latin lookup 11 subtable" uni030B.sc
EndChar

StartChar: uni030C
Encoding: 780 780 413
Width: 0
Flags: W
LayerCount: 2
Fore
SplineSet
-66 749 m 1,0,-1
 27 749 l 1,1,-1
 -104 616 l 1,2,-1
 -201 616 l 1,3,-1
 -281 749 l 1,4,-1
 -188 749 l 1,5,-1
 -140 682 l 1,6,-1
 -66 749 l 1,0,-1
EndSplineSet
Substitution2: "<3,3> Small Caps in Latin lookup 11 subtable" uni030C.sc
EndChar

StartChar: uni030F
Encoding: 783 783 414
Width: 0
Flags: W
LayerCount: 2
Fore
SplineSet
-198 758 m 1,0,-1
 -141 621 l 1,1,-1
 -214 612 l 1,2,-1
 -285 720 l 1,3,-1
 -198 758 l 1,0,-1
-43 758 m 1,4,-1
 13 621 l 1,5,-1
 -59 612 l 1,6,-1
 -131 720 l 1,7,-1
 -43 758 l 1,4,-1
EndSplineSet
Substitution2: "<3,3> Small Caps in Latin lookup 11 subtable" uni030F.sc
EndChar

StartChar: uni0311
Encoding: 785 785 415
Width: 0
Flags: W
LayerCount: 2
Fore
SplineSet
-67 624 m 0,1,2
 -67 649 -67 649 -82 665 c 128,-1,3
 -97 681 -97 681 -122 681 c 0,4,5
 -150 681 -150 681 -173 661 c 128,-1,6
 -196 641 -196 641 -204 611 c 1,7,-1
 -269 611 l 1,8,9
 -256 671 -256 671 -211.5 708 c 128,-1,10
 -167 745 -167 745 -110 745 c 0,11,12
 -60 745 -60 745 -30.5 716 c 128,-1,13
 -1 687 -1 687 -1 638 c 0,14,15
 -1 629 -1 629 -3 611 c 1,16,-1
 -68 611 l 1,17,0
 -67 615 -67 615 -67 624 c 0,1,2
EndSplineSet
Substitution2: "<3,3> Small Caps in Latin lookup 11 subtable" uni0311.sc
EndChar

StartChar: uni0312
Encoding: 786 786 416
Width: 0
Flags: W
LayerCount: 2
Fore
SplineSet
-69 613 m 1,0,-1
 -157 613 l 1,1,-1
 -75 772 l 1,2,-1
 -7 772 l 1,3,-1
 -69 613 l 1,0,-1
EndSplineSet
EndChar

StartChar: uni031B
Encoding: 795 795 417
Width: 0
Flags: W
LayerCount: 2
Fore
SplineSet
-51 614 m 0,1,2
 -51 548 -51 548 -96 508 c 128,-1,3
 -141 468 -141 468 -218 468 c 1,4,-1
 -206 529 l 1,5,6
 -168 529 -168 529 -148 547.5 c 128,-1,7
 -128 566 -128 566 -128 597 c 0,8,9
 -128 615 -128 615 -134 634 c 1,10,-1
 -57 662 l 1,11,0
 -51 637 -51 637 -51 614 c 0,1,2
EndSplineSet
EndChar

StartChar: dotbelowcomb
Encoding: 803 803 418
Width: 0
Flags: W
LayerCount: 2
Fore
SplineSet
-190 -87.5 m 128,-1,1
 -177 -101 -177 -101 -177 -123 c 0,2,3
 -177 -152 -177 -152 -198.5 -173 c 128,-1,4
 -220 -194 -220 -194 -248 -194 c 0,5,6
 -269 -194 -269 -194 -282 -179.5 c 128,-1,7
 -295 -165 -295 -165 -295 -144 c 0,8,9
 -295 -115 -295 -115 -274 -94.5 c 128,-1,10
 -253 -74 -253 -74 -225 -74 c 0,11,0
 -203 -74 -203 -74 -190 -87.5 c 128,-1,1
EndSplineSet
Substitution2: "<3,3> Small Caps in Latin lookup 11 subtable" dotbelowcomb.sc
EndChar

StartChar: uni0324
Encoding: 804 804 419
Width: 0
Flags: W
LayerCount: 2
Fore
SplineSet
-359 -84 m 128,-1,1
 -347 -97 -347 -97 -347 -117 c 0,2,3
 -347 -143 -347 -143 -366.5 -162 c 128,-1,4
 -386 -181 -386 -181 -411 -181 c 0,5,6
 -430 -181 -430 -181 -442.5 -168 c 128,-1,7
 -455 -155 -455 -155 -455 -135 c 0,8,9
 -455 -108 -455 -108 -436 -89.5 c 128,-1,10
 -417 -71 -417 -71 -390 -71 c 0,11,0
 -371 -71 -371 -71 -359 -84 c 128,-1,1
-187.5 -83.5 m 128,-1,13
 -176 -96 -176 -96 -176 -117 c 0,14,15
 -176 -142 -176 -142 -195 -161.5 c 128,-1,16
 -214 -181 -214 -181 -239 -181 c 0,17,18
 -258 -181 -258 -181 -270.5 -168 c 128,-1,19
 -283 -155 -283 -155 -283 -135 c 0,20,21
 -283 -108 -283 -108 -264 -89.5 c 128,-1,22
 -245 -71 -245 -71 -218 -71 c 0,23,12
 -199 -71 -199 -71 -187.5 -83.5 c 128,-1,13
EndSplineSet
Substitution2: "<3,3> Small Caps in Latin lookup 11 subtable" uni0324.sc
EndChar

StartChar: uni0326
Encoding: 806 806 420
Width: 0
Flags: W
LayerCount: 2
Fore
SplineSet
-248 -59 m 1,0,-1
 -160 -59 l 1,1,-1
 -242 -218 l 1,2,-1
 -310 -218 l 1,3,-1
 -248 -59 l 1,0,-1
EndSplineSet
EndChar

StartChar: uni0327
Encoding: 807 807 421
Width: 0
Flags: W
LayerCount: 2
Fore
SplineSet
-198 0 m 1,0,-1
 -227 -51 l 1,1,2
 -193 -56 -193 -56 -176.5 -74 c 128,-1,3
 -160 -92 -160 -92 -160 -117 c 0,4,5
 -160 -163 -160 -163 -197.5 -190 c 128,-1,6
 -235 -217 -235 -217 -290 -217 c 0,7,8
 -340 -217 -340 -217 -380 -196 c 1,9,-1
 -347 -134 l 1,10,11
 -321 -148 -321 -148 -291 -148 c 0,12,13
 -268 -148 -268 -148 -253 -137.5 c 128,-1,14
 -238 -127 -238 -127 -238 -114 c 0,15,16
 -238 -103 -238 -103 -250 -95.5 c 128,-1,17
 -262 -88 -262 -88 -284 -88 c 2,18,-1
 -314 -88 l 1,19,-1
 -266 8 l 1,20,-1
 -198 0 l 1,0,-1
EndSplineSet
Substitution2: "<3,3> Small Caps in Latin lookup 11 subtable" uni0327.sc
EndChar

StartChar: uni0328
Encoding: 808 808 422
Width: 0
Flags: W
LayerCount: 2
Fore
SplineSet
-149 0 m 1,0,1
 -214 -42 -214 -42 -240.5 -68.5 c 128,-1,2
 -267 -95 -267 -95 -267 -120 c 0,3,4
 -267 -132 -267 -132 -260 -138.5 c 128,-1,5
 -253 -145 -253 -145 -241 -145 c 0,6,7
 -220 -145 -220 -145 -200 -135 c 1,8,-1
 -189 -197 l 1,9,10
 -231 -216 -231 -216 -274 -216 c 0,11,12
 -313 -216 -313 -216 -335.5 -198 c 128,-1,13
 -358 -180 -358 -180 -358 -146 c 0,14,15
 -358 -51 -358 -51 -201 33 c 1,16,-1
 -149 0 l 1,0,1
EndSplineSet
EndChar

StartChar: uni032E
Encoding: 814 814 423
Width: 0
Flags: W
LayerCount: 2
Fore
SplineSet
-359 -63 m 0,1,2
 -359 -88 -359 -88 -344 -104 c 128,-1,3
 -329 -120 -329 -120 -304 -120 c 0,4,5
 -276 -120 -276 -120 -253 -100 c 128,-1,6
 -230 -80 -230 -80 -222 -50 c 1,7,-1
 -157 -50 l 1,8,9
 -170 -110 -170 -110 -214.5 -147 c 128,-1,10
 -259 -184 -259 -184 -316 -184 c 0,11,12
 -366 -184 -366 -184 -395.5 -155 c 128,-1,13
 -425 -126 -425 -126 -425 -77 c 0,14,15
 -425 -68 -425 -68 -423 -50 c 1,16,-1
 -358 -50 l 1,17,0
 -359 -54 -359 -54 -359 -63 c 0,1,2
EndSplineSet
EndChar

StartChar: uni0331
Encoding: 817 817 424
Width: 0
Flags: W
LayerCount: 2
Fore
SplineSet
-430 -83 m 1,0,-1
 -183 -83 l 1,1,-1
 -195 -144 l 1,2,-1
 -442 -144 l 1,3,-1
 -430 -83 l 1,0,-1
EndSplineSet
EndChar

StartChar: uni0335
Encoding: 821 821 425
Width: 0
Flags: W
LayerCount: 2
Fore
SplineSet
-404 470 m 1,0,-1
 -74 470 l 1,1,-1
 -85 412 l 1,2,-1
 -415 412 l 1,3,-1
 -404 470 l 1,0,-1
EndSplineSet
EndChar

StartChar: uni0336
Encoding: 822 822 426
Width: 0
Flags: W
LayerCount: 2
Fore
SplineSet
-475 470 m 1,0,-1
 -73 470 l 1,1,-1
 -84 412 l 1,2,-1
 -486 412 l 1,3,-1
 -475 470 l 1,0,-1
EndSplineSet
EndChar

StartChar: uni0337
Encoding: 823 823 427
Width: 0
Flags: W
LayerCount: 2
Fore
SplineSet
-19 558 m 1,0,-1
 -267 89 l 1,1,-1
 -348 89 l 1,2,-1
 -99 558 l 1,3,-1
 -19 558 l 1,0,-1
EndSplineSet
EndChar

StartChar: uni0338
Encoding: 824 824 428
Width: 0
Flags: W
LayerCount: 2
Fore
SplineSet
-437 0 m 1,0,-1
 -44 742 l 1,1,-1
 37 742 l 1,2,-1
 -356 0 l 1,3,-1
 -437 0 l 1,0,-1
EndSplineSet
EndChar

StartChar: uni0394
Encoding: 916 916 429
Width: 726
Flags: W
LayerCount: 2
Fore
SplineSet
476 700 m 1,0,-1
 671 0 l 1,1,-1
 -50 0 l 1,2,-1
 377 700 l 1,3,-1
 476 700 l 1,0,-1
102 87 m 1,4,-1
 545 87 l 1,5,-1
 407 597 l 1,6,-1
 102 87 l 1,4,-1
EndSplineSet
EndChar

StartChar: uni03A9
Encoding: 937 937 430
Width: 892
Flags: W
LayerCount: 2
Fore
SplineSet
636.5 664.5 m 128,-1,1
 711 625 711 625 753 555.5 c 128,-1,2
 795 486 795 486 795 398 c 256,3,4
 795 310 795 310 745 222 c 128,-1,5
 695 134 695 134 619 82 c 1,6,-1
 845 82 l 1,7,-1
 829 0 l 1,8,-1
 507 0 l 1,9,-1
 516 87 l 1,10,11
 606 135 606 135 656.5 215 c 128,-1,12
 707 295 707 295 707 379 c 0,13,14
 707 444 707 444 677.5 499 c 128,-1,15
 648 554 648 554 591.5 586.5 c 128,-1,16
 535 619 535 619 459 619 c 0,17,18
 371 619 371 619 302.5 579 c 128,-1,19
 234 539 234 539 196 473 c 128,-1,20
 158 407 158 407 158 332 c 0,21,22
 158 259 158 259 194 193 c 128,-1,23
 230 127 230 127 296 87 c 1,24,-1
 288 0 l 1,25,-1
 -43 0 l 1,26,-1
 -27 82 l 1,27,-1
 191 82 l 1,28,29
 137 124 137 124 105 196 c 128,-1,30
 73 268 73 268 73 342 c 0,31,32
 73 442 73 442 125.5 525 c 128,-1,33
 178 608 178 608 268.5 656 c 128,-1,34
 359 704 359 704 467 704 c 0,35,0
 562 704 562 704 636.5 664.5 c 128,-1,1
EndSplineSet
EndChar

StartChar: uni03BC
Encoding: 956 956 431
Width: 661
Flags: W
LayerCount: 2
Fore
SplineSet
622 529 m 1,0,-1
 518 0 l 1,1,-1
 423 0 l 1,2,-1
 441 89 l 1,3,4
 375 -4 375 -4 250 -6 c 0,5,6
 171 -6 171 -6 122 28 c 1,7,-1
 78 -194 l 1,8,-1
 -15 -194 l 1,9,-1
 61 189 l 2,10,11
 63 207 63 207 65 217 c 2,12,-1
 128 529 l 1,13,-1
 222 529 l 1,14,-1
 161 224 l 2,15,16
 158 206 158 206 158 191 c 0,17,18
 158 138 158 138 190.5 108.5 c 128,-1,19
 223 79 223 79 282 79 c 0,20,21
 352 79 352 79 403.5 124 c 128,-1,22
 455 169 455 169 471 245 c 2,23,-1
 528 529 l 1,24,-1
 622 529 l 1,0,-1
EndSplineSet
EndChar

StartChar: pi
Encoding: 960 960 432
Width: 724
Flags: W
LayerCount: 2
Fore
SplineSet
754 456 m 1,0,-1
 598 456 l 1,1,-1
 507 0 l 1,2,-1
 428 0 l 1,3,-1
 519 456 l 1,4,-1
 351 456 l 1,5,-1
 208 0 l 1,6,-1
 129 0 l 1,7,-1
 271 456 l 1,8,-1
 216 456 l 2,9,10
 179 456 179 456 149 439 c 128,-1,11
 119 422 119 422 102 394 c 128,-1,12
 85 366 85 366 85 333 c 0,13,14
 85 303 85 303 97 280 c 1,15,-1
 31 260 l 1,16,17
 12 304 12 304 12 346 c 0,18,19
 12 397 12 397 37.5 438.5 c 128,-1,20
 63 480 63 480 108.5 504.5 c 128,-1,21
 154 529 154 529 213 529 c 2,22,-1
 767 529 l 1,23,-1
 754 456 l 1,0,-1
EndSplineSet
EndChar

StartChar: uni1E08
Encoding: 7688 7688 433
Width: 726
Flags: W
LayerCount: 2
Fore
SplineSet
650 860 m 1,0,-1
 527 762 l 1,1,-1
 447 772 l 1,2,-1
 554 902 l 1,3,-1
 650 860 l 1,0,-1
537.5 26 m 128,-1,5
 469 -3 469 -3 401 -7 c 1,6,-1
 376 -51 l 1,7,8
 410 -56 410 -56 426.5 -74 c 128,-1,9
 443 -92 443 -92 443 -117 c 0,10,11
 443 -163 443 -163 405.5 -190 c 128,-1,12
 368 -217 368 -217 313 -217 c 0,13,14
 263 -217 263 -217 223 -196 c 1,15,-1
 256 -134 l 1,16,17
 282 -148 282 -148 312 -148 c 0,18,19
 335 -148 335 -148 350 -137.5 c 128,-1,20
 365 -127 365 -127 365 -114 c 0,21,22
 365 -103 365 -103 353 -95.5 c 128,-1,23
 341 -88 341 -88 319 -88 c 2,24,-1
 289 -88 l 1,25,-1
 331 -3 l 1,26,27
 251 9 251 9 189 54 c 128,-1,28
 127 99 127 99 92 167.5 c 128,-1,29
 57 236 57 236 57 317 c 0,30,31
 57 423 57 423 112 512.5 c 128,-1,32
 167 602 167 602 259.5 654 c 128,-1,33
 352 706 352 706 460 706 c 0,34,35
 533 706 533 706 598.5 678.5 c 128,-1,36
 664 651 664 651 710 601 c 1,37,-1
 646 532 l 1,38,39
 610 574 610 574 559.5 597.5 c 128,-1,40
 509 621 509 621 454 621 c 0,41,42
 374 621 374 621 305.5 581 c 128,-1,43
 237 541 237 541 196 473 c 128,-1,44
 155 405 155 405 155 325 c 0,45,46
 155 258 155 258 187 202.5 c 128,-1,47
 219 147 219 147 274.5 115 c 128,-1,48
 330 83 330 83 399 83 c 0,49,50
 454 83 454 83 509 105.5 c 128,-1,51
 564 128 564 128 609 167 c 1,52,-1
 661 104 l 1,53,4
 606 55 606 55 537.5 26 c 128,-1,5
EndSplineSet
EndChar

StartChar: uni1E09
Encoding: 7689 7689 434
Width: 582
Flags: W
LayerCount: 2
Fore
SplineSet
511 710 m 1,0,-1
 388 612 l 1,1,-1
 308 622 l 1,2,-1
 415 752 l 1,3,-1
 511 710 l 1,0,-1
385 94.5 m 128,-1,5
 428 111 428 111 458 144 c 1,6,-1
 505 89 l 1,7,8
 425 1 425 1 289 -3 c 1,9,-1
 262 -51 l 1,10,11
 296 -56 296 -56 312.5 -74 c 128,-1,12
 329 -92 329 -92 329 -117 c 0,13,14
 329 -163 329 -163 291.5 -190 c 128,-1,15
 254 -217 254 -217 199 -217 c 0,16,17
 149 -217 149 -217 109 -196 c 1,18,-1
 142 -134 l 1,19,20
 168 -148 168 -148 198 -148 c 0,21,22
 221 -148 221 -148 236 -137.5 c 128,-1,23
 251 -127 251 -127 251 -114 c 0,24,25
 251 -103 251 -103 239 -95.5 c 128,-1,26
 227 -88 227 -88 205 -88 c 2,27,-1
 175 -88 l 1,28,-1
 220 3 l 1,29,30
 137 20 137 20 88.5 83 c 128,-1,31
 40 146 40 146 40 237 c 0,32,33
 40 322 40 322 78 389.5 c 128,-1,34
 116 457 116 457 183 494.5 c 128,-1,35
 250 532 250 532 333 532 c 0,36,37
 399 532 399 532 450 511.5 c 128,-1,38
 501 491 501 491 534 452 c 1,39,-1
 477 388 l 1,40,41
 420 450 420 450 328 450 c 0,42,43
 273 450 273 450 228.5 423.5 c 128,-1,44
 184 397 184 397 158.5 350 c 128,-1,45
 133 303 133 303 133 244 c 0,46,47
 133 170 133 170 177 124 c 128,-1,48
 221 78 221 78 291 78 c 0,49,4
 342 78 342 78 385 94.5 c 128,-1,5
EndSplineSet
Substitution2: "<3,3> Small Caps in Latin lookup 11 subtable" uni1E09.sc
EndChar

StartChar: uni1E1C
Encoding: 7708 7708 443
Width: 653
Flags: W
LayerCount: 2
Fore
SplineSet
368.5 790 m 128,-1,1
 339 819 339 819 339 868 c 0,2,3
 339 877 339 877 341 895 c 1,4,-1
 406 895 l 1,5,6
 405 891 405 891 405 882 c 0,7,8
 405 857 405 857 420 841 c 128,-1,9
 435 825 435 825 460 825 c 0,10,11
 488 825 488 825 511 845 c 128,-1,12
 534 865 534 865 542 895 c 1,13,-1
 607 895 l 1,14,15
 594 835 594 835 549.5 798 c 128,-1,16
 505 761 505 761 448 761 c 0,17,0
 398 761 398 761 368.5 790 c 128,-1,1
265 612 m 1,18,-1
 222 397 l 1,19,-1
 571 397 l 1,20,-1
 554 310 l 1,21,-1
 205 310 l 1,22,-1
 161 88 l 1,23,-1
 562 88 l 1,24,-1
 546 0 l 1,25,-1
 355 0 l 1,26,-1
 326 -51 l 1,27,28
 360 -56 360 -56 376.5 -74 c 128,-1,29
 393 -92 393 -92 393 -117 c 0,30,31
 393 -163 393 -163 355.5 -190 c 128,-1,32
 318 -217 318 -217 263 -217 c 0,33,34
 213 -217 213 -217 173 -196 c 1,35,-1
 206 -134 l 1,36,37
 232 -148 232 -148 262 -148 c 0,38,39
 285 -148 285 -148 300 -137.5 c 128,-1,40
 315 -127 315 -127 315 -114 c 0,41,42
 315 -103 315 -103 303 -95.5 c 128,-1,43
 291 -88 291 -88 269 -88 c 2,44,-1
 239 -88 l 1,45,-1
 283 0 l 1,46,-1
 47 0 l 1,47,-1
 187 700 l 1,48,-1
 672 700 l 1,49,-1
 656 612 l 1,50,-1
 265 612 l 1,18,-1
EndSplineSet
EndChar

StartChar: uni1E1D
Encoding: 7709 7709 444
Width: 602
Flags: W
LayerCount: 2
Fore
SplineSet
305.5 639 m 128,-1,1
 276 668 276 668 276 717 c 0,2,3
 276 726 276 726 278 744 c 1,4,-1
 343 744 l 1,5,6
 342 740 342 740 342 731 c 0,7,8
 342 706 342 706 357 690 c 128,-1,9
 372 674 372 674 397 674 c 0,10,11
 425 674 425 674 448 694 c 128,-1,12
 471 714 471 714 479 744 c 1,13,-1
 544 744 l 1,14,15
 531 684 531 684 486.5 647 c 128,-1,16
 442 610 442 610 385 610 c 0,17,0
 335 610 335 610 305.5 639 c 128,-1,1
505.5 470 m 128,-1,19
 567 408 567 408 567 304 c 0,20,21
 567 270 567 270 559 228 c 1,22,-1
 132 228 l 1,23,24
 135 156 135 156 179.5 114 c 128,-1,25
 224 72 224 72 299 72 c 0,26,27
 343 72 343 72 383 86 c 128,-1,28
 423 100 423 100 454 126 c 1,29,-1
 497 65 l 1,30,31
 422 1 422 1 315 -5 c 1,32,-1
 289 -51 l 1,33,34
 323 -56 323 -56 339.5 -74 c 128,-1,35
 356 -92 356 -92 356 -117 c 0,36,37
 356 -163 356 -163 318.5 -190 c 128,-1,38
 281 -217 281 -217 226 -217 c 0,39,40
 176 -217 176 -217 136 -196 c 1,41,-1
 169 -134 l 1,42,43
 195 -148 195 -148 225 -148 c 0,44,45
 248 -148 248 -148 263 -137.5 c 128,-1,46
 278 -127 278 -127 278 -114 c 0,47,48
 278 -103 278 -103 266 -95.5 c 128,-1,49
 254 -88 254 -88 232 -88 c 2,50,-1
 202 -88 l 1,51,-1
 245 -1 l 1,52,53
 150 13 150 13 95 76.5 c 128,-1,54
 40 140 40 140 40 237 c 0,55,56
 40 320 40 320 79 387.5 c 128,-1,57
 118 455 118 455 186 493.5 c 128,-1,58
 254 532 254 532 337 532 c 0,59,18
 444 532 444 532 505.5 470 c 128,-1,19
446 414.5 m 128,-1,61
 408 455 408 455 337 455 c 0,62,63
 267 455 267 455 213 412 c 128,-1,64
 159 369 159 369 140 300 c 1,65,-1
 483 300 l 1,66,60
 484 374 484 374 446 414.5 c 128,-1,61
EndSplineSet
Substitution2: "<3,3> Small Caps in Latin lookup 11 subtable" uni1E1D.sc
EndChar

StartChar: uni1E9E
Encoding: 7838 7838 506
Width: 695
Flags: W
LayerCount: 2
Fore
SplineSet
651 549 m 1,0,-1
 494 400 l 1,1,2
 562 387 562 387 597.5 347 c 128,-1,3
 633 307 633 307 633 246 c 0,4,5
 633 173 633 173 595.5 117 c 128,-1,6
 558 61 558 61 493 30.5 c 128,-1,7
 428 0 428 0 349 0 c 2,8,-1
 267 0 l 1,9,-1
 282 87 l 1,10,-1
 364 87 l 2,11,12
 438 87 438 87 486 127 c 128,-1,13
 534 167 534 167 534 229 c 0,14,15
 534 272 534 272 501.5 295.5 c 128,-1,16
 469 319 469 319 409 319 c 2,17,-1
 373 319 l 1,18,-1
 389 406 l 1,19,-1
 576 584 l 1,20,21
 523 620 523 620 441 620 c 0,22,23
 353 620 353 620 293 571 c 128,-1,24
 233 522 233 522 216 434 c 2,25,-1
 131 0 l 1,26,-1
 35 0 l 1,27,-1
 120 434 l 2,28,29
 145 563 145 563 233.5 634.5 c 128,-1,30
 322 706 322 706 454 706 c 0,31,32
 585 706 585 706 666 631 c 1,33,-1
 651 549 l 1,0,-1
EndSplineSet
EndChar

StartChar: figuredash
Encoding: 8210 8210 603
Width: 618
Flags: W
LayerCount: 2
Fore
SplineSet
14 335 m 1,0,-1
 631 335 l 1,1,-1
 619 270 l 1,2,-1
 2 270 l 1,3,-1
 14 335 l 1,0,-1
EndSplineSet
EndChar

StartChar: endash
Encoding: 8211 8211 604
Width: 405
Flags: W
LayerCount: 2
Fore
SplineSet
418 336 m 1,0,-1
 406 270 l 1,1,-1
 2 270 l 1,2,-1
 14 336 l 1,3,-1
 418 336 l 1,0,-1
EndSplineSet
EndChar

StartChar: emdash
Encoding: 8212 8212 605
Width: 707
Flags: W
LayerCount: 2
Fore
SplineSet
720 336 m 1,0,-1
 708 270 l 1,1,-1
 2 270 l 1,2,-1
 14 336 l 1,3,-1
 720 336 l 1,0,-1
EndSplineSet
EndChar

StartChar: quoteleft
Encoding: 8216 8216 607
Width: 196
Flags: W
LayerCount: 2
Fore
SplineSet
211 584 m 0,1,2
 209 559 209 559 192.5 544 c 128,-1,3
 176 529 176 529 153 529 c 0,4,5
 131 529 131 529 116 544 c 128,-1,6
 101 559 101 559 104 584 c 0,7,8
 105 595 105 595 109 604.5 c 128,-1,9
 113 614 113 614 123 630 c 2,10,-1
 187 742 l 1,11,-1
 237 742 l 1,12,-1
 188 631 l 1,13,0
 213 618 213 618 211 584 c 0,1,2
EndSplineSet
Substitution2: "<3,3> Small Caps in Latin lookup 11 subtable" quoteleft.sc
EndChar

StartChar: quoteright
Encoding: 8217 8217 608
Width: 196
Flags: W
LayerCount: 2
Fore
SplineSet
222 727 m 128,-1,1
 237 712 237 712 234 687 c 0,2,3
 233 676 233 676 229 666.5 c 128,-1,4
 225 657 225 657 215 641 c 2,5,-1
 151 529 l 1,6,-1
 101 529 l 1,7,-1
 150 640 l 1,8,9
 125 653 125 653 127 687 c 0,10,11
 129 712 129 712 145.5 727 c 128,-1,12
 162 742 162 742 185 742 c 0,13,0
 207 742 207 742 222 727 c 128,-1,1
EndSplineSet
Substitution2: "<3,3> Small Caps in Latin lookup 11 subtable" quoteright.sc
EndChar

StartChar: quotesinglbase
Encoding: 8218 8218 609
Width: 196
Flags: W
LayerCount: 2
Fore
SplineSet
93 88 m 128,-1,1
 108 73 108 73 105 48 c 0,2,3
 104 37 104 37 100 27.5 c 128,-1,4
 96 18 96 18 86 2 c 2,5,-1
 22 -110 l 1,6,-1
 -28 -110 l 1,7,-1
 21 1 l 1,8,9
 -4 14 -4 14 -2 48 c 0,10,11
 0 73 0 73 16.5 88 c 128,-1,12
 33 103 33 103 56 103 c 0,13,0
 78 103 78 103 93 88 c 128,-1,1
EndSplineSet
EndChar

StartChar: dagger
Encoding: 8224 8224 613
Width: 524
Flags: W
LayerCount: 2
Fore
SplineSet
392 699 m 1,0,-1
 348 481 l 1,1,-1
 553 481 l 1,2,-1
 536 394 l 1,3,-1
 332 394 l 1,4,-1
 214 -191 l 1,5,-1
 125 -191 l 1,6,-1
 243 394 l 1,7,-1
 41 394 l 1,8,-1
 57 481 l 1,9,-1
 259 481 l 1,10,-1
 303 699 l 1,11,-1
 392 699 l 1,0,-1
EndSplineSet
EndChar

StartChar: daggerdbl
Encoding: 8225 8225 614
Width: 524
Flags: W
LayerCount: 2
Fore
SplineSet
537 394 m 1,0,-1
 332 394 l 1,1,-1
 281 139 l 1,2,-1
 484 139 l 1,3,-1
 468 52 l 1,4,-1
 263 52 l 1,5,-1
 214 -191 l 1,6,-1
 125 -191 l 1,7,-1
 174 52 l 1,8,-1
 -28 52 l 1,9,-1
 -12 139 l 1,10,-1
 192 139 l 1,11,-1
 243 394 l 1,12,-1
 41 394 l 1,13,-1
 57 481 l 1,14,-1
 259 481 l 1,15,-1
 303 699 l 1,16,-1
 393 699 l 1,17,-1
 349 481 l 1,18,-1
 553 481 l 1,19,-1
 537 394 l 1,0,-1
EndSplineSet
EndChar

StartChar: bullet
Encoding: 8226 8226 615
Width: 268
Flags: W
LayerCount: 2
Fore
SplineSet
192.5 328.5 m 128,-1,1
 216 305 216 305 216 268 c 256,2,3
 216 231 216 231 192.5 206 c 128,-1,4
 169 181 169 181 134 181 c 256,5,6
 99 181 99 181 75.5 206 c 128,-1,7
 52 231 52 231 52 268 c 256,8,9
 52 305 52 305 75.5 328.5 c 128,-1,10
 99 352 99 352 134 352 c 256,11,0
 169 352 169 352 192.5 328.5 c 128,-1,1
EndSplineSet
EndChar

StartChar: ellipsis
Encoding: 8230 8230 616
Width: 585
Flags: W
LayerCount: 2
Fore
SplineSet
99 88.5 m 128,-1,1
 112 75 112 75 112 52 c 0,2,3
 112 26 112 26 95.5 8.5 c 128,-1,4
 79 -9 79 -9 54 -9 c 0,5,6
 33 -9 33 -9 20 5.5 c 128,-1,7
 7 20 7 20 7 42 c 0,8,9
 7 67 7 67 23.5 84.5 c 128,-1,10
 40 102 40 102 64 102 c 0,11,0
 86 102 86 102 99 88.5 c 128,-1,1
289 88.5 m 128,-1,13
 302 75 302 75 302 52 c 0,14,15
 302 26 302 26 285.5 8.5 c 128,-1,16
 269 -9 269 -9 244 -9 c 0,17,18
 223 -9 223 -9 210 5.5 c 128,-1,19
 197 20 197 20 197 42 c 0,20,21
 197 67 197 67 213.5 84.5 c 128,-1,22
 230 102 230 102 254 102 c 0,23,12
 276 102 276 102 289 88.5 c 128,-1,13
478 88.5 m 128,-1,25
 491 75 491 75 491 52 c 0,26,27
 491 26 491 26 474.5 8.5 c 128,-1,28
 458 -9 458 -9 433 -9 c 0,29,30
 412 -9 412 -9 399 5.5 c 128,-1,31
 386 20 386 20 386 42 c 0,32,33
 386 67 386 67 402.5 84.5 c 128,-1,34
 419 102 419 102 443 102 c 0,35,24
 465 102 465 102 478 88.5 c 128,-1,25
EndSplineSet
EndChar

StartChar: minute
Encoding: 8242 8242 618
Width: 189
Flags: W
LayerCount: 2
Fore
SplineSet
145 700 m 1,0,-1
 234 700 l 1,1,-1
 146 460 l 1,2,-1
 81 460 l 1,3,-1
 145 700 l 1,0,-1
EndSplineSet
EndChar

StartChar: guilsinglleft
Encoding: 8249 8249 620
Width: 275
Flags: W
LayerCount: 2
Fore
SplineSet
257 427 m 1,0,-1
 114 254 l 1,1,-1
 191 88 l 1,2,-1
 111 88 l 1,3,-1
 30 257 l 1,4,-1
 177 427 l 1,5,-1
 257 427 l 1,0,-1
EndSplineSet
Substitution2: "<3,3> Small Caps in Latin lookup 11 subtable" guilsinglleft.sc
Substitution2: "'rtla' Right to Left Alternates lookup 0 subtable" guilsinglright
EndChar

StartChar: guilsinglright
Encoding: 8250 8250 621
Width: 284
Flags: W
LayerCount: 2
Fore
SplineSet
42 88 m 1,0,-1
 185 261 l 1,1,-1
 108 427 l 1,2,-1
 188 427 l 1,3,-1
 269 258 l 1,4,-1
 122 88 l 1,5,-1
 42 88 l 1,0,-1
EndSplineSet
Substitution2: "<3,3> Small Caps in Latin lookup 11 subtable" guilsinglright.sc
Substitution2: "'rtla' Right to Left Alternates lookup 0 subtable" guilsinglleft
EndChar

StartChar: fraction
Encoding: 8260 8260 622
Width: 158
Flags: W
LayerCount: 2
Fore
SplineSet
-133 0 m 1,0,-1
 -203 0 l 1,1,-1
 317 700 l 1,2,-1
 386 700 l 1,3,-1
 -133 0 l 1,0,-1
EndSplineSet
EndChar

StartChar: colonmonetary
Encoding: 8353 8353 640
Width: 726
Flags: W
LayerCount: 2
Fore
SplineSet
660 106 m 1,0,1
 613 65 613 65 556.5 37.5 c 128,-1,2
 500 10 500 10 441 0 c 1,3,-1
 398 -137 l 1,4,-1
 325 -137 l 1,5,-1
 367 -4 l 1,6,7
 334 -1 334 -1 304 5 c 1,8,-1
 259 -137 l 1,9,-1
 186 -137 l 1,10,-1
 238 28 l 1,11,12
 154 67 154 67 105 144 c 128,-1,13
 56 221 56 221 56 318 c 0,14,15
 56 408 56 408 97 486.5 c 128,-1,16
 138 565 138 565 209 619 c 128,-1,17
 280 673 280 673 368 692 c 1,18,-1
 411 827 l 1,19,-1
 484 827 l 1,20,-1
 444 702 l 1,21,-1
 458 702 l 2,22,23
 486 702 486 702 509 698 c 1,24,-1
 550 827 l 1,25,-1
 623 827 l 1,26,-1
 577 682 l 1,27,28
 656 654 656 654 708 598 c 1,29,-1
 645 529 l 1,30,31
 609 570 609 570 558 593.5 c 128,-1,32
 507 617 507 617 452 617 c 0,33,34
 373 617 373 617 304 577.5 c 128,-1,35
 235 538 235 538 194.5 471 c 128,-1,36
 154 404 154 404 154 325 c 0,37,38
 154 259 154 259 186 204.5 c 128,-1,39
 218 150 218 150 273.5 118 c 128,-1,40
 329 86 329 86 398 86 c 0,41,42
 453 86 453 86 508 108 c 128,-1,43
 563 130 563 130 608 169 c 1,44,-1
 660 106 l 1,0,1
EndSplineSet
EndChar

StartChar: franc
Encoding: 8355 8355 641
Width: 562
Flags: W
LayerCount: 2
Fore
SplineSet
619 612 m 1,0,-1
 260 612 l 1,1,-1
 214 383 l 1,2,-1
 537 383 l 1,3,-1
 520 296 l 1,4,-1
 196 296 l 1,5,-1
 174 182 l 1,6,-1
 424 182 l 1,7,-1
 414 129 l 1,8,-1
 163 129 l 1,9,-1
 138 0 l 1,10,-1
 41 0 l 1,11,-1
 67 129 l 1,12,-1
 -14 129 l 1,13,-1
 -4 182 l 1,14,-1
 77 182 l 1,15,-1
 181 700 l 1,16,-1
 637 700 l 1,17,-1
 619 612 l 1,0,-1
EndSplineSet
EndChar

StartChar: lira
Encoding: 8356 8356 642
Width: 544
Flags: W
LayerCount: 2
Fore
SplineSet
518 680 m 128,-1,1
 563 656 563 656 592 612 c 1,2,-1
 538 538 l 1,3,4
 489 617 489 617 411 617 c 0,5,6
 354 617 354 617 316.5 583.5 c 128,-1,7
 279 550 279 550 266 485 c 2,8,-1
 254 428 l 1,9,-1
 434 428 l 1,10,-1
 424 375 l 1,11,-1
 244 375 l 1,12,-1
 231 310 l 1,13,-1
 411 310 l 1,14,-1
 401 256 l 1,15,-1
 220 256 l 1,16,-1
 184 79 l 1,17,-1
 472 79 l 1,18,-1
 457 0 l 1,19,-1
 -12 0 l 1,20,-1
 2 79 l 1,21,-1
 89 79 l 1,22,-1
 125 256 l 1,23,-1
 39 256 l 1,24,-1
 50 310 l 1,25,-1
 135 310 l 1,26,-1
 148 375 l 1,27,-1
 62 375 l 1,28,-1
 72 428 l 1,29,-1
 159 428 l 1,30,-1
 171 487 l 2,31,32
 191 591 191 591 255 647.5 c 128,-1,33
 319 704 319 704 417 704 c 0,34,0
 473 704 473 704 518 680 c 128,-1,1
EndSplineSet
EndChar

StartChar: uni20A6
Encoding: 8358 8358 643
Width: 840
Flags: W
LayerCount: 2
Fore
SplineSet
820 375 m 1,0,-1
 738 375 l 1,1,-1
 725 310 l 1,2,-1
 807 310 l 1,3,-1
 797 256 l 1,4,-1
 714 256 l 1,5,-1
 663 0 l 1,6,-1
 566 0 l 1,7,-1
 430 256 l 1,8,-1
 218 256 l 1,9,-1
 167 0 l 1,10,-1
 70 0 l 1,11,-1
 121 256 l 1,12,-1
 40 256 l 1,13,-1
 51 310 l 1,14,-1
 132 310 l 1,15,-1
 145 375 l 1,16,-1
 63 375 l 1,17,-1
 73 428 l 1,18,-1
 156 428 l 1,19,-1
 210 700 l 1,20,-1
 307 700 l 1,21,-1
 453 428 l 1,22,-1
 654 428 l 1,23,-1
 709 700 l 1,24,-1
 803 700 l 1,25,-1
 749 428 l 1,26,-1
 831 428 l 1,27,-1
 820 375 l 1,0,-1
276 544 m 1,28,-1
 253 428 l 1,29,-1
 338 428 l 1,30,-1
 276 544 l 1,28,-1
229 310 m 1,31,-1
 401 310 l 1,32,-1
 366 375 l 1,33,-1
 242 375 l 1,34,-1
 229 310 l 1,31,-1
630 310 m 1,35,-1
 643 375 l 1,36,-1
 481 375 l 1,37,-1
 516 310 l 1,38,-1
 630 310 l 1,35,-1
598 156 m 1,39,-1
 619 256 l 1,40,-1
 545 256 l 1,41,-1
 598 156 l 1,39,-1
EndSplineSet
EndChar

StartChar: uni20A9
Encoding: 8361 8361 645
Width: 952
Flags: W
LayerCount: 2
Fore
SplineSet
1017 700 m 1,0,-1
 895 428 l 1,1,-1
 976 428 l 1,2,-1
 966 375 l 1,3,-1
 871 375 l 1,4,-1
 842 310 l 1,5,-1
 924 310 l 1,6,-1
 914 256 l 1,7,-1
 817 256 l 1,8,-1
 702 0 l 1,9,-1
 611 0 l 1,10,-1
 578 256 l 1,11,-1
 400 256 l 1,12,-1
 290 0 l 1,13,-1
 199 0 l 1,14,-1
 160 256 l 1,15,-1
 61 256 l 1,16,-1
 71 310 l 1,17,-1
 152 310 l 1,18,-1
 142 375 l 1,19,-1
 42 375 l 1,20,-1
 52 428 l 1,21,-1
 134 428 l 1,22,-1
 93 700 l 1,23,-1
 189 700 l 1,24,-1
 227 428 l 1,25,-1
 394 428 l 1,26,-1
 509 699 l 1,27,-1
 606 700 l 1,28,-1
 640 428 l 1,29,-1
 804 428 l 1,30,-1
 919 700 l 1,31,-1
 1017 700 l 1,0,-1
537 574 m 1,32,-1
 474 428 l 1,33,-1
 556 428 l 1,34,-1
 537 574 l 1,32,-1
235 375 m 1,35,-1
 244 310 l 1,36,-1
 344 310 l 1,37,-1
 372 375 l 1,38,-1
 235 375 l 1,35,-1
423 310 m 1,39,-1
 571 310 l 1,40,-1
 562 375 l 1,41,-1
 451 375 l 1,42,-1
 423 310 l 1,39,-1
754 310 m 1,43,-1
 781 375 l 1,44,-1
 647 375 l 1,45,-1
 655 310 l 1,46,-1
 754 310 l 1,43,-1
269 133 m 1,47,-1
 321 256 l 1,48,-1
 252 256 l 1,49,-1
 269 133 l 1,47,-1
677 131 m 1,50,-1
 731 256 l 1,51,-1
 662 256 l 1,52,-1
 677 131 l 1,50,-1
EndSplineSet
EndChar

StartChar: dong
Encoding: 8363 8363 646
Width: 684
Flags: W
LayerCount: 2
Fore
SplineSet
721 587 m 1,0,-1
 652 587 l 1,1,-1
 535 0 l 1,2,-1
 442 0 l 1,3,-1
 460 86 l 1,4,5
 423 43 423 43 372 19 c 128,-1,6
 321 -5 321 -5 262 -5 c 0,7,8
 196 -5 196 -5 145.5 25 c 128,-1,9
 95 55 95 55 67 108.5 c 128,-1,10
 39 162 39 162 39 232 c 0,11,12
 39 316 39 316 76.5 385 c 128,-1,13
 114 454 114 454 180 493.5 c 128,-1,14
 246 533 246 533 326 533 c 0,15,16
 400 533 400 533 450.5 499 c 128,-1,17
 501 465 501 465 521 403 c 1,18,-1
 558 587 l 1,19,-1
 412 587 l 1,20,-1
 422 640 l 1,21,-1
 569 640 l 1,22,-1
 590 742 l 1,23,-1
 683 742 l 1,24,-1
 663 640 l 1,25,-1
 731 640 l 1,26,-1
 721 587 l 1,0,-1
394 101.5 m 128,-1,28
 440 130 440 130 467 179 c 128,-1,29
 494 228 494 228 494 287 c 0,30,31
 494 361 494 361 450.5 406 c 128,-1,32
 407 451 407 451 337 451 c 0,33,34
 281 451 281 451 234.5 422 c 128,-1,35
 188 393 188 393 160.5 344 c 128,-1,36
 133 295 133 295 133 237 c 0,37,38
 133 164 133 164 177.5 118.5 c 128,-1,39
 222 73 222 73 293 73 c 0,40,27
 348 73 348 73 394 101.5 c 128,-1,28
58 -123 m 1,41,-1
 69 -70 l 1,42,-1
 503 -70 l 1,43,-1
 493 -123 l 1,44,-1
 58 -123 l 1,41,-1
EndSplineSet
EndChar

StartChar: Euro
Encoding: 8364 8364 647
Width: 797
Flags: W
LayerCount: 2
Fore
SplineSet
579.5 108 m 128,-1,1
 634 130 634 130 680 169 c 1,2,-1
 732 106 l 1,3,4
 674 55 674 55 601.5 25.5 c 128,-1,5
 529 -4 529 -4 457 -4 c 0,6,7
 374 -4 374 -4 305 29.5 c 128,-1,8
 236 63 236 63 191 122 c 128,-1,9
 146 181 146 181 133 256 c 1,10,-1
 26 256 l 1,11,-1
 36 310 l 1,12,-1
 128 310 l 1,13,-1
 128 326 l 2,14,15
 128 343 128 343 132 375 c 1,16,-1
 49 375 l 1,17,-1
 59 428 l 1,18,-1
 145 428 l 1,19,20
 170 507 170 507 227 569.5 c 128,-1,21
 284 632 284 632 363 667 c 128,-1,22
 442 702 442 702 530 702 c 0,23,24
 602 702 602 702 668 674.5 c 128,-1,25
 734 647 734 647 780 598 c 1,26,-1
 717 529 l 1,27,28
 681 570 681 570 630 593.5 c 128,-1,29
 579 617 579 617 523 617 c 0,30,31
 431 617 431 617 354.5 564.5 c 128,-1,32
 278 512 278 512 245 428 c 1,33,-1
 553 428 l 1,34,-1
 542 375 l 1,35,-1
 230 375 l 1,36,37
 226 347 226 347 226 333 c 2,38,-1
 226 310 l 1,39,-1
 529 310 l 1,40,-1
 518 256 l 1,41,-1
 236 256 l 1,42,43
 257 180 257 180 320.5 133 c 128,-1,44
 384 86 384 86 470 86 c 0,45,0
 525 86 525 86 579.5 108 c 128,-1,1
EndSplineSet
EndChar

StartChar: uni20AD
Encoding: 8365 8365 648
Width: 660
Flags: W
LayerCount: 2
Fore
SplineSet
572 325 m 1,0,-1
 309 325 l 1,1,-1
 588 0 l 1,2,-1
 470 0 l 1,3,-1
 196 325 l 1,4,-1
 133 0 l 1,5,-1
 37 0 l 1,6,-1
 100 325 l 1,7,-1
 18 325 l 1,8,-1
 28 378 l 1,9,-1
 110 378 l 1,10,-1
 173 700 l 1,11,-1
 269 700 l 1,12,-1
 207 380 l 1,13,-1
 560 700 l 1,14,-1
 675 700 l 1,15,-1
 316 378 l 1,16,-1
 582 378 l 1,17,-1
 572 325 l 1,0,-1
EndSplineSet
EndChar

StartChar: uni20B1
Encoding: 8369 8369 649
Width: 765
Flags: W
LayerCount: 2
Fore
SplineSet
713 491 m 1,0,1
 710 451 710 451 702 426 c 1,2,-1
 783 426 l 1,3,-1
 773 373 l 1,4,-1
 682 373 l 1,5,6
 646 299 646 299 569 258.5 c 128,-1,7
 492 218 492 218 384 218 c 2,8,-1
 210 218 l 1,9,-1
 166 0 l 1,10,-1
 70 0 l 1,11,-1
 145 373 l 1,12,-1
 62 373 l 1,13,-1
 73 426 l 1,14,-1
 155 426 l 1,15,-1
 168 491 l 1,16,-1
 85 491 l 1,17,-1
 95 545 l 1,18,-1
 179 545 l 1,19,-1
 210 700 l 1,20,-1
 480 700 l 2,21,22
 581 700 581 700 640 659.5 c 128,-1,23
 699 619 699 619 710 545 c 1,24,-1
 806 545 l 1,25,-1
 796 491 l 1,26,-1
 713 491 l 1,0,1
275 545 m 1,27,-1
 608 545 l 1,28,29
 592 578 592 578 554.5 595 c 128,-1,30
 517 612 517 612 460 612 c 2,31,-1
 288 612 l 1,32,-1
 275 545 l 1,27,-1
619 491 m 1,34,-1
 264 491 l 1,35,-1
 251 426 l 1,36,-1
 609 426 l 1,37,33
 619 453 619 453 619 491 c 1,34,-1
580 373 m 1,39,-1
 240 373 l 1,40,-1
 227 305 l 1,41,-1
 397 305 l 2,42,38
 521 305 521 305 580 373 c 1,39,-1
EndSplineSet
EndChar

StartChar: uni20B2
Encoding: 8370 8370 650
Width: 765
Flags: W
LayerCount: 2
Fore
SplineSet
616 342 m 1,0,-1
 700 342 l 1,1,-1
 650 87 l 1,2,3
 590 44 590 44 523.5 20 c 128,-1,4
 457 -4 457 -4 389 -4 c 2,5,-1
 377 -4 l 1,6,-1
 352 -137 l 1,7,-1
 280 -137 l 1,8,-1
 306 5 l 1,9,10
 232 22 232 22 175.5 67 c 128,-1,11
 119 112 119 112 87.5 177 c 128,-1,12
 56 242 56 242 56 319 c 0,13,14
 56 420 56 420 109 506.5 c 128,-1,15
 162 593 162 593 252.5 645.5 c 128,-1,16
 343 698 343 698 449 702 c 1,17,-1
 472 826 l 1,18,-1
 545 826 l 1,19,-1
 521 698 l 1,20,21
 577 690 577 690 628 666 c 128,-1,22
 679 642 679 642 717 606 c 1,23,-1
 655 536 l 1,24,25
 617 574 617 574 565 595.5 c 128,-1,26
 513 617 513 617 456 617 c 0,27,28
 376 617 376 617 306.5 577.5 c 128,-1,29
 237 538 237 538 195.5 470.5 c 128,-1,30
 154 403 154 403 154 324 c 0,31,32
 154 257 154 257 186.5 201.5 c 128,-1,33
 219 146 219 146 275.5 114 c 128,-1,34
 332 82 332 82 403 82 c 0,35,36
 488 82 488 82 575 135 c 1,37,-1
 616 342 l 1,0,-1
EndSplineSet
EndChar

StartChar: uni20B5
Encoding: 8373 8373 651
Width: 726
Flags: W
LayerCount: 2
Fore
SplineSet
508 108 m 128,-1,1
 563 130 563 130 608 169 c 1,2,-1
 660 106 l 1,3,4
 602 55 602 55 530 25.5 c 128,-1,5
 458 -4 458 -4 386 -4 c 2,6,-1
 377 -4 l 1,7,-1
 352 -137 l 1,8,-1
 280 -137 l 1,9,-1
 306 5 l 1,10,11
 232 21 232 21 175.5 66 c 128,-1,12
 119 111 119 111 87.5 176.5 c 128,-1,13
 56 242 56 242 56 319 c 0,14,15
 56 421 56 421 109.5 508.5 c 128,-1,16
 163 596 163 596 253 648 c 128,-1,17
 343 700 343 700 449 702 c 1,18,-1
 472 826 l 1,19,-1
 545 826 l 1,20,-1
 521 697 l 1,21,22
 576 687 576 687 624.5 661.5 c 128,-1,23
 673 636 673 636 708 598 c 1,24,-1
 645 529 l 1,25,26
 609 570 609 570 558 593.5 c 128,-1,27
 507 617 507 617 452 617 c 0,28,29
 373 617 373 617 304 577.5 c 128,-1,30
 235 538 235 538 194.5 471 c 128,-1,31
 154 404 154 404 154 325 c 0,32,33
 154 259 154 259 186 204.5 c 128,-1,34
 218 150 218 150 273.5 118 c 128,-1,35
 329 86 329 86 398 86 c 0,36,0
 453 86 453 86 508 108 c 128,-1,1
EndSplineSet
EndChar

StartChar: uni20B9
Encoding: 8377 8377 652
Width: 644
Flags: W
LayerCount: 2
Fore
SplineSet
653 612 m 1,0,-1
 527 612 l 1,1,2
 554 570 554 570 554 510 c 0,3,4
 554 495 554 495 553 487 c 1,5,-1
 628 487 l 1,6,-1
 619 433 l 1,7,-1
 545 433 l 1,8,9
 530 370 530 370 490.5 323.5 c 128,-1,10
 451 277 451 277 391 251 c 1,11,-1
 536 0 l 1,12,-1
 427 0 l 1,13,-1
 302 224 l 1,14,15
 264 218 264 218 221 218 c 2,16,-1
 34 218 l 1,17,-1
 50 305 l 1,18,-1
 237 305 l 2,19,20
 324 305 324 305 379.5 338 c 128,-1,21
 435 371 435 371 452 433 c 1,22,-1
 77 433 l 1,23,-1
 86 487 l 1,24,-1
 460 487 l 1,25,-1
 460 492 l 2,26,27
 460 551 460 551 419 581.5 c 128,-1,28
 378 612 378 612 300 612 c 2,29,-1
 111 612 l 1,30,-1
 128 700 l 1,31,-1
 670 700 l 1,32,-1
 653 612 l 1,0,-1
EndSplineSet
EndChar

StartChar: uni20BA
Encoding: 8378 8378 653
Width: 712
Flags: W
LayerCount: 2
Fore
SplineSet
677 354 m 1,0,1
 644 187 644 187 528 93.5 c 128,-1,2
 412 0 412 0 238 0 c 2,3,-1
 78 0 l 1,4,-1
 142 322 l 1,5,-1
 48 297 l 1,6,-1
 59 359 l 1,7,-1
 155 385 l 1,8,-1
 171 466 l 1,9,-1
 76 440 l 1,10,-1
 88 502 l 1,11,-1
 184 528 l 1,12,-1
 218 700 l 1,13,-1
 314 700 l 1,14,-1
 285 555 l 1,15,-1
 583 635 l 1,16,-1
 570 573 l 1,17,-1
 272 493 l 1,18,-1
 256 412 l 1,19,-1
 554 491 l 1,20,-1
 542 430 l 1,21,-1
 244 350 l 1,22,-1
 190 82 l 1,23,-1
 259 82 l 2,24,25
 388 82 388 82 475 153.5 c 128,-1,26
 562 225 562 225 587 353 c 1,27,-1
 677 354 l 1,0,1
EndSplineSet
EndChar

StartChar: uni20BC
Encoding: 8380 8380 654
Width: 834
Flags: W
LayerCount: 2
Fore
SplineSet
705 541.5 m 128,-1,1
 766 484 766 484 766 386 c 0,2,3
 766 351 766 351 759 317 c 2,4,-1
 697 0 l 1,5,-1
 600 0 l 1,6,-1
 663 317 l 2,7,8
 669 344 669 344 669 369 c 0,9,10
 669 435 669 435 628.5 474 c 128,-1,11
 588 513 588 513 510 521 c 1,12,-1
 405 0 l 1,13,-1
 332 0 l 1,14,-1
 437 522 l 1,15,16
 341 514 341 514 275.5 459.5 c 128,-1,17
 210 405 210 405 192 317 c 2,18,-1
 129 0 l 1,19,-1
 33 0 l 1,20,-1
 96 317 l 2,21,22
 121 446 121 446 217.5 523.5 c 128,-1,23
 314 601 314 601 455 609 c 1,24,-1
 473 700 l 1,25,-1
 546 700 l 1,26,-1
 528 608 l 1,27,0
 644 599 644 599 705 541.5 c 128,-1,1
EndSplineSet
EndChar

StartChar: uni20BD
Encoding: 8381 8381 655
Width: 670
Flags: W
LayerCount: 2
Fore
SplineSet
176 231 m 1,0,-1
 163 161 l 1,1,-1
 413 161 l 1,2,-1
 403 108 l 1,3,-1
 152 108 l 1,4,-1
 131 0 l 1,5,-1
 35 0 l 1,6,-1
 57 108 l 1,7,-1
 -25 108 l 1,8,-1
 -15 161 l 1,9,-1
 67 161 l 1,10,-1
 175 700 l 1,11,-1
 444 700 l 2,12,13
 556 700 556 700 617 651.5 c 128,-1,14
 678 603 678 603 678 517 c 0,15,16
 678 430 678 430 638.5 365.5 c 128,-1,17
 599 301 599 301 524.5 266 c 128,-1,18
 450 231 450 231 349 231 c 2,19,-1
 176 231 l 1,0,-1
542.5 582.5 m 128,-1,21
 501 612 501 612 424 612 c 2,22,-1
 253 612 l 1,23,-1
 194 318 l 1,24,-1
 362 318 l 2,25,26
 467 318 467 318 525.5 364.5 c 128,-1,27
 584 411 584 411 584 499 c 0,28,20
 584 553 584 553 542.5 582.5 c 128,-1,21
EndSplineSet
EndChar

StartChar: uni2113
Encoding: 8467 8467 656
Width: 469
Flags: W
LayerCount: 2
Fore
SplineSet
413.5 677 m 128,-1,1
 440 649 440 649 440 597 c 0,2,3
 440 504 440 504 365.5 407.5 c 128,-1,4
 291 311 291 311 169 219 c 1,5,6
 158 170 158 170 158 141 c 0,7,8
 158 105 158 105 173.5 88 c 128,-1,9
 189 71 189 71 222 71 c 0,10,11
 262 71 262 71 298.5 94 c 128,-1,12
 335 117 335 117 372 158 c 1,13,-1
 403 118 l 1,14,15
 311 -3 311 -3 197 -3 c 0,16,17
 84 -3 84 -3 84 124 c 0,18,19
 84 146 84 146 87 168 c 1,20,-1
 29 130 l 1,21,-1
 15 177 l 1,22,-1
 100 237 l 1,23,-1
 164 513 l 2,24,25
 189 608 189 608 236 656.5 c 128,-1,26
 283 705 283 705 342 705 c 0,27,0
 387 705 387 705 413.5 677 c 128,-1,1
282 614 m 128,-1,29
 256 583 256 583 239 519 c 2,30,-1
 187 302 l 1,31,32
 275 372 275 372 328 451 c 128,-1,33
 381 530 381 530 381 593 c 0,34,35
 381 618 381 618 369 631.5 c 128,-1,36
 357 645 357 645 337 645 c 0,37,28
 308 645 308 645 282 614 c 128,-1,29
EndSplineSet
EndChar

StartChar: uni2116
Encoding: 8470 8470 657
Width: 1258
Flags: W
LayerCount: 2
Fore
SplineSet
1177.5 669.5 m 128,-1,1
 1220 631 1220 631 1220 566 c 0,2,3
 1220 516 1220 516 1196 476 c 128,-1,4
 1172 436 1172 436 1129.5 414 c 128,-1,5
 1087 392 1087 392 1035 392 c 0,6,7
 965 392 965 392 922.5 431 c 128,-1,8
 880 470 880 470 880 534 c 0,9,10
 880 585 880 585 904 624.5 c 128,-1,11
 928 664 928 664 970 686 c 128,-1,12
 1012 708 1012 708 1065 708 c 0,13,0
 1135 708 1135 708 1177.5 669.5 c 128,-1,1
633 157 m 1,14,-1
 743 700 l 1,15,-1
 838 700 l 1,16,-1
 698 0 l 1,17,-1
 601 0 l 1,18,-1
 311 543 l 1,19,-1
 201 0 l 1,20,-1
 105 0 l 1,21,-1
 245 700 l 1,22,-1
 342 700 l 1,23,-1
 633 157 l 1,14,-1
1125.5 628 m 128,-1,25
 1101 653 1101 653 1060 653 c 0,26,27
 1012 653 1012 653 980 621 c 128,-1,28
 948 589 948 589 948 539 c 0,29,30
 948 497 948 497 973 471.5 c 128,-1,31
 998 446 998 446 1039 446 c 0,32,33
 1087 446 1087 446 1118.5 478.5 c 128,-1,34
 1150 511 1150 511 1150 562 c 0,35,24
 1150 603 1150 603 1125.5 628 c 128,-1,25
877 240 m 1,36,-1
 889 306 l 1,37,-1
 1136 306 l 1,38,-1
 1123 240 l 1,39,-1
 877 240 l 1,36,-1
EndSplineSet
EndChar

StartChar: trademark
Encoding: 8482 8482 658
Width: 905
Flags: W
LayerCount: 2
Fore
SplineSet
425 700 m 1,0,-1
 413 638 l 1,1,-1
 286 638 l 1,2,-1
 203 280 l 1,3,-1
 133 280 l 1,4,-1
 215 638 l 1,5,-1
 89 638 l 1,6,-1
 101 700 l 1,7,-1
 425 700 l 1,0,-1
929 700 m 1,8,-1
 834 280 l 1,9,-1
 769 280 l 1,10,-1
 844 600 l 1,11,-1
 646 324 l 1,12,-1
 600 324 l 1,13,-1
 532 600 l 1,14,-1
 457 280 l 1,15,-1
 392 280 l 1,16,-1
 487 700 l 1,17,-1
 570 700 l 1,18,-1
 642 416 l 1,19,-1
 844 700 l 1,20,-1
 929 700 l 1,8,-1
EndSplineSet
EndChar

StartChar: estimated
Encoding: 8494 8494 660
Width: 816
Flags: W
LayerCount: 2
Fore
SplineSet
208 308 m 2,1,-1
 208 144 l 2,2,3
 208 135 208 135 216 125 c 0,4,5
 255 83 255 83 308.5 59.5 c 128,-1,6
 362 36 362 36 422 36 c 0,7,8
 485 36 485 36 541.5 62.5 c 128,-1,9
 598 89 598 89 637 135 c 1,10,-1
 686 135 l 1,11,12
 640 81 640 81 570 49.5 c 128,-1,13
 500 18 500 18 421 18 c 0,14,15
 330 18 330 18 253 58.5 c 128,-1,16
 176 99 176 99 131 168 c 128,-1,17
 86 237 86 237 86 319 c 256,18,19
 86 401 86 401 131 470.5 c 128,-1,20
 176 540 176 540 253 580.5 c 128,-1,21
 330 621 330 621 421 621 c 256,22,23
 512 621 512 621 589 580.5 c 128,-1,24
 666 540 666 540 711 470.5 c 128,-1,25
 756 401 756 401 756 319 c 2,26,-1
 756 312 l 1,27,-1
 213 312 l 2,28,0
 208 312 208 312 208 308 c 2,1,-1
625 518 m 0,30,31
 585 558 585 558 532.5 580.5 c 128,-1,32
 480 603 480 603 422 603 c 0,33,34
 363 603 363 603 310 579.5 c 128,-1,35
 257 556 257 556 217 515 c 0,36,37
 208 506 208 506 208 495 c 2,38,-1
 208 333 l 2,39,40
 208 328 208 328 213 328 c 2,41,-1
 629 328 l 2,42,43
 634 328 634 328 634 333 c 2,44,-1
 634 498 l 2,45,29
 634 509 634 509 625 518 c 0,30,31
EndSplineSet
EndChar

StartChar: arrowleft
Encoding: 8592 8592 667
Width: 600
Flags: W
LayerCount: 2
Fore
SplineSet
529 310 m 1,0,-1
 515 239 l 1,1,-1
 218 239 l 1,2,-1
 292 74 l 1,3,-1
 206 74 l 1,4,-1
 109 274 l 1,5,-1
 284 476 l 1,6,-1
 370 476 l 1,7,-1
 232 310 l 1,8,-1
 529 310 l 1,0,-1
EndSplineSet
EndChar

StartChar: arrowup
Encoding: 8593 8593 668
Width: 600
Flags: W
LayerCount: 2
Fore
SplineSet
516 349 m 1,0,-1
 500 264 l 1,1,-1
 359 367 l 1,2,-1
 301 72 l 1,3,-1
 225 72 l 1,4,-1
 284 369 l 1,5,-1
 102 264 l 1,6,-1
 118 349 l 1,7,-1
 342 486 l 1,8,-1
 516 349 l 1,0,-1
EndSplineSet
EndChar

StartChar: arrowright
Encoding: 8594 8594 669
Width: 600
Flags: W
LayerCount: 2
Fore
SplineSet
402 475 m 1,0,-1
 499 275 l 1,1,-1
 324 73 l 1,2,-1
 238 73 l 1,3,-1
 376 239 l 1,4,-1
 79 239 l 1,5,-1
 93 310 l 1,6,-1
 390 310 l 1,7,-1
 316 475 l 1,8,-1
 402 475 l 1,0,-1
EndSplineSet
EndChar

StartChar: arrowdown
Encoding: 8595 8595 670
Width: 600
Flags: W
LayerCount: 2
Fore
SplineSet
320 180 m 1,0,-1
 502 285 l 1,1,-1
 486 200 l 1,2,-1
 262 63 l 1,3,-1
 88 200 l 1,4,-1
 104 285 l 1,5,-1
 245 182 l 1,6,-1
 303 477 l 1,7,-1
 379 477 l 1,8,-1
 320 180 l 1,0,-1
EndSplineSet
EndChar

StartChar: arrowboth
Encoding: 8596 8596 671
Width: 693
Flags: W
LayerCount: 2
Fore
SplineSet
547 476 m 1,0,-1
 643 274 l 1,1,-1
 469 74 l 1,2,-1
 383 74 l 1,3,-1
 522 239 l 1,4,-1
 159 239 l 1,5,-1
 233 74 l 1,6,-1
 147 74 l 1,7,-1
 50 274 l 1,8,-1
 224 476 l 1,9,-1
 310 476 l 1,10,-1
 173 310 l 1,11,-1
 535 310 l 1,12,-1
 461 476 l 1,13,-1
 547 476 l 1,0,-1
EndSplineSet
EndChar

StartChar: arrowupdn
Encoding: 8597 8597 672
Width: 659
Flags: W
LayerCount: 2
Fore
SplineSet
543 429 m 1,0,-1
 402 532 l 1,1,-1
 333 181 l 1,2,-1
 514 285 l 1,3,-1
 499 200 l 1,4,-1
 274 63 l 1,5,-1
 101 200 l 1,6,-1
 116 285 l 1,7,-1
 258 182 l 1,8,-1
 326 533 l 1,9,-1
 145 429 l 1,10,-1
 161 514 l 1,11,-1
 385 651 l 1,12,-1
 559 514 l 1,13,-1
 543 429 l 1,0,-1
EndSplineSet
EndChar

StartChar: uni2196
Encoding: 8598 8598 673
Width: 619
Flags: W
LayerCount: 2
Fore
SplineSet
503 415 m 1,0,-1
 308 373 l 1,1,-1
 478 165 l 1,2,-1
 414 109 l 1,3,-1
 243 320 l 1,4,-1
 166 131 l 1,5,-1
 120 191 l 1,6,-1
 209 429 l 1,7,-1
 456 475 l 1,8,-1
 503 415 l 1,0,-1
EndSplineSet
EndChar

StartChar: uni2197
Encoding: 8599 8599 674
Width: 606
Flags: W
LayerCount: 2
Fore
SplineSet
273 469 m 1,0,-1
 501 425 l 1,1,-1
 500 185 l 1,2,-1
 431 125 l 1,3,-1
 426 312 l 1,4,-1
 175 102 l 1,5,-1
 131 158 l 1,6,-1
 383 368 l 1,7,-1
 204 408 l 1,8,-1
 273 469 l 1,0,-1
EndSplineSet
EndChar

StartChar: uni2198
Encoding: 8600 8600 675
Width: 619
Flags: W
LayerCount: 2
Fore
SplineSet
467 433 m 1,0,-1
 513 373 l 1,1,-1
 424 135 l 1,2,-1
 177 89 l 1,3,-1
 131 149 l 1,4,-1
 324 191 l 1,5,-1
 155 399 l 1,6,-1
 219 455 l 1,7,-1
 390 245 l 1,8,-1
 467 433 l 1,0,-1
EndSplineSet
EndChar

StartChar: uni2199
Encoding: 8601 8601 676
Width: 606
Flags: W
LayerCount: 2
Fore
SplineSet
489 406 m 1,0,-1
 237 197 l 1,1,-1
 416 156 l 1,2,-1
 347 95 l 1,3,-1
 120 140 l 1,4,-1
 121 379 l 1,5,-1
 190 439 l 1,6,-1
 194 252 l 1,7,-1
 446 462 l 1,8,-1
 489 406 l 1,0,-1
EndSplineSet
EndChar

StartChar: partialdiff
Encoding: 8706 8706 677
Width: 621
Flags: W
LayerCount: 2
Fore
SplineSet
106 51 m 128,-1,1
 47 106 47 106 47 201 c 0,2,3
 47 275 47 275 78 331.5 c 128,-1,4
 109 388 109 388 166 419 c 128,-1,5
 223 450 223 450 297 450 c 0,6,7
 372 450 372 450 421 413.5 c 128,-1,8
 470 377 470 377 482 313 c 1,9,10
 491 366 491 366 491 412 c 0,11,12
 491 514 491 514 445.5 568.5 c 128,-1,13
 400 623 400 623 314 623 c 0,14,15
 270 623 270 623 226 609 c 128,-1,16
 182 595 182 595 145 570 c 1,17,-1
 115 643 l 1,18,19
 165 672 165 672 221.5 688 c 128,-1,20
 278 704 278 704 328 704 c 0,21,22
 406 704 406 704 463.5 666 c 128,-1,23
 521 628 521 628 552 558 c 128,-1,24
 583 488 583 488 583 393 c 0,25,26
 583 272 583 272 544.5 182.5 c 128,-1,27
 506 93 506 93 434 44.5 c 128,-1,28
 362 -4 362 -4 265 -4 c 0,29,0
 165 -4 165 -4 106 51 c 128,-1,1
369 100.5 m 128,-1,31
 409 122 409 122 432.5 159 c 128,-1,32
 456 196 456 196 456 241 c 0,33,34
 456 300 456 300 414.5 336.5 c 128,-1,35
 373 373 373 373 305 373 c 0,36,37
 229 373 229 373 183.5 329 c 128,-1,38
 138 285 138 285 138 211 c 0,39,40
 138 150 138 150 176 114.5 c 128,-1,41
 214 79 214 79 280 79 c 0,42,30
 329 79 329 79 369 100.5 c 128,-1,31
EndSplineSet
EndChar

StartChar: emptyset
Encoding: 8709 8709 678
Width: 535
Flags: W
LayerCount: 2
Fore
SplineSet
467 448 m 1,0,1
 492 406 492 406 492 356 c 0,2,3
 492 295 492 295 457.5 239.5 c 128,-1,4
 423 184 423 184 367 150 c 128,-1,5
 311 116 311 116 250 116 c 0,6,7
 212 116 212 116 179 129.5 c 128,-1,8
 146 143 146 143 122 168 c 1,9,-1
 39 100 l 1,10,-1
 13 136 l 1,11,-1
 96 203 l 1,12,13
 74 242 74 242 74 291 c 0,14,15
 74 353 74 353 108 408.5 c 128,-1,16
 142 464 142 464 197.5 497.5 c 128,-1,17
 253 531 253 531 315 531 c 0,18,19
 352 531 352 531 384.5 517.5 c 128,-1,20
 417 504 417 504 442 479 c 1,21,-1
 524 545 l 1,22,-1
 546 512 l 1,23,-1
 467 448 l 1,0,1
152 247 m 1,25,-1
 385 434 l 1,26,27
 350 462 350 462 304 462 c 0,28,29
 261 462 261 462 223 439.5 c 128,-1,30
 185 417 185 417 162 380.5 c 128,-1,31
 139 344 139 344 139 303 c 0,32,24
 139 275 139 275 152 247 c 1,25,-1
411 403 m 1,34,-1
 179 214 l 1,35,36
 213 185 213 185 261 185 c 0,37,38
 304 185 304 185 342 207.5 c 128,-1,39
 380 230 380 230 403 267 c 128,-1,40
 426 304 426 304 426 346 c 0,41,33
 426 377 426 377 411 403 c 1,34,-1
EndSplineSet
EndChar

StartChar: uni2206
Encoding: 8710 8710 679
Width: 683
Flags: W
LayerCount: 2
Fore
SplineSet
463 700 m 1,0,-1
 638 65 l 1,1,-1
 627 0 l 1,2,-1
 -48 0 l 1,3,-1
 -37 65 l 1,4,-1
 364 700 l 1,5,-1
 463 700 l 1,0,-1
394 601 m 1,6,-1
 74 82 l 1,7,-1
 531 82 l 1,8,-1
 394 601 l 1,6,-1
EndSplineSet
EndChar

StartChar: product
Encoding: 8719 8719 680
Width: 754
Flags: W
LayerCount: 2
Fore
SplineSet
749 742 m 1,0,-1
 561 -194 l 1,1,-1
 467 -194 l 1,2,-1
 640 662 l 1,3,-1
 275 662 l 1,4,-1
 102 -194 l 1,5,-1
 8 -194 l 1,6,-1
 196 742 l 1,7,-1
 749 742 l 1,0,-1
EndSplineSet
EndChar

StartChar: summation
Encoding: 8721 8721 681
Width: 612
Flags: W
LayerCount: 2
Fore
SplineSet
694 743 m 1,0,-1
 677 657 l 1,1,-1
 231 657 l 1,2,-1
 454 308 l 1,3,-1
 88 -51 l 1,4,-1
 544 -51 l 1,5,-1
 528 -138 l 1,6,-1
 -45 -138 l 1,7,-1
 -32 -62 l 1,8,-1
 349 308 l 1,9,-1
 123 666 l 1,10,-1
 138 743 l 1,11,-1
 694 743 l 1,0,-1
EndSplineSet
EndChar

StartChar: minus
Encoding: 8722 8722 682
Width: 495
Flags: W
LayerCount: 2
Fore
SplineSet
477 357 m 1,0,-1
 464 290 l 1,1,-1
 42 290 l 1,2,-1
 55 357 l 1,3,-1
 477 357 l 1,0,-1
EndSplineSet
EndChar

StartChar: uni2219
Encoding: 8729 8729 684
Width: 262
Flags: W
LayerCount: 2
Fore
SplineSet
197 333.5 m 128,-1,1
 216 315 216 315 216 285 c 0,2,3
 216 244 216 244 186 212.5 c 128,-1,4
 156 181 156 181 116 181 c 0,5,6
 86 181 86 181 67 200.5 c 128,-1,7
 48 220 48 220 48 250 c 0,8,9
 48 291 48 291 77.5 321.5 c 128,-1,10
 107 352 107 352 147 352 c 0,11,0
 178 352 178 352 197 333.5 c 128,-1,1
EndSplineSet
EndChar

StartChar: radical
Encoding: 8730 8730 685
Width: 683
Flags: W
LayerCount: 2
Fore
SplineSet
40 395 m 1,0,-1
 226 395 l 1,1,-1
 277 -50 l 1,2,-1
 680 751 l 1,3,-1
 773 751 l 1,4,-1
 310 -152 l 1,5,-1
 211 -152 l 1,6,-1
 148 315 l 1,7,-1
 25 315 l 1,8,-1
 40 395 l 1,0,-1
EndSplineSet
EndChar

StartChar: infinity
Encoding: 8734 8734 686
Width: 885
Flags: W
LayerCount: 2
Fore
SplineSet
770.5 476.5 m 128,-1,1
 810 454 810 454 832 414 c 128,-1,2
 854 374 854 374 854 324 c 0,3,4
 854 264 854 264 826.5 214.5 c 128,-1,5
 799 165 799 165 751.5 136 c 128,-1,6
 704 107 704 107 647 107 c 0,7,8
 569 107 569 107 525.5 143 c 128,-1,9
 482 179 482 179 447 246 c 1,10,11
 400 180 400 180 349 143.5 c 128,-1,12
 298 107 298 107 220 107 c 0,13,14
 170 107 170 107 130.5 129.5 c 128,-1,15
 91 152 91 152 69 192 c 128,-1,16
 47 232 47 232 47 283 c 0,17,18
 47 342 47 342 75 391.5 c 128,-1,19
 103 441 103 441 151 469.5 c 128,-1,20
 199 498 199 498 256 498 c 0,21,22
 333 498 333 498 376 462 c 128,-1,23
 419 426 419 426 454 360 c 1,24,25
 502 426 502 426 553 462.5 c 128,-1,26
 604 499 604 499 681 499 c 0,27,0
 731 499 731 499 770.5 476.5 c 128,-1,1
718.5 196.5 m 128,-1,29
 751 216 751 216 769.5 249.5 c 128,-1,30
 788 283 788 283 788 323 c 0,31,32
 788 370 788 370 758 399.5 c 128,-1,33
 728 429 728 429 681 429 c 0,34,35
 616 429 616 429 572.5 395.5 c 128,-1,36
 529 362 529 362 484 298 c 1,37,38
 515 239 515 239 550.5 208 c 128,-1,39
 586 177 586 177 647 177 c 0,40,28
 686 177 686 177 718.5 196.5 c 128,-1,29
327.5 210.5 m 128,-1,42
 371 244 371 244 416 307 c 1,43,44
 385 365 385 365 349 396.5 c 128,-1,45
 313 428 313 428 252 428 c 0,46,47
 215 428 215 428 183 408.5 c 128,-1,48
 151 389 151 389 132 355.5 c 128,-1,49
 113 322 113 322 113 283 c 0,50,51
 113 236 113 236 143 206.5 c 128,-1,52
 173 177 173 177 220 177 c 0,53,41
 284 177 284 177 327.5 210.5 c 128,-1,42
EndSplineSet
EndChar

StartChar: integral
Encoding: 8747 8747 687
Width: 236
Flags: W
LayerCount: 2
Fore
SplineSet
286 766 m 0,1,2
 244 766 244 766 222.5 736 c 128,-1,3
 201 706 201 706 194 636 c 0,4,5
 187 570 187 570 175 364 c 0,6,7
 166 164 166 164 156 78 c 0,8,9
 145 -31 145 -31 109.5 -77.5 c 128,-1,10
 74 -124 74 -124 1 -124 c 0,11,12
 -23 -124 -23 -124 -41.5 -119.5 c 128,-1,13
 -60 -115 -60 -115 -77 -104 c 1,14,-1
 -59 -40 l 1,15,16
 -32 -53 -32 -53 -9 -53 c 0,17,18
 33 -53 33 -53 55 -22.5 c 128,-1,19
 77 8 77 8 85 80 c 0,20,21
 92 150 92 150 104 370 c 0,22,23
 113 547 113 547 121 637 c 0,24,25
 133 746 133 746 168 792 c 128,-1,26
 203 838 203 838 276 838 c 0,27,28
 309 838 309 838 347 819 c 1,29,-1
 331 756 l 1,30,0
 310 766 310 766 286 766 c 0,1,2
EndSplineSet
EndChar

StartChar: approxequal
Encoding: 8776 8776 688
Width: 495
Flags: W
LayerCount: 2
Fore
SplineSet
247.5 495 m 128,-1,1
 267 486 267 486 291 470 c 0,2,3
 309 457 309 457 322.5 450.5 c 128,-1,4
 336 444 336 444 349 444 c 0,5,6
 370 444 370 444 385 457.5 c 128,-1,7
 400 471 400 471 405 496 c 1,8,-1
 471 496 l 1,9,10
 447 370 447 370 356 370 c 0,11,12
 331 370 331 370 311 379.5 c 128,-1,13
 291 389 291 389 269 405 c 0,14,15
 248 419 248 419 236.5 424.5 c 128,-1,16
 225 430 225 430 212 430 c 0,17,18
 191 430 191 430 178 416.5 c 128,-1,19
 165 403 165 403 160 377 c 1,20,-1
 93 377 l 1,21,22
 117 504 117 504 205 504 c 0,23,0
 228 504 228 504 247.5 495 c 128,-1,1
203.5 279.5 m 128,-1,25
 222 271 222 271 247 254 c 0,26,27
 267 241 267 241 280 234.5 c 128,-1,28
 293 228 293 228 306 228 c 0,29,30
 327 228 327 228 342.5 241.5 c 128,-1,31
 358 255 358 255 362 280 c 1,32,-1
 428 280 l 1,33,34
 404 154 404 154 313 154 c 0,35,36
 288 154 288 154 269 163 c 128,-1,37
 250 172 250 172 224 189 c 0,38,39
 205 202 205 202 193.5 208 c 128,-1,40
 182 214 182 214 169 214 c 0,41,42
 149 214 149 214 135.5 200.5 c 128,-1,43
 122 187 122 187 117 161 c 1,44,-1
 50 161 l 1,45,46
 74 288 74 288 162 288 c 0,47,24
 185 288 185 288 203.5 279.5 c 128,-1,25
EndSplineSet
EndChar

StartChar: notequal
Encoding: 8800 8800 689
Width: 496
Flags: W
LayerCount: 2
Fore
SplineSet
485 394 m 1,0,-1
 320 394 l 1,1,-1
 261 253 l 1,2,-1
 456 253 l 1,3,-1
 444 187 l 1,4,-1
 234 187 l 1,5,-1
 171 35 l 1,6,-1
 98 35 l 1,7,-1
 161 187 l 1,8,-1
 22 187 l 1,9,-1
 34 253 l 1,10,-1
 189 253 l 1,11,-1
 247 394 l 1,12,-1
 63 394 l 1,13,-1
 76 460 l 1,14,-1
 275 460 l 1,15,-1
 336 607 l 1,16,-1
 408 607 l 1,17,-1
 347 460 l 1,18,-1
 497 460 l 1,19,-1
 485 394 l 1,0,-1
EndSplineSet
EndChar

StartChar: lessequal
Encoding: 8804 8804 690
Width: 499
Flags: W
LayerCount: 2
Fore
SplineSet
531 612 m 1,0,-1
 517 536 l 1,1,-1
 128 385 l 1,2,-1
 455 233 l 1,3,-1
 441 164 l 1,4,-1
 57 347 l 1,5,-1
 73 430 l 1,6,-1
 531 612 l 1,0,-1
426 94 m 1,7,-1
 413 27 l 1,8,-1
 -9 27 l 1,9,-1
 4 94 l 1,10,-1
 426 94 l 1,7,-1
EndSplineSet
EndChar

StartChar: greaterequal
Encoding: 8805 8805 691
Width: 515
Flags: W
LayerCount: 2
Fore
SplineSet
22 168 m 1,0,-1
 36 244 l 1,1,-1
 425 395 l 1,2,-1
 98 547 l 1,3,-1
 112 616 l 1,4,-1
 496 433 l 1,5,-1
 480 350 l 1,6,-1
 22 168 l 1,0,-1
441 94 m 1,7,-1
 428 27 l 1,8,-1
 6 27 l 1,9,-1
 19 94 l 1,10,-1
 441 94 l 1,7,-1
EndSplineSet
EndChar

StartChar: filledbox
Encoding: 9632 9632 692
Width: 600
Flags: W
LayerCount: 2
Fore
SplineSet
136 459 m 1,0,-1
 524 459 l 1,1,-1
 464 71 l 1,2,-1
 76 71 l 1,3,-1
 136 459 l 1,0,-1
EndSplineSet
EndChar

StartChar: uni25A1
Encoding: 9633 9633 693
Width: 600
Flags: W
LayerCount: 2
Fore
SplineSet
144 459 m 1,0,-1
 532 459 l 1,1,-1
 456 71 l 1,2,-1
 68 71 l 1,3,-1
 144 459 l 1,0,-1
193 394 m 1,4,-1
 143 136 l 1,5,-1
 407 136 l 1,6,-1
 457 394 l 1,7,-1
 193 394 l 1,4,-1
EndSplineSet
EndChar

StartChar: triagup
Encoding: 9650 9650 694
Width: 600
Flags: W
LayerCount: 2
Fore
SplineSet
341 478 m 1,0,-1
 472 52 l 1,1,-1
 46 52 l 1,2,-1
 341 478 l 1,0,-1
EndSplineSet
EndChar

StartChar: uni25B3
Encoding: 9651 9651 695
Width: 600
Flags: W
LayerCount: 2
Fore
SplineSet
341 478 m 1,0,-1
 472 52 l 1,1,-1
 46 52 l 1,2,-1
 341 478 l 1,0,-1
316 340 m 1,3,-1
 153 114 l 1,4,-1
 387 114 l 1,5,-1
 316 340 l 1,3,-1
EndSplineSet
EndChar

StartChar: uni25B6
Encoding: 9654 9654 696
Width: 600
Flags: W
LayerCount: 2
Fore
SplineSet
541 266 m 1,0,-1
 74 53 l 1,1,-1
 156 479 l 1,2,-1
 541 266 l 1,0,-1
EndSplineSet
EndChar

StartChar: uni25B7
Encoding: 9655 9655 697
Width: 600
Flags: W
LayerCount: 2
Fore
SplineSet
541 266 m 1,0,-1
 74 53 l 1,1,-1
 156 479 l 1,2,-1
 541 266 l 1,0,-1
409 266 m 1,3,-1
 196 379 l 1,4,-1
 151 153 l 1,5,-1
 409 266 l 1,3,-1
EndSplineSet
EndChar

StartChar: triagdn
Encoding: 9660 9660 698
Width: 600
Flags: W
LayerCount: 2
Fore
SplineSet
259 52 m 1,0,-1
 128 478 l 1,1,-1
 554 478 l 1,2,-1
 259 52 l 1,0,-1
EndSplineSet
EndChar

StartChar: uni25BD
Encoding: 9661 9661 699
Width: 600
Flags: W
LayerCount: 2
Fore
SplineSet
259 52 m 1,0,-1
 128 478 l 1,1,-1
 554 478 l 1,2,-1
 259 52 l 1,0,-1
284 190 m 1,3,-1
 447 416 l 1,4,-1
 213 416 l 1,5,-1
 284 190 l 1,3,-1
EndSplineSet
EndChar

StartChar: uni25C0
Encoding: 9664 9664 700
Width: 600
Flags: W
LayerCount: 2
Fore
SplineSet
58 265 m 1,0,-1
 525 478 l 1,1,-1
 443 52 l 1,2,-1
 58 265 l 1,0,-1
EndSplineSet
EndChar

StartChar: uni25C1
Encoding: 9665 9665 701
Width: 600
Flags: W
LayerCount: 2
Fore
SplineSet
58 265 m 1,0,-1
 525 478 l 1,1,-1
 443 52 l 1,2,-1
 58 265 l 1,0,-1
190 265 m 1,3,-1
 403 152 l 1,4,-1
 448 378 l 1,5,-1
 190 265 l 1,3,-1
EndSplineSet
EndChar

StartChar: uni25C6
Encoding: 9670 9670 702
Width: 600
Flags: W
LayerCount: 2
Fore
SplineSet
353 540 m 1,0,-1
 574 265 l 1,1,-1
 246 -9 l 1,2,-1
 25 265 l 1,3,-1
 353 540 l 1,0,-1
EndSplineSet
EndChar

StartChar: uni25C7
Encoding: 9671 9671 703
Width: 600
Flags: W
LayerCount: 2
Fore
SplineSet
353 540 m 1,0,-1
 574 265 l 1,1,-1
 246 -9 l 1,2,-1
 25 265 l 1,3,-1
 353 540 l 1,0,-1
335 448 m 1,4,-1
 113 265 l 1,5,-1
 263 83 l 1,6,-1
 486 265 l 1,7,-1
 335 448 l 1,4,-1
EndSplineSet
EndChar

StartChar: lozenge
Encoding: 9674 9674 704
Width: 528
Flags: W
LayerCount: 2
Fore
SplineSet
341 668 m 1,0,-1
 502 330 l 1,1,-1
 211 -10 l 1,2,-1
 52 330 l 1,3,-1
 341 668 l 1,0,-1
321 531 m 1,4,-1
 140 330 l 1,5,-1
 233 129 l 1,6,-1
 414 330 l 1,7,-1
 321 531 l 1,4,-1
EndSplineSet
EndChar

StartChar: uniA78B
Encoding: 42891 42891 705
Width: 253
Flags: W
LayerCount: 2
Fore
SplineSet
154 700 m 1,0,-1
 251 700 l 1,1,-1
 161 301 l 1,2,-1
 75 301 l 1,3,-1
 154 700 l 1,0,-1
EndSplineSet
EndChar

StartChar: uniA78C
Encoding: 42892 42892 706
Width: 250
Flags: W
LayerCount: 2
Fore
SplineSet
146 659 m 1,0,-1
 239 659 l 1,1,-1
 158 301 l 1,2,-1
 76 301 l 1,3,-1
 146 659 l 1,0,-1
EndSplineSet
Substitution2: "<3,3> Small Caps in Latin lookup 11 subtable" uniA78C.sc
EndChar

StartChar: fl
Encoding: 64258 64258 708
Width: 613
Flags: W
LayerCount: 2
Fore
SplineSet
237 440 m 1,0,-1
 150 0 l 1,1,-1
 57 0 l 1,2,-1
 145 440 l 1,3,-1
 76 440 l 1,4,-1
 90 511 l 1,5,-1
 159 511 l 1,6,-1
 171 571 l 2,7,8
 186 649 186 649 242.5 697.5 c 128,-1,9
 299 746 299 746 374 746 c 0,10,11
 399 746 399 746 421.5 740 c 128,-1,12
 444 734 444 734 458 725 c 1,13,-1
 440 642 l 1,14,15
 403 664 403 664 373 664 c 0,16,17
 333 664 333 664 303 639 c 128,-1,18
 273 614 273 614 264 574 c 2,19,-1
 251 511 l 1,20,-1
 397 511 l 1,21,-1
 384 440 l 1,22,-1
 237 440 l 1,0,-1
519 742 m 1,23,-1
 613 742 l 1,24,-1
 465 0 l 1,25,-1
 371 0 l 1,26,-1
 519 742 l 1,23,-1
EndSplineSet
Ligature2: "<1,2> Common Ligatures in Latin lookup 13 subtable" f l
EndChar

StartChar: Adieresis.alt
Encoding: 65540 -1 711
Width: 726
Flags: W
LayerCount: 2
Fore
SplineSet
196.5 608 m 128,-1,1
 184 621 184 621 184 641 c 0,2,3
 184 668 184 668 203 686 c 128,-1,4
 222 704 222 704 249 704 c 0,5,6
 268 704 268 704 280 691.5 c 128,-1,7
 292 679 292 679 292 659 c 0,8,9
 292 634 292 634 273 614.5 c 128,-1,10
 254 595 254 595 228 595 c 0,11,0
 209 595 209 595 196.5 608 c 128,-1,1
555 608 m 128,-1,13
 543 621 543 621 543 641 c 0,14,15
 543 668 543 668 562 686 c 128,-1,16
 581 704 581 704 607 704 c 0,17,18
 626 704 626 704 638 691.5 c 128,-1,19
 650 679 650 679 650 659 c 0,20,21
 650 634 650 634 631 614.5 c 128,-1,22
 612 595 612 595 586 595 c 0,23,12
 567 595 567 595 555 608 c 128,-1,13
568 0 m 1,24,-1
 522 171 l 1,25,-1
 152 171 l 1,26,-1
 50 0 l 1,27,-1
 -50 0 l 1,28,-1
 377 700 l 1,29,-1
 476 700 l 1,30,-1
 671 0 l 1,31,-1
 568 0 l 1,24,-1
203 257 m 1,32,-1
 499 257 l 1,33,-1
 407 599 l 1,34,-1
 203 257 l 1,32,-1
EndSplineSet
EndChar

StartChar: Udieresis.alt
Encoding: 65541 -1 712
Width: 766
Flags: W
LayerCount: 2
Fore
SplineSet
420 691.5 m 128,-1,1
 432 679 432 679 432 659 c 0,2,3
 432 634 432 634 413 614.5 c 128,-1,4
 394 595 394 595 368 595 c 0,5,6
 349 595 349 595 337 608 c 128,-1,7
 325 621 325 621 325 641 c 0,8,9
 325 668 325 668 344 686 c 128,-1,10
 363 704 363 704 389 704 c 0,11,0
 408 704 408 704 420 691.5 c 128,-1,1
585 691.5 m 128,-1,13
 597 679 597 679 597 659 c 0,14,15
 597 634 597 634 578 614.5 c 128,-1,16
 559 595 559 595 533 595 c 0,17,18
 514 595 514 595 502 608 c 128,-1,19
 490 621 490 621 490 641 c 0,20,21
 490 668 490 668 509 686 c 128,-1,22
 528 704 528 704 554 704 c 0,23,12
 573 704 573 704 585 691.5 c 128,-1,13
687 289 m 2,24,25
 659 151 659 151 568.5 73.5 c 128,-1,26
 478 -4 478 -4 340 -4 c 0,27,28
 220 -4 220 -4 151 54.5 c 128,-1,29
 82 113 82 113 82 218 c 0,30,31
 82 249 82 249 90 289 c 2,32,-1
 172 700 l 1,33,-1
 268 700 l 1,34,-1
 186 289 l 2,35,36
 180 259 180 259 180 234 c 0,37,38
 180 162 180 162 225 122.5 c 128,-1,39
 270 83 270 83 350 83 c 0,40,41
 444 83 444 83 507.5 137.5 c 128,-1,42
 571 192 571 192 591 289 c 2,43,-1
 673 700 l 1,44,-1
 769 700 l 1,45,-1
 687 289 l 2,24,25
EndSplineSet
EndChar

StartChar: Udieresis.ss01.alt
Encoding: 65542 -1 713
Width: 774
Flags: W
LayerCount: 2
Fore
SplineSet
420 691.5 m 128,-1,1
 432 679 432 679 432 659 c 0,2,3
 432 634 432 634 413 614.5 c 128,-1,4
 394 595 394 595 368 595 c 0,5,6
 349 595 349 595 337 608 c 128,-1,7
 325 621 325 621 325 641 c 0,8,9
 325 668 325 668 344 686 c 128,-1,10
 363 704 363 704 389 704 c 0,11,0
 408 704 408 704 420 691.5 c 128,-1,1
585 691.5 m 128,-1,13
 597 679 597 679 597 659 c 0,14,15
 597 634 597 634 578 614.5 c 128,-1,16
 559 595 559 595 533 595 c 0,17,18
 514 595 514 595 502 608 c 128,-1,19
 490 621 490 621 490 641 c 0,20,21
 490 668 490 668 509 686 c 128,-1,22
 528 704 528 704 554 704 c 0,23,12
 573 704 573 704 585 691.5 c 128,-1,13
131 53.5 m 128,-1,25
 77 107 77 107 77 196 c 0,26,27
 77 225 77 225 83 256 c 2,28,-1
 172 700 l 1,29,-1
 269 700 l 1,30,-1
 183 277 l 2,31,32
 178 252 178 252 178 234 c 0,33,34
 178 170 178 170 218.5 131.5 c 128,-1,35
 259 93 259 93 327 93 c 0,36,37
 386 93 386 93 439.5 120.5 c 128,-1,38
 493 148 493 148 531.5 195.5 c 128,-1,39
 570 243 570 243 585 301 c 2,40,-1
 665 700 l 1,41,-1
 761 700 l 1,42,-1
 621 0 l 1,43,-1
 525 0 l 1,44,-1
 551 125 l 1,45,46
 501 67 501 67 430 33.5 c 128,-1,47
 359 0 359 0 277 0 c 0,48,24
 185 0 185 0 131 53.5 c 128,-1,25
EndSplineSet
EndChar

StartChar: A.ss01
Encoding: 65543 -1 714
Width: 767
Flags: W
LayerCount: 2
Fore
SplineSet
651.5 645 m 128,-1,1
 716 587 716 587 716 483 c 0,2,3
 716 446 716 446 709 410 c 2,4,-1
 630 0 l 1,5,-1
 533 0 l 1,6,-1
 571 196 l 1,7,-1
 169 196 l 1,8,-1
 131 0 l 1,9,-1
 35 0 l 1,10,-1
 115 410 l 2,11,12
 141 547 141 547 235 625 c 128,-1,13
 329 703 329 703 468 703 c 0,14,0
 587 703 587 703 651.5 645 c 128,-1,1
619 464 m 0,16,17
 619 537 619 537 575.5 577 c 128,-1,18
 532 617 532 617 453 617 c 0,19,20
 358 617 358 617 294 562 c 128,-1,21
 230 507 230 507 211 410 c 2,22,-1
 186 283 l 1,23,-1
 588 283 l 1,24,-1
 613 410 l 2,25,15
 619 439 619 439 619 464 c 0,16,17
EndSplineSet
EndChar

StartChar: Aogonek.ss01
Encoding: 65564 -1 735
Width: 767
Flags: W
LayerCount: 2
Fore
SplineSet
651.5 645 m 128,-1,1
 716 587 716 587 716 483 c 0,2,3
 716 446 716 446 709 410 c 2,4,-1
 630 0 l 1,5,6
 565 -42 565 -42 538.5 -68.5 c 128,-1,7
 512 -95 512 -95 512 -120 c 0,8,9
 512 -132 512 -132 519 -138.5 c 128,-1,10
 526 -145 526 -145 538 -145 c 0,11,12
 559 -145 559 -145 579 -135 c 1,13,-1
 590 -197 l 1,14,15
 548 -216 548 -216 505 -216 c 0,16,17
 466 -216 466 -216 443.5 -198 c 128,-1,18
 421 -180 421 -180 421 -146 c 0,19,20
 421 -66 421 -66 534 8 c 1,21,-1
 571 196 l 1,22,-1
 169 196 l 1,23,-1
 131 0 l 1,24,-1
 35 0 l 1,25,-1
 115 410 l 2,26,27
 141 547 141 547 235 625 c 128,-1,28
 329 703 329 703 468 703 c 0,29,0
 587 703 587 703 651.5 645 c 128,-1,1
588 283 m 1,30,-1
 613 410 l 2,31,32
 619 439 619 439 619 464 c 0,33,34
 619 537 619 537 575.5 577 c 128,-1,35
 532 617 532 617 453 617 c 0,36,37
 358 617 358 617 294 562 c 128,-1,38
 230 507 230 507 211 410 c 2,39,-1
 186 283 l 1,40,-1
 588 283 l 1,30,-1
EndSplineSet
EndChar

StartChar: E.ss01
Encoding: 65570 -1 741
Width: 608
Flags: W
LayerCount: 2
Fore
SplineSet
532.5 696 m 128,-1,1
 588 684 588 684 620 665 c 1,2,-1
 574 589 l 1,3,4
 543 604 543 604 499 614 c 128,-1,5
 455 624 455 624 413 624 c 0,6,7
 360 624 360 624 316 607.5 c 128,-1,8
 272 591 272 591 246.5 562 c 128,-1,9
 221 533 221 533 221 498 c 0,10,11
 221 457 221 457 259 433 c 128,-1,12
 297 409 297 409 358 409 c 2,13,-1
 501 409 l 1,14,-1
 485 324 l 1,15,-1
 343 324 l 2,16,17
 285 324 285 324 237 306.5 c 128,-1,18
 189 289 189 289 160.5 257.5 c 128,-1,19
 132 226 132 226 132 186 c 0,20,21
 132 138 132 138 177 107.5 c 128,-1,22
 222 77 222 77 296 77 c 0,23,24
 343 77 343 77 403 91 c 128,-1,25
 463 105 463 105 506 126 c 1,26,-1
 529 50 l 1,27,28
 479 25 479 25 408 9 c 128,-1,29
 337 -7 337 -7 272 -7 c 0,30,31
 203 -7 203 -7 148 14.5 c 128,-1,32
 93 36 93 36 62 75 c 128,-1,33
 31 114 31 114 31 165 c 0,34,35
 31 214 31 214 58.5 257.5 c 128,-1,36
 86 301 86 301 134.5 331 c 128,-1,37
 183 361 183 361 242 371 c 1,38,39
 192 384 192 384 162 420 c 128,-1,40
 132 456 132 456 132 503 c 0,41,42
 132 562 132 562 170 608.5 c 128,-1,43
 208 655 208 655 274 681.5 c 128,-1,44
 340 708 340 708 422 708 c 0,45,0
 477 708 477 708 532.5 696 c 128,-1,1
EndSplineSet
EndChar

StartChar: uni1E1C.ss01
Encoding: 65574 -1 745
Width: 608
Flags: W
LayerCount: 2
Fore
SplineSet
321.5 790 m 128,-1,1
 292 819 292 819 292 868 c 0,2,3
 292 877 292 877 294 895 c 1,4,-1
 359 895 l 1,5,6
 358 891 358 891 358 882 c 0,7,8
 358 857 358 857 373 841 c 128,-1,9
 388 825 388 825 413 825 c 0,10,11
 441 825 441 825 464 845 c 128,-1,12
 487 865 487 865 495 895 c 1,13,-1
 560 895 l 1,14,15
 547 835 547 835 502.5 798 c 128,-1,16
 458 761 458 761 401 761 c 0,17,0
 351 761 351 761 321.5 790 c 128,-1,1
316 607.5 m 128,-1,19
 272 591 272 591 246.5 562 c 128,-1,20
 221 533 221 533 221 498 c 0,21,22
 221 457 221 457 259 433 c 128,-1,23
 297 409 297 409 358 409 c 2,24,-1
 501 409 l 1,25,-1
 485 324 l 1,26,-1
 343 324 l 2,27,28
 285 324 285 324 237 306.5 c 128,-1,29
 189 289 189 289 160.5 257.5 c 128,-1,30
 132 226 132 226 132 186 c 0,31,32
 132 138 132 138 177 107.5 c 128,-1,33
 222 77 222 77 296 77 c 0,34,35
 343 77 343 77 403 91 c 128,-1,36
 463 105 463 105 506 126 c 1,37,-1
 529 50 l 1,38,39
 485 28 485 28 424.5 13 c 128,-1,40
 364 -2 364 -2 305 -6 c 1,41,-1
 279 -51 l 1,42,43
 313 -56 313 -56 329.5 -74 c 128,-1,44
 346 -92 346 -92 346 -117 c 0,45,46
 346 -163 346 -163 308.5 -190 c 128,-1,47
 271 -217 271 -217 216 -217 c 0,48,49
 166 -217 166 -217 126 -196 c 1,50,-1
 159 -134 l 1,51,52
 185 -148 185 -148 215 -148 c 0,53,54
 238 -148 238 -148 253 -137.5 c 128,-1,55
 268 -127 268 -127 268 -114 c 0,56,57
 268 -103 268 -103 256 -95.5 c 128,-1,58
 244 -88 244 -88 222 -88 c 2,59,-1
 192 -88 l 1,60,-1
 233 -5 l 1,61,62
 142 4 142 4 86.5 50 c 128,-1,63
 31 96 31 96 31 166 c 0,64,65
 31 214 31 214 59 257.5 c 128,-1,66
 87 301 87 301 135 331 c 128,-1,67
 183 361 183 361 242 371 c 1,68,69
 192 384 192 384 162 420 c 128,-1,70
 132 456 132 456 132 503 c 0,71,72
 132 562 132 562 170 608.5 c 128,-1,73
 208 655 208 655 274 681.5 c 128,-1,74
 340 708 340 708 422 708 c 0,75,76
 477 708 477 708 532.5 696 c 128,-1,77
 588 684 588 684 620 665 c 1,78,-1
 574 589 l 1,79,80
 543 604 543 604 499 614 c 128,-1,81
 455 624 455 624 413 624 c 0,82,18
 360 624 360 624 316 607.5 c 128,-1,19
EndSplineSet
EndChar

StartChar: Eogonek.ss01
Encoding: 65591 -1 762
Width: 608
Flags: W
LayerCount: 2
Fore
SplineSet
316 607.5 m 128,-1,1
 272 591 272 591 246.5 562 c 128,-1,2
 221 533 221 533 221 498 c 0,3,4
 221 457 221 457 259 433 c 128,-1,5
 297 409 297 409 358 409 c 2,6,-1
 501 409 l 1,7,-1
 485 324 l 1,8,-1
 343 324 l 2,9,10
 285 324 285 324 237 306.5 c 128,-1,11
 189 289 189 289 160.5 257.5 c 128,-1,12
 132 226 132 226 132 186 c 0,13,14
 132 138 132 138 177 107.5 c 128,-1,15
 222 77 222 77 296 77 c 0,16,17
 343 77 343 77 403 91 c 128,-1,18
 463 105 463 105 506 126 c 1,19,-1
 529 50 l 1,20,-1
 526 48 l 2,21,22
 472 10 472 10 434.5 -37.5 c 128,-1,23
 397 -85 397 -85 397 -118 c 0,24,25
 397 -130 397 -130 404 -137.5 c 128,-1,26
 411 -145 411 -145 423 -145 c 0,27,28
 443 -145 443 -145 463 -135 c 1,29,-1
 475 -197 l 1,30,31
 432 -216 432 -216 389 -216 c 0,32,33
 350 -216 350 -216 328.5 -195.5 c 128,-1,34
 307 -175 307 -175 307 -138 c 0,35,36
 307 -68 307 -68 390 5 c 1,37,38
 332 -7 332 -7 272 -7 c 0,39,40
 203 -7 203 -7 148 14.5 c 128,-1,41
 93 36 93 36 62 75 c 128,-1,42
 31 114 31 114 31 165 c 0,43,44
 31 214 31 214 58.5 257.5 c 128,-1,45
 86 301 86 301 134.5 331 c 128,-1,46
 183 361 183 361 242 371 c 1,47,48
 192 384 192 384 162 420 c 128,-1,49
 132 456 132 456 132 503 c 0,50,51
 132 562 132 562 170 608.5 c 128,-1,52
 208 655 208 655 274 681.5 c 128,-1,53
 340 708 340 708 422 708 c 0,54,55
 477 708 477 708 532.5 696 c 128,-1,56
 588 684 588 684 620 665 c 1,57,-1
 574 589 l 1,58,59
 543 604 543 604 499 614 c 128,-1,60
 455 624 455 624 413 624 c 0,61,0
 360 624 360 624 316 607.5 c 128,-1,1
EndSplineSet
EndChar

StartChar: F.ss01
Encoding: 65593 -1 764
Width: 520
Flags: W
LayerCount: 2
Fore
SplineSet
282.5 578.5 m 128,-1,1
 236 540 236 540 224 478 c 2,2,-1
 202 370 l 1,3,-1
 479 370 l 1,4,-1
 463 283 l 1,5,-1
 185 283 l 1,6,-1
 128 0 l 1,7,-1
 32 0 l 1,8,-1
 130 487 l 2,9,10
 149 587 149 587 219.5 645.5 c 128,-1,11
 290 704 290 704 390 704 c 0,12,13
 446 704 446 704 500 691.5 c 128,-1,14
 554 679 554 679 594 659 c 1,15,-1
 558 577 l 1,16,17
 523 595 523 595 477.5 606 c 128,-1,18
 432 617 432 617 393 617 c 0,19,0
 329 617 329 617 282.5 578.5 c 128,-1,1
EndSplineSet
EndChar

StartChar: G.ss01
Encoding: 65594 -1 765
Width: 770
Flags: W
LayerCount: 2
Fore
SplineSet
623 353 m 1,0,-1
 708 353 l 1,1,-1
 638 0 l 1,2,-1
 564 0 l 1,3,-1
 576 62 l 1,4,5
 532 29 532 29 482 11 c 128,-1,6
 432 -7 432 -7 381 -7 c 0,7,8
 289 -7 289 -7 215 36 c 128,-1,9
 141 79 141 79 99 154 c 128,-1,10
 57 229 57 229 57 321 c 0,11,12
 57 426 57 426 113 514.5 c 128,-1,13
 169 603 169 603 262.5 654.5 c 128,-1,14
 356 706 356 706 465 706 c 0,15,16
 538 706 538 706 605 680 c 128,-1,17
 672 654 672 654 720 609 c 1,18,-1
 657 539 l 1,19,20
 619 578 619 578 567.5 599.5 c 128,-1,21
 516 621 516 621 458 621 c 0,22,23
 378 621 378 621 308 581.5 c 128,-1,24
 238 542 238 542 196.5 474 c 128,-1,25
 155 406 155 406 155 327 c 0,26,27
 155 258 155 258 186.5 201 c 128,-1,28
 218 144 218 144 274 111.5 c 128,-1,29
 330 79 330 79 399 79 c 0,30,31
 449 79 449 79 498 100 c 128,-1,32
 547 121 547 121 584 157 c 1,33,-1
 623 353 l 1,0,-1
EndSplineSet
EndChar

StartChar: I.ss01
Encoding: 65601 -1 772
Width: 476
Flags: W
LayerCount: 2
Fore
SplineSet
494 612 m 1,0,-1
 355 612 l 1,1,-1
 251 88 l 1,2,-1
 387 88 l 1,3,-1
 370 0 l 1,4,-1
 0 0 l 1,5,-1
 17 88 l 1,6,-1
 155 88 l 1,7,-1
 259 612 l 1,8,-1
 124 612 l 1,9,-1
 140 700 l 1,10,-1
 510 700 l 1,11,-1
 494 612 l 1,0,-1
EndSplineSet
EndChar

StartChar: Iogonek.ss01
Encoding: 65616 -1 787
Width: 476
Flags: W
LayerCount: 2
Fore
SplineSet
355 612 m 1,0,-1
 251 88 l 1,1,-1
 387 88 l 1,2,-1
 370 0 l 1,3,-1
 233 0 l 1,4,5
 168 -42 168 -42 141.5 -68.5 c 128,-1,6
 115 -95 115 -95 115 -120 c 0,7,8
 115 -132 115 -132 122 -138.5 c 128,-1,9
 129 -145 129 -145 141 -145 c 0,10,11
 162 -145 162 -145 182 -135 c 1,12,-1
 193 -197 l 1,13,14
 151 -216 151 -216 108 -216 c 0,15,16
 69 -216 69 -216 46.5 -198 c 128,-1,17
 24 -180 24 -180 24 -146 c 0,18,19
 24 -70 24 -70 126 0 c 1,20,-1
 0 0 l 1,21,-1
 17 88 l 1,22,-1
 155 88 l 1,23,-1
 259 612 l 1,24,-1
 124 612 l 1,25,-1
 140 700 l 1,26,-1
 510 700 l 1,27,-1
 494 612 l 1,28,-1
 355 612 l 1,0,-1
EndSplineSet
EndChar

StartChar: J.ss01
Encoding: 65618 -1 789
Width: 489
Flags: W
LayerCount: 2
Fore
SplineSet
492 700 m 1,0,-1
 373 108 l 2,1,2
 353 5 353 5 289 -49.5 c 128,-1,3
 225 -104 225 -104 129 -104 c 0,4,5
 68 -104 68 -104 21.5 -77.5 c 128,-1,6
 -25 -51 -25 -51 -54 -2 c 1,7,-1
 4 67 l 1,8,9
 29 29 29 29 63.5 9.5 c 128,-1,10
 98 -10 98 -10 135 -10 c 0,11,12
 190 -10 190 -10 228 24 c 128,-1,13
 266 58 266 58 279 119 c 2,14,-1
 378 612 l 1,15,-1
 132 612 l 1,16,-1
 149 700 l 1,17,-1
 492 700 l 1,0,-1
EndSplineSet
EndChar

StartChar: M.ss01
Encoding: 65622 -1 793
Width: 1202
Flags: W
LayerCount: 2
Fore
SplineSet
1110 647 m 128,-1,1
 1161 594 1161 594 1161 507 c 0,2,3
 1161 483 1161 483 1154 444 c 2,4,-1
 1065 0 l 1,5,-1
 968 0 l 1,6,-1
 1053 423 l 2,7,8
 1058 450 1058 450 1058 470 c 0,9,10
 1058 532 1058 532 1022 569.5 c 128,-1,11
 986 607 986 607 924 607 c 0,12,13
 868 607 868 607 816.5 577 c 128,-1,14
 765 547 765 547 729 496 c 128,-1,15
 693 445 693 445 681 384 c 2,16,-1
 604 0 l 1,17,-1
 507 0 l 1,18,-1
 592 423 l 2,19,20
 597 444 597 444 597 470 c 0,21,22
 597 532 597 532 560.5 569.5 c 128,-1,23
 524 607 524 607 463 607 c 0,24,25
 408 607 408 607 358 579.5 c 128,-1,26
 308 552 308 552 272 504.5 c 128,-1,27
 236 457 236 457 224 399 c 2,28,-1
 143 0 l 1,29,-1
 47 0 l 1,30,-1
 187 700 l 1,31,-1
 283 700 l 1,32,-1
 258 578 l 1,33,34
 305 635 305 635 371.5 667.5 c 128,-1,35
 438 700 438 700 513 700 c 0,36,37
 589 700 589 700 637.5 658.5 c 128,-1,38
 686 617 686 617 696 546 c 1,39,40
 743 617 743 617 816 658.5 c 128,-1,41
 889 700 889 700 974 700 c 256,42,0
 1059 700 1059 700 1110 647 c 128,-1,1
EndSplineSet
EndChar

